<?xml version="1.0" encoding="utf-8"?>
<!-- Generator: Adobe Illustrator 26.4.1, SVG Export Plug-In . SVG Version: 6.00 Build 0)  -->
<svg version="1.1" id="layer" xmlns="http://www.w3.org/2000/svg" xmlns:xlink="http://www.w3.org/1999/xlink" x="0px" y="0px"
	 viewBox="0 0 647.5 96" enable-background="new 0 0 647.5 96" xml:space="preserve">
<path fill="#002F30" d="M213.1,30.8V23h-28.6v49.9h28.6v-7.7h-20.8V51.7h20.8V44h-20.8V30.7h20.8V30.8z M252.6,72.9h8V23h-8V72.9z
	 M156.4,65.3V23.1h-7.9v42c0,4.3,3.5,7.9,7.9,7.9h22.5v-7.7C178.9,65.3,156.4,65.3,156.4,65.3z M67,23.1v7.6h12.4V73h8V30.7h10.2
	v-7.6H67z M133,23.1v21h-21.9v-21h-8V73h8V51.7H133V73h8V23.1H133z M218.2,23.1v7.6h10.3V73h8V30.7h10.2v-7.6H218.2L218.2,23.1z
	 M554.5,23.1v35.3l-25.3-33.5c-0.8-1.2-2.2-1.8-3.6-1.8h-0.1c-2.4,0-4.4,2-4.5,4.4V73h8V37.6l25.5,33.7c0.8,1.1,2.2,1.7,3.6,1.7
	c2.4,0,4.4-2,4.4-4.4V23.1L554.5,23.1L554.5,23.1z M513.7,30.8V23h-31.5v49.9h31.5v-7.7h-23.5V51.7h23.5V44h-23.5V30.7L513.7,30.8
	L513.7,30.8z M588.1,43.6L588.1,43.6c-6.4-2-10.3-3.6-10.3-7.6c0-3.7,3.4-6.3,7.9-6.3c3.8,0,8.3,1.2,8.9,7l0.1,1h8.1l-0.2-1.2
	c-1.5-9.1-7.3-14.1-16.8-14.1s-16,5.8-16,13.6c0,9.5,8.6,12.6,14.2,14.4l0.3,0.1c6.3,2.2,10.2,3.6,10.2,8S591,66,586,66
	c-4.5,0-9.4-2-10.1-8.1l-0.1-0.9h-8l0.1,1.1c0.8,9.4,7.6,15.4,18.1,15.4s16.6-7.8,16.6-15C602.6,49,594.2,45.9,588.1,43.6
	L588.1,43.6z M474.9,30.8V23h-31.5v49.9h31.5v-7.7h-23.5V51.7h23.5V44h-23.5V30.7L474.9,30.8L474.9,30.8z M393.3,44.9H369v7.7h18.8
	C386,61.7,378.7,66,371.2,66c-9,0-18.2-6.2-18.2-18s9-18,18-18c6.2,0,12.7,3.2,16,10h8.3c-3.4-10.5-13.1-17.6-24.1-17.6
	C356.5,22.4,345,33.6,345,48s11.6,25.6,25.9,25.6s25.3-10.9,25.3-25.8C396.1,46.3,394.9,45,393.3,44.9L393.3,44.9z M419.2,48.5h-8.9
	V30.6h7.8c6.6,0,9.9,4.5,9.9,8.9S425.2,47.9,419.2,48.5L419.2,48.5z M425.3,54.7c7.4-2.7,10.7-8.8,10.7-14.9
	c0-8.3-6.3-16.8-17.5-16.8h-16.1v49.9h7.9V56.1h6.8l11.1,16.8h9.5L425.3,54.7L425.3,54.7z M310.7,53.2l-0.2,0.6
	c-2.2,7.3-9,12.3-16.7,12.2c-9,0-18-6.4-18-18s8.8-18,17.6-18c6.8,0,13.5,3.5,16.7,11.4l0.2,0.7h8.2l-0.4-1.3
	c-3.8-12.6-14.1-18.4-24.3-18.4c-13,0-26,9.2-26,25.6s12.9,25.6,25.9,25.6c10.4,0,21-5.9,25-19l0.4-1.3L310.7,53.2L310.7,53.2z
	 M38.3,55.5l9.6-22.1l9.7,22.1H38.3z M53.6,26.6C52.7,24.4,50.4,23,48,23c-2.4,0-4.6,1.4-5.5,3.6L22,72.9h8.7l4.3-9.8h26.1l4.3,9.8
	h8.7L53.6,26.6z M617.6,30.5c0.2-0.3,0.3-0.7,0.3-1.2s-0.1-0.8-0.3-1.1c-0.2-0.3-0.4-0.5-0.8-0.7c-0.3-0.1-0.5-0.2-0.8-0.2h-3.1v6.2
	h1.4v-2.1h1.3l1.1,2.1h1.5l-1.3-2.4C617.2,30.9,617.4,30.7,617.6,30.5L617.6,30.5z M614.3,28.3h1.3c0.2,0,0.3,0.1,0.6,0.2
	c0.2,0.1,0.3,0.4,0.3,0.8s-0.1,0.6-0.3,0.8c-0.2,0.2-0.4,0.3-0.6,0.3h-1.3V28.3L614.3,28.3z M621.5,27.9c-0.7-1.6-2-2.9-3.6-3.6
	c-0.8-0.3-1.7-0.5-2.6-0.5c-1.8,0-3.5,0.7-4.7,2c-1.3,1.3-2,3-2,4.7c0,1.8,0.7,3.5,2,4.7c1.3,1.3,3,2,4.7,2c1.8,0,3.5-0.7,4.7-2
	c1.3-1.3,2-3,2-4.7C622,29.6,621.8,28.7,621.5,27.9L621.5,27.9z M619.7,33.1c-0.5,0.8-1.1,1.4-1.9,1.9c-0.8,0.5-1.6,0.7-2.6,0.7
	s-1.8-0.2-2.6-0.7s-1.4-1.1-1.9-1.9s-0.7-1.6-0.7-2.6s0.2-1.8,0.7-2.6c0.5-0.8,1.1-1.4,1.9-1.9c0.8-0.5,1.6-0.7,2.6-0.7
	s1.8,0.2,2.6,0.7s1.4,1.1,1.9,1.9s0.7,1.6,0.7,2.6S620.1,32.3,619.7,33.1z"/>
</svg>
