<?xml version="1.0" encoding="utf-8"?>
<!-- Generator: Adobe Illustrator 26.4.1, SVG Export Plug-In . SVG Version: 6.00 Build 0)  -->
<svg version="1.1" id="katman_1" xmlns="http://www.w3.org/2000/svg" xmlns:xlink="http://www.w3.org/1999/xlink" x="0px" y="0px"
	 viewBox="0 0 194.4 37.2" enable-background="new 0 0 194.4 37.2" xml:space="preserve">
<path fill-rule="evenodd" clip-rule="evenodd" fill="#1D1D1B" d="M157.4,17.3l-3.7-0.4c-2.2-0.2-2.7-0.8-2.7-1.5
	c0-0.8,1.1-1.5,3.3-1.5c2.1,0,3.2,0.8,3.4,1.9h3.9c-0.2-3.3-3-5.4-7.1-5.4c-4.9,0-7.3,1.9-7.3,5.3c0,2.8,1.6,4.1,5,4.4l3.7,0.4
	c1.4,0.2,2.1,0.7,2.1,1.4c0,0.8-0.9,1.5-3.2,1.5c-2.6,0-3.7-0.7-3.9-2H147c0.2,3.6,2.5,5.5,7.6,5.5c4.6,0,7.2-2,7.2-5.1
	C161.8,19.2,160.3,17.6,157.4,17.3z M71.9,23.4c2.2,0,3.4-0.8,3.4-2.9v-9.8h4v10.2c0,4.6-4,6-7.4,6s-7.5-1.4-7.5-6V10.7h4v9.8
	C68.4,22.5,69.8,23.4,71.9,23.4z M16.6,26.6l14.1-8.8H38c0.1,0,0.1,0,0.2,0c0.1,0,0.1,0.1,0.1,0.1l0.1,0.1c0,0.1,0,0.1,0,0.2
	c0,0.1,0,0.1,0,0.2s-0.1,0.1-0.2,0.1l-6.9,4.2c-0.5,0.3-0.6,0.8-0.6,1.2v2.6h8.8V11.3c0-0.1,0-0.1,0-0.2s-0.1-0.1-0.1-0.2
	c-0.1-0.1-0.1-0.1-0.2-0.1c-0.1,0-0.1,0-0.2,0h-8.4l-14.1,8.8v7H16.6z M132.5,26.6h12.7v-3.4h-8.7v-2.9h7v-3.4h-7v-2.7h8.7v-3.4
	h-12.7V26.6z M46.5,26.6l6.1-15.8h5.1l6.1,15.8h-4.3l-1-3h-6.8l-1.1,3H46.5z M55.2,14.1L53,20.3h4.4L55.2,14.1z M81.1,14.2h5.1v12.4
	h4V14.2h5.1v-3.4H81.1V14.2z M178.4,10.8h-4.8l-5.7,6.4v-6.4h-4v15.8h4v-6l5.4,6h5.1l-7.3-7.8L178.4,10.8z M115.6,10.8h7.4
	c5.7,0,7.2,2.2,7.2,7.8c0,5.9-1.6,8-7.2,8h-7.4V10.8z M119.7,23.2h3.2c2.4,0,3.3-1.2,3.3-4.6c0-3.7-0.7-4.4-3.3-4.4h-3.2V23.2z
	 M96,18.6c0-4.8,3-8.3,8.7-8.3c5.8,0,8.7,3.5,8.7,8.3s-3,8.3-8.7,8.3C99,27,96,23.4,96,18.6z M100.1,18.6c0,3,1.6,4.8,4.6,4.8
	s4.6-1.8,4.6-4.8c0-2.9-1.6-4.7-4.6-4.7S100.1,15.7,100.1,18.6z"/>
</svg>
