<svg width="407" height="141" viewBox="0 0 407 141" fill="none" xmlns="http://www.w3.org/2000/svg">
<path d="M236.397 93.1764C236.431 94.8653 235.808 96.5018 234.66 97.7392C233.476 98.9497 231.842 99.6157 230.152 99.5797C228.397 99.5902 226.71 98.8897 225.478 97.6387C222.942 95.0228 222.963 90.793 225.526 88.2026C226.785 86.9531 228.489 86.2541 230.261 86.2616C230.99 86.2571 231.718 86.3546 232.42 86.5541C233.082 86.7431 233.706 87.0461 234.266 87.4481L233.729 88.2866L233.193 89.125C232.781 88.807 232.315 88.5626 231.82 88.4051C231.309 88.2491 230.776 88.1726 230.242 88.1786C229.019 88.1696 227.845 88.6631 226.995 89.5435C226.131 90.4525 225.656 91.6659 225.673 92.9214C225.653 94.1723 226.113 95.3843 226.959 96.3068C227.79 97.1932 228.956 97.6927 230.17 97.6822C231.214 97.7137 232.232 97.3522 233.022 96.6698C233.744 95.9993 234.215 95.1008 234.358 94.1244H230.025L230.616 93.1944L231.208 92.2644H236.307C236.338 92.3979 236.361 92.5344 236.373 92.6724C236.388 92.8344 236.397 93.0114 236.397 93.1764ZM257.919 99.5797C256.141 99.5857 254.43 98.8822 253.169 97.6252C251.922 96.3788 251.218 94.6853 251.218 92.9214C251.218 91.156 251.922 89.4625 253.169 88.2161C255.789 85.6272 260.059 85.6272 262.679 88.2161C263.932 89.4595 264.638 91.1545 264.638 92.9214C264.638 94.6868 263.932 96.3818 262.679 97.6252C261.414 98.8822 259.701 99.5842 257.919 99.5797ZM269.453 94.3613C269.434 95.2313 269.751 96.0773 270.337 96.7193C271.63 97.9942 273.735 97.9942 275.03 96.7193C275.615 96.0773 275.934 95.2328 275.916 94.3613V86.5346H277.937V94.3808C277.961 95.7713 277.421 97.1152 276.44 98.1022C274.323 100.061 271.019 100.061 268.902 98.1022C267.917 97.1182 267.374 95.7743 267.396 94.3808V86.5346H269.453V94.3613ZM241.349 99.3052H239.292V86.5346H244.445C245.616 86.4956 246.758 86.9216 247.618 87.7196C249.007 89.176 249.187 91.4274 248.046 93.0864C247.526 93.7674 246.788 94.2504 245.957 94.4528L247.477 96.8783L248.998 99.3052H246.612L245.201 96.9983L243.789 94.6898H241.349V99.3052ZM283.764 99.3052H281.707V86.5346H286.66C287.853 86.4971 289.013 86.9291 289.892 87.7391C291.495 89.3665 291.495 92.0229 289.892 93.6504C289.013 94.4603 287.853 94.8923 286.66 94.8548H283.764V99.3052ZM257.919 97.6642C259.153 97.6702 260.339 97.1737 261.201 96.2903C262.984 94.4153 262.981 91.429 261.195 89.557C260.334 88.6751 259.154 88.1771 257.924 88.1771C256.693 88.1771 255.513 88.6751 254.653 89.557C252.876 91.4305 252.876 94.4108 254.653 96.2843C255.509 97.1692 256.689 97.6672 257.919 97.6642ZM283.764 88.4141V93.0309H286.66C287.274 93.0489 287.869 92.8269 288.323 92.4129C289.208 91.471 289.208 89.9845 288.323 89.044C287.872 88.6256 287.275 88.3991 286.66 88.4141H283.764ZM244.445 92.8479C245.037 92.8659 245.611 92.6544 246.05 92.2569C246.477 91.8309 246.707 91.2445 246.685 90.64C246.704 90.0355 246.474 89.4505 246.05 89.0215C245.616 88.6166 245.038 88.3976 244.445 88.4141H241.349V92.8479H244.445ZM270.835 63.8585C270.898 63.8585 270.961 63.86 271.024 63.863C271.744 63.86 272.459 63.9709 273.145 64.1914C273.766 64.3924 274.352 64.6879 274.883 65.0674L274.374 65.8789L273.864 66.6903C273.419 66.3964 272.943 66.1564 272.442 65.9749C271.98 65.8099 271.495 65.7259 271.006 65.7244C270.405 65.6869 269.813 65.8759 269.344 66.2524C268.985 66.5854 268.787 67.0578 268.802 67.5483C268.787 68.0838 269.08 68.5818 269.555 68.8278C270.188 69.1533 270.859 69.4038 271.552 69.5717C272.507 69.8072 273.416 70.2047 274.235 70.7492C275.033 71.3432 275.482 72.3001 275.43 73.2946C275.46 74.3491 275.03 75.366 274.253 76.0785C273.322 76.8465 272.138 77.2395 270.932 77.1795C270.045 77.1885 269.163 77.0415 268.326 76.7445C267.646 76.494 267.002 76.149 266.417 75.72L267.437 74.0971C267.968 74.4481 268.534 74.7421 269.125 74.9746C269.708 75.1995 270.328 75.3165 270.952 75.3195C271.597 75.354 272.236 75.162 272.756 74.7736C273.157 74.4421 273.385 73.9426 273.373 73.4221C273.383 72.8881 273.087 72.3931 272.612 72.1501C271.982 71.8217 271.314 71.5682 270.622 71.3972C269.666 71.1662 268.756 70.7702 267.932 70.2272C267.136 69.6302 266.69 68.6703 266.745 67.6758C266.713 66.6424 267.124 65.6449 267.874 64.9354C268.696 64.2379 269.736 63.8585 270.808 63.8585H270.835ZM223.578 70.5212C223.571 68.7498 224.277 67.0473 225.536 65.8039C226.816 64.5484 228.541 63.8495 230.333 63.863C231.875 63.824 233.384 64.3264 234.594 65.2849L234.066 66.1159L233.539 66.9453C233.077 66.5749 232.562 66.2779 232.01 66.0649C231.438 65.8564 230.833 65.7529 230.224 65.7604C229.007 65.7574 227.84 66.2539 226.999 67.1358C225.238 69.0348 225.238 72.0092 226.999 73.9081C227.84 74.7886 229.007 75.2865 230.224 75.2835C230.833 75.2895 231.438 75.186 232.01 74.9775C232.562 74.7646 233.077 74.4676 233.539 74.0971L234.066 74.928L234.594 75.7575C233.384 76.716 231.875 77.22 230.333 77.1795C228.541 77.193 226.816 76.4955 225.536 75.2385C224.277 73.9951 223.571 72.2926 223.578 70.5212ZM346.38 69.8657C346.413 69.9992 346.434 70.1357 346.446 70.2737C346.463 70.4357 346.472 70.6127 346.472 70.7777C346.506 72.4666 345.883 74.1031 344.735 75.3405C343.551 76.551 341.917 77.217 340.226 77.181C338.471 77.1915 336.785 76.491 335.553 75.24C333.017 72.6241 333.038 68.3943 335.601 65.8039C336.858 64.5544 338.562 63.8555 340.335 63.863C341.065 63.8585 341.792 63.9559 342.495 64.1554C343.157 64.3444 343.781 64.6474 344.34 65.0494L343.804 65.8879L343.266 66.7263C342.854 66.4084 342.39 66.1639 341.895 66.0064C341.383 65.8504 340.851 65.7739 340.317 65.7799C339.094 65.7709 337.918 66.2644 337.068 67.1448C336.206 68.0538 335.731 69.2673 335.746 70.5227C335.727 71.7737 336.188 72.9856 337.032 73.9081C337.865 74.7946 339.029 75.294 340.244 75.2835C341.287 75.315 342.305 74.9535 343.096 74.2711C343.817 73.6006 344.289 72.7021 344.432 71.7257H340.098L340.69 70.7957L341.283 69.8657H346.38ZM243.087 77.1795C241.307 77.187 239.597 76.4835 238.337 75.225C237.088 73.9801 236.386 72.2866 236.386 70.5212C236.386 68.7573 237.088 67.0623 238.337 65.8174C240.955 63.2285 245.227 63.2285 247.847 65.8174C249.1 67.0593 249.806 68.7543 249.806 70.5212C249.806 72.2881 249.1 73.9831 247.847 75.225C246.582 76.482 244.869 77.1855 243.087 77.1795ZM280.424 64.1374V71.9627C280.406 72.8326 280.722 73.6771 281.307 74.3206C282.601 75.5955 284.707 75.5955 286.001 74.3206C286.588 73.6786 286.907 72.8326 286.889 71.9627V64.1374H288.91V71.9807C288.934 73.3726 288.393 74.7166 287.413 75.702C285.296 77.6624 281.99 77.6624 279.873 75.702C278.888 74.7181 278.345 73.3741 278.367 71.9807V64.1374H280.424ZM315.771 76.9065H313.714V64.1374H315.771V76.9065ZM322.279 76.9065H320.314V64.1374H322.845L325.822 68.9628L328.799 73.7881V64.1374H330.765V76.9065H328.38L325.331 71.9627L322.279 67.0203V76.9065ZM254.699 76.9065H252.732V64.1374H255.263L261.218 73.7866V64.1374H263.185V76.9065H260.798L254.699 67.0188V76.9065ZM294.621 75.009H300.903V76.9065H292.564V64.1374H294.621V75.009ZM310.618 66.0334H306.613V76.9065H304.537V66.0334H300.55V64.1374H310.618V66.0334ZM243.087 75.264C244.321 75.27 245.505 74.7751 246.369 73.8916C248.151 72.0167 248.148 69.0288 246.361 67.1583C245.502 66.2764 244.321 65.7784 243.092 65.7784C241.861 65.7784 240.68 66.2764 239.821 67.1583C238.043 69.0318 238.043 72.0107 239.821 73.8856C240.677 74.7691 241.857 75.2685 243.087 75.264ZM255.961 54.7808C257.166 54.8393 258.351 54.4463 259.282 53.6798C260.057 52.9658 260.487 51.9504 260.458 50.8959C260.509 49.9015 260.06 48.9445 259.264 48.3505C258.443 47.806 257.536 47.4086 256.581 47.1746C255.888 47.0051 255.217 46.7546 254.584 46.4276C254.109 46.1831 253.816 45.6836 253.831 45.1496C253.816 44.6591 254.013 44.1867 254.373 43.8537C254.841 43.4772 255.433 43.2882 256.033 43.3242C256.523 43.3257 257.009 43.4112 257.47 43.5747C257.97 43.7562 258.448 43.9977 258.892 44.2917L259.401 43.4802L259.912 42.6687C259.381 42.2877 258.794 41.9937 258.172 41.7928C257.488 41.5723 256.771 41.4613 256.052 41.4643C254.904 41.4088 253.778 41.7928 252.902 42.5352C252.152 43.2447 251.742 44.2437 251.774 45.2756C251.717 46.2716 252.164 47.2316 252.961 47.8285C253.783 48.3715 254.693 48.7675 255.651 48.997C256.341 49.1695 257.009 49.4215 257.641 49.75C258.115 49.9945 258.41 50.4894 258.4 51.0234C258.412 51.5439 258.184 52.0419 257.783 52.3749C257.264 52.7619 256.626 52.9553 255.979 52.9193C255.355 52.9163 254.736 52.8009 254.154 52.5759C253.561 52.3434 252.995 52.0494 252.464 51.6984L251.955 52.5099L251.444 53.3213C252.031 53.7503 252.673 54.0953 253.355 54.3443C254.191 54.6413 255.073 54.7883 255.961 54.7808ZM280.493 54.7808C282.275 54.7868 283.987 54.0833 285.252 52.8264C286.506 51.5844 287.212 49.8895 287.212 48.1225C287.212 46.3556 286.506 44.6606 285.252 43.4172C282.632 40.8298 278.363 40.8298 275.743 43.4172C274.494 44.6636 273.792 46.3571 273.792 48.1225C273.792 49.8865 274.494 51.5814 275.743 52.8264C277.003 54.0833 278.714 54.7868 280.493 54.7808ZM242.723 54.7808C244.505 54.7868 246.218 54.0833 247.483 52.8264C248.736 51.5844 249.443 49.8895 249.443 48.1225C249.443 46.3556 248.736 44.6606 247.483 43.4172C244.863 40.8298 240.593 40.8298 237.973 43.4172C236.724 44.6636 236.022 46.3571 236.022 48.1225C236.022 49.8865 236.724 51.5814 237.973 52.8264C239.234 54.0833 240.945 54.7868 242.723 54.7808ZM229.276 41.7373C230.296 41.7133 231.288 42.0552 232.074 42.7047C232.789 43.3137 233.199 44.2092 233.193 45.1496C233.197 45.6761 233.055 46.1951 232.786 46.6466C232.513 47.0921 232.133 47.461 231.681 47.7205C232.276 48.0025 232.783 48.442 233.146 48.991C233.501 49.5355 233.687 50.1729 233.684 50.8224C233.69 51.8169 233.274 52.7679 232.539 53.4383C231.73 54.1508 230.682 54.5333 229.606 54.5078H224.216V41.7373H229.276ZM272.489 41.7373V43.6347H268.483V54.5078H266.408V43.6347H262.42V41.7373H272.489ZM292.656 41.7373L295.634 46.5626L298.611 51.3879V41.7373H300.577V54.5078H298.192L295.141 49.564L292.091 44.6201V54.5078H290.126V41.7373H292.656ZM242.723 52.8654C241.493 52.8684 240.313 52.3704 239.457 51.4854C237.68 49.612 237.68 46.6316 239.457 44.7581C240.318 43.8762 241.497 43.3797 242.728 43.3797C243.959 43.3797 245.138 43.8762 245.999 44.7581C247.785 46.6301 247.788 49.618 246.005 51.4929C245.143 52.3764 243.957 52.8714 242.723 52.8654ZM280.493 52.8654C279.262 52.8684 278.083 52.3704 277.226 51.4854C275.449 49.612 275.449 46.6316 277.226 44.7581C278.087 43.8762 279.267 43.3797 280.498 43.3797C281.728 43.3797 282.908 43.8762 283.767 44.7581C285.555 46.6301 285.558 49.618 283.775 51.4929C282.912 52.3764 281.727 52.8714 280.493 52.8654ZM229.612 48.925C229.603 48.925 229.595 48.925 229.586 48.925H226.273V52.6824H229.586C230.115 52.6914 230.625 52.4949 231.01 52.1334C231.369 51.7839 231.571 51.3024 231.571 50.7999C231.571 50.2989 231.369 49.8175 231.01 49.468C230.636 49.12 230.145 48.9265 229.636 48.925H229.612ZM229.282 43.5612C229.275 43.5612 229.267 43.5612 229.26 43.5612H226.273V47.1371H229.26C229.749 47.1476 230.225 46.9646 230.582 46.6256C231.266 45.9191 231.266 44.7791 230.582 44.0727C230.237 43.7442 229.779 43.5612 229.305 43.5612H229.282Z" fill="#177B57"/>
<path d="M72.4696 88.5819V75.5129H89.4515C91.2346 75.4949 92.9608 76.1609 94.2708 77.3728C95.5478 78.5713 96.2695 80.2527 96.2605 82.0062C96.2665 83.7716 95.5464 85.4636 94.2708 86.6815C92.9698 87.9145 91.2421 88.5954 89.4515 88.5819H72.4696ZM72.4696 64.9938V52.4183H86.6624C88.3511 52.3913 89.9845 53.0257 91.2152 54.1852C92.4173 55.3611 93.0851 56.9826 93.0611 58.6655C93.0821 60.359 92.4144 61.9909 91.2152 63.1849C89.995 64.3653 88.3571 65.0163 86.6624 64.9938H72.4696ZM207.991 70.5001C207.991 69.6376 207.949 68.7947 207.878 67.9622C207.806 67.1297 207.704 66.3077 207.581 65.4873H184.365L180.838 71.0341L177.311 76.5824H195.194C194.2 80.0982 192.152 83.2271 189.328 85.54C186.404 87.8695 182.768 89.1174 179.032 89.0754C174.182 89.0709 169.538 87.0805 166.184 83.5676C162.788 80.0382 160.893 75.3194 160.904 70.4176C160.907 65.5638 162.824 60.9004 166.235 57.4521C169.65 53.9692 174.324 52.0058 179.197 52.0073C181.287 51.9983 183.366 52.3313 185.349 52.9942C187.202 53.6227 188.946 54.5377 190.517 55.7061L193.635 50.7338L196.752 45.7615C194.312 44.0426 191.611 42.7286 188.753 41.8676C185.68 40.9467 182.488 40.4862 179.279 40.5012C175.119 40.4652 170.994 41.2512 167.138 42.8126C163.606 44.2705 160.399 46.4185 157.704 49.1304C151.346 55.5006 149.561 61.9324 148.29 67.8497C147.019 73.767 146.26 79.1713 141.953 83.4866C140.248 85.2296 138.221 86.6245 135.985 87.595C133.746 88.5369 131.338 89.0124 128.91 88.9929C123.921 88.9914 119.134 87.0025 115.609 83.4656C112.105 80.0622 110.124 75.3749 110.124 70.4851C110.124 65.5938 112.105 60.9079 115.609 57.5046C119.141 53.9722 123.92 51.9683 128.91 51.9248C130.97 51.9488 133.015 52.2788 134.981 52.9012C136.812 53.4892 138.53 54.3817 140.067 55.5411L143.224 50.5688L146.383 45.5965C143.947 43.8881 141.245 42.5996 138.385 41.7851C135.303 40.9122 132.112 40.4802 128.91 40.5012C123.971 40.4877 119.102 41.6681 114.717 43.9436C110.564 46.102 106.968 49.2009 104.218 52.9942C103.108 49.6613 100.897 46.8055 97.9522 44.899C94.6346 42.7706 90.7645 41.6696 86.8256 41.7341H60V99.2661H89.6147C93.0402 99.3096 96.4222 98.4786 99.4389 96.8511C102.132 95.3782 104.379 93.2018 105.939 90.5544C108.715 93.6293 112.096 96.0982 115.865 97.8066C119.837 99.596 124.145 100.514 128.5 100.499C133.551 100.54 138.536 99.341 143.019 97.0056C147.248 94.7632 150.877 91.5353 153.602 87.595C156.268 91.5443 159.874 94.7677 164.092 96.9756C168.605 99.3216 173.62 100.531 178.704 100.499C186.551 100.531 194.078 97.3476 199.531 91.6943C204.997 86.005 208.033 78.3958 207.991 70.5001Z" fill="#177B57"/>
</svg>
