<svg width="335" height="480" viewBox="0 0 335 480" fill="none" xmlns="http://www.w3.org/2000/svg">
<g filter="url(#filter0_b_54_175)">
<rect width="335" height="480" rx="16" fill="#6D7E7B" fill-opacity="0.6"/>
</g>
<path d="M42.224 59.256C40.24 59.256 38.4053 58.8293 36.72 57.976C35.056 57.1013 33.7227 55.8 32.72 54.072C31.7173 52.344 31.216 50.2533 31.216 47.8C31.216 45.3467 31.7173 43.2667 32.72 41.56C33.744 39.832 35.088 38.5307 36.752 37.656C38.4373 36.7813 40.2613 36.344 42.224 36.344C44.8053 36.344 46.9707 37.0053 48.72 38.328C50.4693 39.6293 51.5467 41.4 51.952 43.64L48.24 44.44C47.92 42.9467 47.2267 41.7733 46.16 40.92C45.0933 40.0453 43.7813 39.608 42.224 39.608C40.8373 39.608 39.6 39.928 38.512 40.568C37.424 41.208 36.5707 42.1467 35.952 43.384C35.3333 44.6 35.024 46.072 35.024 47.8C35.024 49.528 35.3333 51.0107 35.952 52.248C36.5707 53.464 37.424 54.392 38.512 55.032C39.6 55.6507 40.8373 55.96 42.224 55.96C43.7813 55.96 45.072 55.5653 46.096 54.776C47.12 53.9867 47.8133 52.8773 48.176 51.448L51.92 52.248C51.3653 54.424 50.2347 56.1413 48.528 57.4C46.8213 58.6373 44.72 59.256 42.224 59.256ZM64.805 48.568C64.805 47.5867 64.485 46.808 63.845 46.232C63.2263 45.656 62.3837 45.368 61.317 45.368C60.3357 45.368 59.525 45.6453 58.885 46.2C58.245 46.7333 57.8717 47.48 57.765 48.44L54.629 47.864C54.885 46.2853 55.6317 45.016 56.869 44.056C58.1063 43.096 59.589 42.616 61.317 42.616C63.4077 42.616 65.0823 43.1813 66.341 44.312C67.5997 45.4213 68.229 46.968 68.229 48.952V59H64.805V56.536C64.3357 57.3467 63.6423 58.008 62.725 58.52C61.8077 59.0107 60.8157 59.256 59.749 59.256C58.7037 59.256 57.765 59.0533 56.933 58.648C56.1223 58.2427 55.4823 57.6773 55.013 56.952C54.565 56.2267 54.341 55.4053 54.341 54.488C54.341 52.9093 54.949 51.6827 56.165 50.808C57.4023 49.9333 59.269 49.368 61.765 49.112L64.805 48.792V48.568ZM57.765 54.392C57.765 55.032 58.0103 55.5547 58.501 55.96C58.9917 56.3653 59.6423 56.568 60.453 56.568C61.797 56.568 62.853 56.152 63.621 55.32C64.389 54.488 64.7837 53.4 64.805 52.056V51.384L61.733 51.736C60.4317 51.8853 59.4397 52.1947 58.757 52.664C58.0957 53.112 57.765 53.688 57.765 54.392ZM82.3453 46.264C81.7693 46.008 81.0759 45.88 80.2653 45.88C78.9853 45.88 77.9186 46.4773 77.0653 47.672C76.2333 48.8453 75.8173 50.616 75.8173 52.984V59H72.3293V42.872H75.8173V45.944C76.2439 44.984 76.9266 44.1947 77.8653 43.576C78.8039 42.936 79.7639 42.616 80.7453 42.616C81.4706 42.616 82.0679 42.712 82.5373 42.904L82.3453 46.264ZM93.4008 59.256C92.3341 59.256 91.3528 59.0427 90.4568 58.616C89.5608 58.1893 88.9208 57.6347 88.5368 56.952V59H85.0488V36.344H88.5368V44.888C89.0274 44.2053 89.7101 43.6613 90.5848 43.256C91.4808 42.8293 92.4408 42.616 93.4648 42.616C95.0434 42.616 96.4088 42.968 97.5608 43.672C98.7128 44.376 99.5874 45.3573 100.185 46.616C100.803 47.8747 101.113 49.3147 101.113 50.936C101.113 52.5573 100.803 53.9973 100.185 55.256C99.5874 56.5147 98.7021 57.496 97.5288 58.2C96.3768 58.904 95.0008 59.256 93.4008 59.256ZM92.9528 56.216C94.3608 56.216 95.4914 55.736 96.3448 54.776C97.1981 53.7947 97.6248 52.5147 97.6248 50.936C97.6248 49.336 97.1981 48.056 96.3448 47.096C95.4914 46.136 94.3608 45.656 92.9528 45.656C91.5448 45.656 90.4141 46.136 89.5608 47.096C88.7074 48.056 88.2808 49.336 88.2808 50.936C88.2808 52.5147 88.7074 53.7947 89.5608 54.776C90.4141 55.736 91.5448 56.216 92.9528 56.216ZM111.785 59.256C110.185 59.256 108.756 58.904 107.497 58.2C106.239 57.4747 105.247 56.4827 104.521 55.224C103.817 53.9653 103.465 52.536 103.465 50.936C103.465 49.336 103.817 47.9067 104.521 46.648C105.247 45.3893 106.239 44.408 107.497 43.704C108.756 42.9787 110.185 42.616 111.785 42.616C113.385 42.616 114.815 42.9787 116.073 43.704C117.332 44.408 118.313 45.3893 119.017 46.648C119.743 47.9067 120.105 49.336 120.105 50.936C120.105 52.536 119.743 53.9653 119.017 55.224C118.313 56.4827 117.332 57.4747 116.073 58.2C114.815 58.904 113.385 59.256 111.785 59.256ZM111.785 56.216C113.215 56.216 114.367 55.7253 115.241 54.744C116.137 53.7627 116.585 52.4933 116.585 50.936C116.585 49.3787 116.137 48.1093 115.241 47.128C114.367 46.1467 113.215 45.656 111.785 45.656C110.356 45.656 109.193 46.1467 108.297 47.128C107.423 48.1093 106.985 49.3787 106.985 50.936C106.985 52.4933 107.423 53.7627 108.297 54.744C109.193 55.7253 110.356 56.216 111.785 56.216ZM123.329 42.872H126.817V45.56C127.393 44.664 128.129 43.9493 129.025 43.416C129.943 42.8827 130.977 42.616 132.129 42.616C133.857 42.616 135.255 43.1493 136.321 44.216C137.409 45.2613 137.953 46.648 137.953 48.376V59H134.465V49.176C134.465 48.152 134.167 47.3307 133.569 46.712C132.972 46.072 132.172 45.752 131.169 45.752C129.804 45.752 128.737 46.296 127.969 47.384C127.201 48.472 126.817 49.9867 126.817 51.928V59H123.329V42.872Z" fill="#f1f5fd"/>
<path d="M44.0078 250.89C44.0078 247.468 46.7822 244.693 50.2046 244.693V244.693C53.6269 244.693 56.4013 247.468 56.4013 250.89V307.442H44.0078V250.89Z" fill="#D8E0E0"/>
<path d="M66.1387 250.89C66.1387 247.468 68.913 244.693 72.3354 244.693V244.693C75.7578 244.693 78.5322 247.468 78.5322 250.89V307.442H66.1387V250.89Z" fill="#25b8ff"/>
<path d="M97.1221 246.966C97.1221 243.544 99.8964 240.77 103.319 240.77V240.77C106.741 240.77 109.516 243.544 109.516 246.966V307.44H97.1221V246.966Z" fill="#D8E0E0"/>
<path d="M119.254 246.966C119.254 243.544 122.028 240.77 125.451 240.77V240.77C128.873 240.77 131.647 243.544 131.647 246.966V307.44H119.254V246.966Z" fill="#25b8ff"/>
<path d="M150.237 246.966C150.237 243.544 153.012 240.77 156.434 240.77V240.77C159.856 240.77 162.631 243.544 162.631 246.966V307.44H150.237V246.966Z" fill="#D8E0E0"/>
<path d="M172.369 243.044C172.369 239.622 175.144 236.848 178.566 236.848V236.848C181.988 236.848 184.763 239.622 184.763 243.044V307.44H172.369V243.044Z" fill="#25b8ff"/>
<path d="M203.353 213.632C203.353 210.21 206.127 207.436 209.549 207.436V207.436C212.972 207.436 215.746 210.21 215.746 213.632V307.441H203.353V213.632Z" fill="#D8E0E0"/>
<path d="M225.483 213.632C225.483 210.21 228.258 207.436 231.68 207.436V207.436C235.103 207.436 237.877 210.21 237.877 213.632V307.441H225.483V213.632Z" fill="#25b8ff"/>
<path d="M256.468 135.197C256.468 131.774 259.242 129 262.665 129V129C266.087 129 268.861 131.774 268.861 135.197V307.441H256.468V135.197Z" fill="#D8E0E0"/>
<path d="M278.599 135.197C278.599 131.774 281.373 129 284.795 129V129C288.218 129 290.992 131.774 290.992 135.197V307.441H278.599V135.197Z" fill="#25b8ff"/>
<path d="M172.369 288.146C172.369 284.724 175.144 281.949 178.566 281.949V281.949C181.988 281.949 184.763 284.724 184.763 288.146V307.441H172.369V288.146Z" fill="#303B36"/>
<path d="M119.254 288.146C119.254 284.724 122.028 281.949 125.451 281.949V281.949C128.873 281.949 131.647 284.724 131.647 288.146V307.441H119.254V288.146Z" fill="#303B36"/>
<path d="M66.1387 288.146C66.1387 284.724 68.913 281.949 72.3354 281.949V281.949C75.7578 281.949 78.5322 284.724 78.5322 288.146V307.441H66.1387V288.146Z" fill="#303B36"/>
<path d="M225.483 276.378C225.483 272.956 228.258 270.182 231.68 270.182V270.182C235.103 270.182 237.877 272.956 237.877 276.378V307.438H225.483V276.378Z" fill="#303B36"/>
<path d="M278.599 246.966C278.599 243.544 281.373 240.77 284.795 240.77V240.77C288.218 240.77 290.992 243.544 290.992 246.966V307.44H278.599V246.966Z" fill="#303B36"/>
<path d="M44 376.441C47.3137 376.441 50 379.128 50 382.441V382.441C50 385.755 47.3137 388.441 44 388.441L36 388.441C32.6863 388.441 30 385.755 30 382.441V382.441C30 379.128 32.6863 376.441 36 376.441L44 376.441Z" fill="#D8E0E0"/>
<path d="M61.148 388.941V377.933H65.1425C67.2184 377.933 68.5079 378.971 68.5079 380.764C68.5079 381.786 67.8003 382.604 67.0611 382.918C68.1777 383.311 68.9955 384.192 68.9955 385.733C68.9955 387.715 67.643 388.941 65.3784 388.941H61.148ZM62.5791 382.462H65.0796C66.3849 382.462 67.0926 381.912 67.0926 380.811C67.0926 379.71 66.3849 379.16 65.0796 379.16H62.5791V382.462ZM62.5791 387.652H65.1425C66.7466 387.652 67.5644 386.976 67.5644 385.702C67.5644 384.412 66.7466 383.72 65.1425 383.72H62.5791V387.652ZM73.6863 380.89C75.6049 380.89 76.9417 382.022 76.9417 383.862V388.941H75.6207V387.589C75.1646 388.501 74.1267 389.067 72.9786 389.067C71.3903 389.067 70.3052 388.092 70.3052 386.724C70.3052 385.199 71.5475 384.365 74.0795 384.113L75.6207 383.94V383.783C75.6207 382.698 74.8501 382.006 73.6863 382.006C72.6012 382.006 71.8306 382.651 71.7205 383.72L70.4782 383.484C70.714 381.912 72.0193 380.89 73.6863 380.89ZM73.1831 387.966C74.7243 387.966 75.6207 386.944 75.6207 385.356V384.978L74.0795 385.151C72.4754 385.324 71.6419 385.875 71.6419 386.708C71.6419 387.447 72.271 387.966 73.1831 387.966ZM81.7728 389.067C79.8542 389.067 78.8163 387.872 78.4703 386.755L79.6183 386.252C79.9171 387.18 80.5462 387.935 81.7728 387.935C82.7479 387.935 83.3769 387.369 83.3769 386.724C83.3769 384.695 78.8163 386.001 78.8163 382.997C78.8163 381.739 79.9014 380.89 81.5998 380.89C82.9995 380.89 84.2104 381.676 84.5407 382.84L83.4241 383.327C83.2039 382.509 82.4176 381.99 81.5684 381.99C80.672 381.99 80.1058 382.352 80.1058 382.981C80.1058 384.68 84.6979 383.437 84.6822 386.708C84.6822 388.092 83.5185 389.067 81.7728 389.067ZM93.4891 384.617C93.4891 384.805 93.4733 385.088 93.4576 385.23H87.1985C87.2929 386.834 88.2994 387.888 89.7305 387.888C90.9414 387.888 91.7749 387.322 92.0108 386.331L93.2689 386.63C92.8757 388.171 91.5547 389.067 89.7305 389.067C87.3558 389.067 85.8618 387.227 85.8618 384.978C85.8618 382.73 87.3086 380.89 89.699 380.89C92.0422 380.89 93.4891 382.572 93.4891 384.617ZM87.2772 384.113H92.0737C91.9479 382.903 91.0987 382.006 89.699 382.006C88.4566 382.006 87.5445 382.792 87.2772 384.113ZM95.21 388.941V377.807H96.5467V388.941H95.21ZM99.3721 379.521C98.8374 379.521 98.4442 379.112 98.4442 378.593C98.4442 378.059 98.8374 377.65 99.3721 377.65C99.9225 377.65 100.331 378.059 100.331 378.593C100.331 379.112 99.9225 379.521 99.3721 379.521ZM98.7116 388.941V381.015H100.048V388.941H98.7116ZM102.213 388.941V381.015H103.55V382.509C104.1 381.566 105.06 380.89 106.271 380.89C107.922 380.89 109.101 382.006 109.101 383.689V388.941H107.765V383.94C107.765 382.871 107.088 382.1 105.972 382.1C104.493 382.1 103.55 383.374 103.55 385.466V388.941H102.213ZM118.445 384.617C118.445 384.805 118.43 385.088 118.414 385.23H112.155C112.249 386.834 113.256 387.888 114.687 387.888C115.898 387.888 116.731 387.322 116.967 386.331L118.225 386.63C117.832 388.171 116.511 389.067 114.687 389.067C112.312 389.067 110.818 387.227 110.818 384.978C110.818 382.73 112.265 380.89 114.655 380.89C116.999 380.89 118.445 382.572 118.445 384.617ZM112.233 384.113H117.03C116.904 382.903 116.055 382.006 114.655 382.006C113.413 382.006 112.501 382.792 112.233 384.113Z" fill="#f1f5fd"/>
<path d="M235.274 384.861C232.394 384.861 230.334 382.861 230.334 380.081C230.334 377.281 232.514 375.281 235.554 375.281C238.714 375.281 240.854 377.881 240.854 381.761C240.854 386.941 237.934 389.601 234.294 389.601C232.834 389.601 231.414 389.141 230.314 388.241L231.434 386.501C232.194 387.161 233.194 387.561 234.274 387.561C236.754 387.561 238.554 385.661 238.674 383.001C238.014 384.141 236.714 384.861 235.274 384.861ZM235.514 377.341C233.854 377.341 232.674 378.521 232.674 380.181C232.654 381.821 233.854 382.981 235.514 382.981C237.174 382.981 238.374 381.821 238.374 380.181C238.374 378.521 237.174 377.341 235.514 377.341ZM247.441 389.601C244.501 389.601 242.341 387.961 242.341 385.361C242.341 383.761 243.341 382.401 244.901 381.901C243.701 381.361 242.921 380.221 242.921 379.001C242.921 376.861 244.721 375.281 247.441 375.281C250.101 375.281 251.881 376.861 251.881 379.001C251.881 380.241 251.101 381.381 249.901 381.901C251.461 382.401 252.481 383.761 252.481 385.361C252.481 387.961 250.321 389.601 247.441 389.601ZM247.421 387.641C249.081 387.641 250.161 386.741 250.161 385.341C250.161 383.941 249.081 383.021 247.421 383.021C245.741 383.021 244.641 383.941 244.641 385.341C244.641 386.741 245.741 387.641 247.421 387.641ZM247.441 381.041C248.781 381.041 249.681 380.261 249.701 379.081C249.701 377.901 248.801 377.141 247.441 377.141C246.021 377.141 245.101 377.901 245.121 379.081C245.121 380.261 246.041 381.041 247.441 381.041ZM258.648 389.601C255.808 389.601 253.768 387.981 253.508 385.501L255.668 385.161C255.868 386.601 257.048 387.541 258.648 387.541C260.348 387.541 261.488 386.521 261.488 384.961C261.488 383.361 260.428 382.421 258.728 382.421C258.228 382.421 257.608 382.561 257.168 382.861L256.208 381.341L260.288 377.481H253.908V375.441H263.048V377.381L259.288 380.861C261.988 380.701 263.868 382.341 263.868 385.021C263.868 387.761 261.788 389.601 258.648 389.601ZM265.149 391.781L266.389 387.021H269.109L266.609 391.781H265.149ZM276.613 380.021C279.493 380.021 281.553 382.021 281.553 384.801C281.553 387.601 279.373 389.601 276.333 389.601C273.173 389.601 271.033 387.001 271.033 383.121C271.033 377.941 273.953 375.281 277.593 375.281C279.053 375.281 280.473 375.741 281.573 376.641L280.453 378.381C279.693 377.721 278.693 377.321 277.613 377.321C275.133 377.321 273.333 379.221 273.213 381.881C273.873 380.741 275.173 380.021 276.613 380.021ZM276.373 387.541C278.033 387.541 279.213 386.361 279.213 384.701C279.233 383.061 278.033 381.901 276.373 381.901C274.713 381.901 273.513 383.061 273.513 384.701C273.513 386.361 274.713 387.541 276.373 387.541ZM288.261 389.601C285.321 389.601 283.161 387.961 283.161 385.361C283.161 383.761 284.161 382.401 285.721 381.901C284.521 381.361 283.741 380.221 283.741 379.001C283.741 376.861 285.541 375.281 288.261 375.281C290.921 375.281 292.701 376.861 292.701 379.001C292.701 380.241 291.921 381.381 290.721 381.901C292.281 382.401 293.301 383.761 293.301 385.361C293.301 387.961 291.141 389.601 288.261 389.601ZM288.241 387.641C289.901 387.641 290.981 386.741 290.981 385.341C290.981 383.941 289.901 383.021 288.241 383.021C286.561 383.021 285.461 383.941 285.461 385.341C285.461 386.741 286.561 387.641 288.241 387.641ZM288.261 381.041C289.601 381.041 290.501 380.261 290.521 379.081C290.521 377.901 289.621 377.141 288.261 377.141C286.841 377.141 285.921 377.901 285.941 379.081C285.941 380.261 286.861 381.041 288.261 381.041ZM294.213 389.441V387.501L299.293 383.161C300.873 381.821 301.553 380.741 301.553 379.621C301.553 378.221 300.613 377.321 299.153 377.321C297.433 377.321 296.433 378.601 296.633 380.561L294.373 380.401C294.133 377.441 296.213 375.281 299.153 375.281C302.033 375.281 303.933 377.021 303.933 379.621C303.933 381.341 302.933 382.901 300.693 384.721L297.493 387.381H303.913V389.441H294.213Z" fill="#f1f5fd"/>
<path d="M44 402.441C47.3137 402.441 50 405.128 50 408.441V408.441C50 411.755 47.3137 414.441 44 414.441L36 414.441C32.6863 414.441 30 411.755 30 408.441V408.441C30 405.128 32.6863 402.441 36 402.441L44 402.441Z" fill="#303B36"/>
<path d="M61.148 414.941V403.933H65.3312C67.47 403.933 68.8539 405.191 68.8539 407.125C68.8539 409.06 67.47 410.318 65.3312 410.318H62.5791V414.941H61.148ZM62.5791 409.028H65.284C66.5893 409.028 67.3756 408.321 67.3756 407.125C67.3756 405.93 66.5893 405.207 65.284 405.207H62.5791V409.028ZM74.9697 408.321C74.6709 408.195 74.2935 408.132 73.9475 408.132C72.6894 408.132 71.6672 409.343 71.6672 411.922V414.941H70.3305V407.015H71.6672V408.619C72.1233 407.613 73.1612 406.89 74.1362 406.89C74.4665 406.89 74.781 406.937 75.0484 407.031L74.9697 408.321ZM79.552 415.067C77.193 415.067 75.5261 413.353 75.5261 410.978C75.5261 408.604 77.193 406.89 79.552 406.89C81.8952 406.89 83.5937 408.604 83.5937 410.978C83.5937 413.353 81.8952 415.067 79.552 415.067ZM79.552 413.872C81.1403 413.872 82.2097 412.677 82.2097 410.978C82.2097 409.28 81.1403 408.085 79.552 408.085C77.9636 408.085 76.8942 409.28 76.8942 410.978C76.8942 412.677 77.9636 413.872 79.552 413.872ZM85.9962 405.521C85.4615 405.521 85.0684 405.112 85.0684 404.593C85.0684 404.059 85.4615 403.65 85.9962 403.65C86.5466 403.65 86.9555 404.059 86.9555 404.593C86.9555 405.112 86.5466 405.521 85.9962 405.521ZM84.3292 417.929C84.2191 417.929 83.999 417.914 83.999 417.914L83.9675 416.718C84.0776 416.734 84.1091 416.734 84.1877 416.734C84.974 416.734 85.3357 416.168 85.3357 415.256V407.015H86.6724V415.429C86.6724 416.891 85.7446 417.929 84.3292 417.929ZM95.9924 410.617C95.9924 410.805 95.9767 411.088 95.9609 411.23H89.7019C89.7962 412.834 90.8027 413.888 92.2338 413.888C93.4447 413.888 94.2782 413.322 94.5141 412.331L95.7722 412.63C95.3791 414.171 94.058 415.067 92.2338 415.067C89.8591 415.067 88.3651 413.227 88.3651 410.978C88.3651 408.73 89.8119 406.89 92.2023 406.89C94.5456 406.89 95.9924 408.572 95.9924 410.617ZM89.7805 410.113H94.577C94.4512 408.903 93.602 408.006 92.2023 408.006C90.96 408.006 90.0478 408.792 89.7805 410.113ZM101.189 415.067C98.8299 415.067 97.2572 413.432 97.2572 410.978C97.2572 408.525 98.8299 406.89 101.189 406.89C103.029 406.89 104.381 407.896 104.664 409.469L103.343 409.736C103.17 408.777 102.337 408.085 101.22 408.085C99.6634 408.085 98.6569 409.233 98.6569 410.978C98.6569 412.724 99.6634 413.872 101.22 413.872C102.337 413.872 103.155 413.259 103.375 412.205L104.68 412.472C104.334 414.108 103.013 415.067 101.189 415.067ZM110.451 414.879C110.058 415.02 109.634 415.067 109.209 415.067C107.857 415.067 106.866 414.312 106.866 412.567V408.195H105.388V407.015H106.866V404.609H108.203V407.015H110.326V408.195H108.203V412.614C108.203 413.447 108.674 413.856 109.366 413.856C109.681 413.856 110.043 413.809 110.357 413.652L110.451 414.879Z" fill="#f1f5fd"/>
<path d="M232.846 415.441V413.501L237.926 409.161C239.506 407.821 240.186 406.741 240.186 405.621C240.186 404.221 239.246 403.321 237.786 403.321C236.066 403.321 235.066 404.601 235.266 406.561L233.006 406.401C232.766 403.441 234.846 401.281 237.786 401.281C240.666 401.281 242.566 403.021 242.566 405.621C242.566 407.341 241.566 408.901 239.326 410.721L236.126 413.381H242.546V415.441H232.846ZM250.316 415.441V412.301H243.116V410.261L250.056 401.441H252.656V410.261H254.536V412.301H252.656V415.441H250.316ZM245.576 410.261H250.316V404.201L245.576 410.261ZM260.777 415.601C257.937 415.601 255.897 413.981 255.637 411.501L257.797 411.161C257.997 412.601 259.177 413.541 260.777 413.541C262.477 413.541 263.617 412.521 263.617 410.961C263.617 409.361 262.557 408.421 260.857 408.421C260.357 408.421 259.737 408.561 259.297 408.861L258.337 407.341L262.417 403.481H256.037V401.441H265.177V403.381L261.417 406.861C264.117 406.701 265.997 408.341 265.997 411.021C265.997 413.761 263.917 415.601 260.777 415.601ZM267.278 417.781L268.518 413.021H271.238L268.738 417.781H267.278ZM273.118 415.441C273.577 411.641 276.038 407.321 279.058 403.481H271.558V401.441H281.478V403.481C278.338 407.641 275.798 411.961 275.478 415.441H273.118ZM287.3 415.601C284.46 415.601 282.42 413.981 282.16 411.501L284.32 411.161C284.52 412.601 285.7 413.541 287.3 413.541C289 413.541 290.14 412.521 290.14 410.961C290.14 409.361 289.08 408.421 287.38 408.421C286.88 408.421 286.26 408.561 285.82 408.861L284.86 407.341L288.94 403.481H282.56V401.441H291.7V403.381L287.94 406.861C290.64 406.701 292.52 408.341 292.52 411.021C292.52 413.761 290.44 415.601 287.3 415.601ZM298.653 410.861C295.773 410.861 293.713 408.861 293.713 406.081C293.713 403.281 295.893 401.281 298.933 401.281C302.093 401.281 304.233 403.881 304.233 407.761C304.233 412.941 301.313 415.601 297.673 415.601C296.213 415.601 294.793 415.141 293.693 414.241L294.813 412.501C295.573 413.161 296.573 413.561 297.653 413.561C300.133 413.561 301.933 411.661 302.053 409.001C301.393 410.141 300.093 410.861 298.653 410.861ZM298.893 403.341C297.233 403.341 296.053 404.521 296.053 406.181C296.033 407.821 297.233 408.981 298.893 408.981C300.553 408.981 301.753 407.821 301.753 406.181C301.753 404.521 300.553 403.341 298.893 403.341Z" fill="#f1f5fd"/>
<path d="M44 428.441C47.3137 428.441 50 431.128 50 434.441V434.441C50 437.755 47.3137 440.441 44 440.441L36 440.441C32.6863 440.441 30 437.755 30 434.441V434.441C30 431.128 32.6863 428.441 36 428.441L44 428.441Z" fill="#25b8ff"/>
<path d="M69.7031 440.941H68.0676L65.0167 436.035H62.5791V440.941H61.148V429.933H65.1111C67.2027 429.933 68.5708 431.144 68.5708 432.984C68.5708 434.336 67.8003 435.374 66.5264 435.815L69.7031 440.941ZM62.5791 431.207V434.745H64.9538C66.3063 434.745 67.1083 434.1 67.1083 432.984C67.1083 431.867 66.3063 431.207 64.9538 431.207H62.5791ZM77.7935 436.617C77.7935 436.805 77.7777 437.088 77.762 437.23H71.5029C71.5973 438.834 72.6038 439.888 74.0349 439.888C75.2458 439.888 76.0793 439.322 76.3152 438.331L77.5733 438.63C77.1801 440.171 75.8591 441.067 74.0349 441.067C71.6602 441.067 70.1662 439.227 70.1662 436.978C70.1662 434.73 71.613 432.89 74.0034 432.89C76.3466 432.89 77.7935 434.572 77.7935 436.617ZM71.5816 436.113H76.3781C76.2523 434.903 75.4031 434.006 74.0034 434.006C72.761 434.006 71.8489 434.792 71.5816 436.113ZM82.8798 441.067C80.4108 441.067 79.0583 439.306 79.0583 436.978C79.0583 434.651 80.4108 432.89 82.8641 432.89C83.9178 432.89 84.9557 433.409 85.4589 434.148V429.807H86.7957V440.941H85.4589V439.793C85.0972 440.517 84.0436 441.067 82.8798 441.067ZM83.0056 439.872C84.5625 439.872 85.5848 438.724 85.5848 436.978C85.5848 435.233 84.5625 434.085 83.0056 434.085C81.4487 434.085 80.4265 435.233 80.4265 436.978C80.4265 438.724 81.4487 439.872 83.0056 439.872ZM95.8475 433.015V440.941H94.5108V439.447C93.9604 440.391 93.0011 441.067 91.7901 441.067C90.1389 441.067 88.9594 439.951 88.9594 438.268V433.015H90.2961V438.016C90.2961 439.086 90.9724 439.856 92.0889 439.856C93.5672 439.856 94.5108 438.582 94.5108 436.491V433.015H95.8475ZM101.496 441.067C99.137 441.067 97.5644 439.432 97.5644 436.978C97.5644 434.525 99.137 432.89 101.496 432.89C103.336 432.89 104.688 433.896 104.971 435.469L103.65 435.736C103.477 434.777 102.644 434.085 101.527 434.085C99.9705 434.085 98.964 435.233 98.964 436.978C98.964 438.724 99.9705 439.872 101.527 439.872C102.644 439.872 103.462 439.259 103.682 438.205L104.987 438.472C104.641 440.108 103.32 441.067 101.496 441.067ZM110.759 440.879C110.365 441.02 109.941 441.067 109.516 441.067C108.164 441.067 107.173 440.312 107.173 438.567V434.195H105.695V433.015H107.173V430.609H108.51V433.015H110.633V434.195H108.51V438.614C108.51 439.447 108.982 439.856 109.674 439.856C109.988 439.856 110.35 439.809 110.664 439.652L110.759 440.879ZM112.979 431.521C112.444 431.521 112.051 431.112 112.051 430.593C112.051 430.059 112.444 429.65 112.979 429.65C113.529 429.65 113.938 430.059 113.938 430.593C113.938 431.112 113.529 431.521 112.979 431.521ZM112.319 440.941V433.015H113.655V440.941H112.319ZM119.39 441.067C117.031 441.067 115.364 439.353 115.364 436.978C115.364 434.604 117.031 432.89 119.39 432.89C121.733 432.89 123.432 434.604 123.432 436.978C123.432 439.353 121.733 441.067 119.39 441.067ZM119.39 439.872C120.978 439.872 122.048 438.677 122.048 436.978C122.048 435.28 120.978 434.085 119.39 434.085C117.802 434.085 116.732 435.28 116.732 436.978C116.732 438.677 117.802 439.872 119.39 439.872ZM125.142 440.941V433.015H126.479V434.509C127.029 433.566 127.989 432.89 129.2 432.89C130.851 432.89 132.03 434.006 132.03 435.689V440.941H130.694V435.94C130.694 434.871 130.017 434.1 128.901 434.1C127.423 434.1 126.479 435.374 126.479 437.466V440.941H125.142Z" fill="#f1f5fd"/>
<path d="M237.757 441.441V438.301H230.557V436.261L237.497 427.441H240.097V436.261H241.977V438.301H240.097V441.441H237.757ZM233.017 436.261H237.757V430.201L233.017 436.261ZM248.398 441.601C245.458 441.601 243.298 439.961 243.298 437.361C243.298 435.761 244.298 434.401 245.858 433.901C244.658 433.361 243.878 432.221 243.878 431.001C243.878 428.861 245.678 427.281 248.398 427.281C251.058 427.281 252.838 428.861 252.838 431.001C252.838 432.241 252.058 433.381 250.858 433.901C252.418 434.401 253.438 435.761 253.438 437.361C253.438 439.961 251.278 441.601 248.398 441.601ZM248.378 439.641C250.038 439.641 251.118 438.741 251.118 437.341C251.118 435.941 250.038 435.021 248.378 435.021C246.698 435.021 245.598 435.941 245.598 437.341C245.598 438.741 246.698 439.641 248.378 439.641ZM248.398 433.041C249.738 433.041 250.638 432.261 250.658 431.081C250.658 429.901 249.758 429.141 248.398 429.141C246.978 429.141 246.058 429.901 246.078 431.081C246.078 432.261 246.998 433.041 248.398 433.041ZM260.5 432.021C263.38 432.021 265.44 434.021 265.44 436.801C265.44 439.601 263.26 441.601 260.22 441.601C257.06 441.601 254.92 439.001 254.92 435.121C254.92 429.941 257.84 427.281 261.48 427.281C262.94 427.281 264.36 427.741 265.46 428.641L264.34 430.381C263.58 429.721 262.58 429.321 261.5 429.321C259.02 429.321 257.22 431.221 257.1 433.881C257.76 432.741 259.06 432.021 260.5 432.021ZM260.26 439.541C261.92 439.541 263.1 438.361 263.1 436.701C263.12 435.061 261.92 433.901 260.26 433.901C258.6 433.901 257.4 435.061 257.4 436.701C257.4 438.361 258.6 439.541 260.26 439.541ZM266.575 443.781L267.815 439.021H270.535L268.035 443.781H266.575ZM272.414 441.441C272.874 437.641 275.334 433.321 278.354 429.481H270.854V427.441H280.774V429.481C277.634 433.641 275.094 437.961 274.774 441.441H272.414ZM286.809 432.021C289.689 432.021 291.749 434.021 291.749 436.801C291.749 439.601 289.569 441.601 286.529 441.601C283.369 441.601 281.229 439.001 281.229 435.121C281.229 429.941 284.149 427.281 287.789 427.281C289.249 427.281 290.669 427.741 291.769 428.641L290.649 430.381C289.889 429.721 288.889 429.321 287.809 429.321C285.329 429.321 283.529 431.221 283.409 433.881C284.069 432.741 285.369 432.021 286.809 432.021ZM286.569 439.541C288.229 439.541 289.409 438.361 289.409 436.701C289.429 435.061 288.229 433.901 286.569 433.901C284.909 433.901 283.709 435.061 283.709 436.701C283.709 438.361 284.909 439.541 286.569 439.541ZM300.179 441.441V438.301H292.979V436.261L299.919 427.441H302.519V436.261H304.399V438.301H302.519V441.441H300.179ZM295.439 436.261H300.179V430.201L295.439 436.261Z" fill="#f1f5fd"/>
<defs>
<filter id="filter0_b_54_175" x="-61.1579" y="-61.1579" width="457.316" height="602.316" filterUnits="userSpaceOnUse" color-interpolation-filters="sRGB">
<feFlood flood-opacity="0" result="BackgroundImageFix"/>
<feGaussianBlur in="BackgroundImageFix" stdDeviation="30.5789"/>
<feComposite in2="SourceAlpha" operator="in" result="effect1_backgroundBlur_54_175"/>
<feBlend mode="normal" in="SourceGraphic" in2="effect1_backgroundBlur_54_175" result="shape"/>
</filter>
</defs>
</svg>
