<svg xmlns="http://www.w3.org/2000/svg" xmlns:xlink="http://www.w3.org/1999/xlink" x="0px" y="0px"
		 viewBox="0 0 48 48" xml:space="preserve">
	<path fill="none" stroke="#C0C9C9" stroke-width="8" d="M44,24c0,5.5-2.2,10.5-5.9,14.1S29.5,44,24,44s-10.5-2.2-14.1-5.9
                              S4,29.5,4,24S6.2,13.5,9.9,9.9S18.5,4,24,4s10.5,2.2,14.1,5.9S44,18.5,44,24z"/>
	<path class="animation-radial-inner" stroke-linecap="round" fill="none" stroke="#6BA6FF"
				stroke-width="8" d="M44,24c0,5.5-2.2,10.5-5.9,14.1S29.5,44,24,44s-10.5-2.2-14.1-5.9
                              S4,29.5,4,24S6.2,13.5,9.9,9.9S18.5,4,24,4s10.5,2.2,14.1,5.9S44,18.5,44,24z"/>
	</svg>