<?xml version="1.0" encoding="utf-8"?>
<!-- Generator: Adobe Illustrator 26.4.1, SVG Export Plug-In . SVG Version: 6.00 Build 0)  -->
<svg version="1.1" id="katman_1" xmlns="http://www.w3.org/2000/svg" xmlns:xlink="http://www.w3.org/1999/xlink" x="0px" y="0px"
	 viewBox="0 0 800 193.5" enable-background="new 0 0 800 193.5" xml:space="preserve">
<path fill="#001B38" d="M155.1,116.3V28.6h28.6v84.1c0,5.9,1.3,7.4,7.4,7.4h2.5l3.4,23.2c-2.2,0.3-11,0.9-16.3,0.9
	C164.8,144.2,155.1,138.6,155.1,116.3z"/>
<path fill="#001B38" d="M374.2,62.7l22.3-1.7l2.2,6.6c4.5-4.2,12.3-8.4,29-8.4c28.9,0,35.5,20.4,35.5,43c0,22.8-7.4,42.9-37.2,42.9
	c-13.3,0-19.5-3.1-23.1-6.3v28.8h-28.6L374.2,62.7L374.2,62.7z M434.1,103.4c0-9.7-1.7-18.2-14.1-18.2c-13.3,0-17.2,6.8-17.2,18.2
	S405.7,121,420,121C432.1,121,434.1,113.1,434.1,103.4z"/>
<path fill="#001B38" d="M565.2,62.7l22.3-1.7l2.9,8.7c3.6-4.9,13.6-9.1,25.4-9.5v27.5c-19,0.1-22,5.8-22,17.1V144h-28.6L565.2,62.7
	L565.2,62.7z"/>
<path fill="#001B38" d="M623.7,60.1h14.7l4.6-16.8l22.1-4.8v21.6h18.1v27.5h-18.1v23.9c0,5.6,0.9,8.5,9.8,8.5h8.3v23.8
	c-4.3,0.3-9.1,0.4-14.4,0.4c-24.1,0-32.1-7.7-32.1-28.4V87.6h-13L623.7,60.1L623.7,60.1z"/>
<path fill="#001B38" d="M715,120h-23.8v23.8H715V120z"/>
<path fill="#001B38" d="M84.5,61.1h15.6v-1.6c0-20.8,7.8-31.2,34.7-31.2c7.1,0,8.4,0.1,11.9,0.4v23.2h-8c-8.2,0-9.9,2-9.9,7.4v1.8
	h17.9v24.2h-17.9v58.5H100V85.3H84.5V61.1z"/>
<path fill="#001B38" d="M259.2,119.2c-4.7,2.8-7.2,3.4-16.6,3.4c-11.2,0-15.5-4-16.9-10.7h55c1-29.2-1.4-52.7-38-52.7
	c-36.8,0-44.5,20.2-44.5,42.8c0,23.1,7.7,43.5,44.5,43.5c14.5,0,23.7-2.7,33.4-9L259.2,119.2z M241.7,82.7
	c11.8,0,12.6,5.6,13.1,12.3h-29.5C226.5,87.1,230.2,82.7,241.7,82.7z"/>
<path fill="#001B38" d="M337.3,143.9l-14-20.1l-14,20.1h-32l29.9-42.7L280,62.7h32.3l11.1,15.7l11.1-15.7h32.7L339.5,101l30.1,42.9
	H337.3z"/>
<path fill="#001B38" d="M469.1,102.2c0-27.4,12.6-43,44.9-43s44.8,15.6,44.8,43s-12.4,43.2-44.8,43.2
	C481.7,145.5,469.1,129.7,469.1,102.2z M530,103.1c0-10.4-2.6-17.9-16-17.9c-13.4,0-16,7.5-16,17.9c0,10.2,2.6,17.9,16,17.9
	C527.5,121,530,113.4,530,103.1z"/>
</svg>
