<svg width="335" height="481" viewBox="0 0 335 481" fill="none" xmlns="http://www.w3.org/2000/svg">
<g filter="url(#filter0_b_1203_1086)">
<rect y="0.5" width="335" height="480" rx="20" fill="#303B36" fill-opacity="0.6"/>
</g>
<path d="M50.128 61.5H45.808L40.144 51.996H35.984V61.5H32.24L32.208 39.1H40.624C44.944 39.1 47.76 41.628 47.76 45.532C47.76 48.156 46.352 50.332 43.984 51.356L50.128 61.5ZM35.984 42.364V48.7H40.08C42.544 48.7 43.952 47.548 43.952 45.532C43.952 43.548 42.544 42.364 40.08 42.364H35.984ZM66.5858 52.828C66.5858 53.308 66.5538 53.98 66.5218 54.268H54.2018C54.5218 57.052 56.3138 58.78 58.8738 58.78C60.9858 58.78 62.4898 57.788 62.9058 56.028L66.2018 56.86C65.3378 59.964 62.5858 61.756 58.8098 61.756C53.6898 61.756 50.7778 57.788 50.7778 53.436C50.7778 49.084 53.5298 45.116 58.6498 45.116C63.8338 45.116 66.5858 48.892 66.5858 52.828ZM54.3618 51.612H62.8738C62.6498 49.436 61.2098 47.868 58.6498 47.868C56.4418 47.868 54.8738 49.212 54.3618 51.612ZM73.3643 61.5L67.4763 45.372H71.0283L75.0283 57.436L79.0283 45.372H82.6123L76.7243 61.5H73.3643ZM99.3045 52.828C99.3045 53.308 99.2725 53.98 99.2405 54.268H86.9205C87.2405 57.052 89.0325 58.78 91.5925 58.78C93.7045 58.78 95.2085 57.788 95.6245 56.028L98.9205 56.86C98.0565 59.964 95.3045 61.756 91.5285 61.756C86.4085 61.756 83.4965 57.788 83.4965 53.436C83.4965 49.084 86.2485 45.116 91.3685 45.116C96.5525 45.116 99.3045 48.892 99.3045 52.828ZM87.0805 51.612H95.5925C95.3685 49.436 93.9285 47.868 91.3685 47.868C89.1605 47.868 87.5925 49.212 87.0805 51.612ZM102.548 61.5V45.372H106.036V48.06C107.124 46.332 108.98 45.116 111.348 45.116C114.772 45.116 117.172 47.388 117.172 50.876V61.5H113.684V51.676C113.684 49.66 112.436 48.252 110.388 48.252C107.668 48.252 106.036 50.556 106.036 54.428V61.5H102.548ZM135.735 45.372V61.5H132.247V58.812C131.159 60.54 129.303 61.756 126.935 61.756C123.511 61.756 121.111 59.484 121.111 55.996V45.372H124.599V55.196C124.599 57.212 125.847 58.62 127.895 58.62C130.615 58.62 132.247 56.316 132.247 52.444V45.372H135.735ZM154.773 52.828C154.773 53.308 154.741 53.98 154.709 54.268H142.389C142.709 57.052 144.501 58.78 147.061 58.78C149.173 58.78 150.677 57.788 151.093 56.028L154.389 56.86C153.525 59.964 150.773 61.756 146.997 61.756C141.877 61.756 138.965 57.788 138.965 53.436C138.965 49.084 141.717 45.116 146.837 45.116C152.021 45.116 154.773 48.892 154.773 52.828ZM142.549 51.612H151.061C150.837 49.436 149.397 47.868 146.837 47.868C144.629 47.868 143.061 49.212 142.549 51.612Z" fill="#f1f5fd"/>
<path d="M262 206C262 195.67 260.306 185.41 256.986 175.628L221.192 187.777C223.184 193.646 224.2 199.802 224.2 206H262Z" fill="#6D7E7B"/>
<path d="M257.32 176.631C252.546 162.028 244.283 148.81 233.247 138.121C222.212 127.432 208.737 119.595 193.99 115.289L183.394 151.573C192.242 154.157 200.327 158.859 206.948 165.273C213.57 171.686 218.527 179.617 221.392 188.378L257.32 176.631Z" fill="#C0C9C9"/>
<path d="M195.072 115.612C173.488 109.028 150.261 110.385 129.59 119.437C108.92 128.49 92.1712 144.64 82.3731 164.968L116.424 181.381C122.303 169.184 132.352 159.494 144.754 154.062C157.156 148.631 171.093 147.817 184.043 151.767L195.072 115.612Z" fill="#25b8ff"/>
<path d="M82.8459 164.001C75.6344 178.536 72.2872 194.684 73.1265 210.888C73.9658 227.093 78.9634 242.808 87.638 256.52C96.3126 270.233 108.372 281.481 122.654 289.181C136.937 296.881 152.962 300.774 169.185 300.485L168.511 262.691C158.777 262.865 149.162 260.529 140.593 255.909C132.023 251.289 124.788 244.54 119.583 236.312C114.378 228.085 111.38 218.656 110.876 208.933C110.372 199.21 112.381 189.522 116.708 180.801L82.8459 164.001Z" fill="#84E1FF"/>
<path d="M167.5 300.5C179.91 300.5 192.198 298.056 203.664 293.307C215.129 288.558 225.546 281.597 234.322 272.822C243.097 264.046 250.058 253.629 254.807 242.164C259.556 230.698 262 218.41 262 206H224.2C224.2 213.446 222.733 220.819 219.884 227.698C217.035 234.577 212.858 240.828 207.593 246.093C202.328 251.358 196.077 255.535 189.198 258.384C182.319 261.233 174.946 262.7 167.5 262.7L167.5 300.5Z" fill="#303B36"/>
<path d="M44 352.5C47.3137 352.5 50 355.186 50 358.5C50 361.814 47.3137 364.5 44 364.5L36 364.5C32.6863 364.5 30 361.814 30 358.5C30 355.186 32.6863 352.5 36 352.5L44 352.5Z" fill="#84E1FF"/>
<path d="M61.148 365V353.992H62.5791V365H61.148ZM64.8017 365V357.074H66.1384V358.568C66.6888 357.624 67.6481 356.948 68.8591 356.948C70.5103 356.948 71.6898 358.065 71.6898 359.747V365H70.3531V359.999C70.3531 358.93 69.6768 358.159 68.5603 358.159C67.082 358.159 66.1384 359.433 66.1384 361.524V365H64.8017ZM77.2282 365.126C74.7591 365.126 73.4067 363.364 73.4067 361.037C73.4067 358.709 74.7591 356.948 77.2125 356.948C78.2661 356.948 79.3041 357.467 79.8073 358.206V353.866H81.144V365H79.8073V363.852C79.4456 364.575 78.3919 365.126 77.2282 365.126ZM77.354 363.931C78.9109 363.931 79.9331 362.783 79.9331 361.037C79.9331 359.291 78.9109 358.143 77.354 358.143C75.7971 358.143 74.7749 359.291 74.7749 361.037C74.7749 362.783 75.7971 363.931 77.354 363.931ZM83.9683 355.58C83.4336 355.58 83.0404 355.171 83.0404 354.652C83.0404 354.117 83.4336 353.709 83.9683 353.709C84.5187 353.709 84.9276 354.117 84.9276 354.652C84.9276 355.171 84.5187 355.58 83.9683 355.58ZM83.3078 365V357.074H84.6445V365H83.3078ZM88.8223 365L85.9286 357.074H87.2968L89.4985 363.443L91.7159 357.074H93.0998L90.1905 365H88.8223ZM95.0565 355.58C94.5218 355.58 94.1287 355.171 94.1287 354.652C94.1287 354.117 94.5218 353.709 95.0565 353.709C95.607 353.709 96.0158 354.117 96.0158 354.652C96.0158 355.171 95.607 355.58 95.0565 355.58ZM94.396 365V357.074H95.7328V365H94.396ZM101.263 365.126C98.794 365.126 97.4415 363.364 97.4415 361.037C97.4415 358.709 98.794 356.948 101.247 356.948C102.301 356.948 103.339 357.467 103.842 358.206V353.866H105.179V365H103.842V363.852C103.48 364.575 102.427 365.126 101.263 365.126ZM101.389 363.931C102.946 363.931 103.968 362.783 103.968 361.037C103.968 359.291 102.946 358.143 101.389 358.143C99.8319 358.143 98.8097 359.291 98.8097 361.037C98.8097 362.783 99.8319 363.931 101.389 363.931ZM114.231 357.074V365H112.894V363.506C112.344 364.45 111.384 365.126 110.173 365.126C108.522 365.126 107.343 364.009 107.343 362.327V357.074H108.679V362.075C108.679 363.144 109.356 363.915 110.472 363.915C111.95 363.915 112.894 362.641 112.894 360.549V357.074H114.231ZM119.36 356.948C121.279 356.948 122.616 358.08 122.616 359.92V365H121.295V363.648C120.838 364.56 119.801 365.126 118.653 365.126C117.064 365.126 115.979 364.151 115.979 362.783C115.979 361.257 117.221 360.424 119.753 360.172L121.295 359.999V359.842C121.295 358.757 120.524 358.065 119.36 358.065C118.275 358.065 117.505 358.709 117.394 359.779L116.152 359.543C116.388 357.97 117.693 356.948 119.36 356.948ZM118.857 364.025C120.398 364.025 121.295 363.003 121.295 361.414V361.037L119.753 361.21C118.149 361.383 117.316 361.933 117.316 362.767C117.316 363.506 117.945 364.025 118.857 364.025ZM124.789 365V353.866H126.126V365H124.789ZM132.87 365V358.253H131.518V357.074H132.87V356.335C132.87 354.589 133.861 353.661 135.213 353.661C135.575 353.661 135.953 353.693 136.283 353.787L136.22 354.982C135.937 354.872 135.654 354.825 135.386 354.825C134.679 354.825 134.207 355.375 134.207 356.225V357.074H136.236V358.253H134.207V365H132.87ZM140.416 356.948C142.334 356.948 143.671 358.08 143.671 359.92V365H142.35V363.648C141.894 364.56 140.856 365.126 139.708 365.126C138.12 365.126 137.034 364.151 137.034 362.783C137.034 361.257 138.277 360.424 140.809 360.172L142.35 359.999V359.842C142.35 358.757 141.579 358.065 140.416 358.065C139.331 358.065 138.56 358.709 138.45 359.779L137.207 359.543C137.443 357.97 138.749 356.948 140.416 356.948ZM139.912 364.025C141.454 364.025 142.35 363.003 142.35 361.414V361.037L140.809 361.21C139.205 361.383 138.371 361.933 138.371 362.767C138.371 363.506 139 364.025 139.912 364.025ZM150.484 358.379C150.185 358.253 149.807 358.191 149.461 358.191C148.203 358.191 147.181 359.401 147.181 361.981V365H145.844V357.074H147.181V358.678C147.637 357.672 148.675 356.948 149.65 356.948C149.98 356.948 150.295 356.995 150.562 357.09L150.484 358.379ZM151.865 365V357.074H153.201V358.568C153.595 357.624 154.381 356.948 155.592 356.948C156.881 356.948 157.888 357.546 158.171 358.615C158.596 357.672 159.539 356.948 160.734 356.948C162.433 356.948 163.502 358.018 163.502 359.685V365H162.165V359.952C162.165 358.867 161.552 358.128 160.436 358.128C159.083 358.128 158.344 359.339 158.344 361.021V365H157.007V359.952C157.007 358.867 156.394 358.128 155.293 358.128C153.941 358.128 153.201 359.339 153.201 361.021V365H151.865ZM172.842 360.675C172.842 360.864 172.827 361.147 172.811 361.289H166.552C166.646 362.893 167.653 363.946 169.084 363.946C170.295 363.946 171.128 363.38 171.364 362.389L172.622 362.688C172.229 364.229 170.908 365.126 169.084 365.126C166.709 365.126 165.215 363.286 165.215 361.037C165.215 358.788 166.662 356.948 169.052 356.948C171.396 356.948 172.842 358.631 172.842 360.675ZM166.631 360.172H171.427C171.301 358.961 170.452 358.065 169.052 358.065C167.81 358.065 166.898 358.851 166.631 360.172ZM179.203 358.379C178.904 358.253 178.526 358.191 178.18 358.191C176.922 358.191 175.9 359.401 175.9 361.981V365H174.563V357.074H175.9V358.678C176.356 357.672 177.394 356.948 178.369 356.948C178.699 356.948 179.014 356.995 179.281 357.09L179.203 358.379ZM183.026 365.126C181.108 365.126 180.07 363.931 179.724 362.814L180.872 362.311C181.171 363.239 181.8 363.994 183.026 363.994C184.001 363.994 184.63 363.427 184.63 362.783C184.63 360.754 180.07 362.059 180.07 359.055C180.07 357.797 181.155 356.948 182.853 356.948C184.253 356.948 185.464 357.734 185.794 358.898L184.678 359.386C184.457 358.568 183.671 358.049 182.822 358.049C181.926 358.049 181.359 358.411 181.359 359.04C181.359 360.738 185.951 359.496 185.936 362.767C185.936 364.151 184.772 365.126 183.026 365.126Z" fill="#f1f5fd"/>
<path d="M271.482 366.66C268.602 366.66 266.522 365.02 266.262 362.54L268.742 362.14C268.942 363.44 270.022 364.3 271.502 364.3C273.042 364.3 274.082 363.36 274.082 361.98C274.082 360.54 273.102 359.66 271.562 359.66C271.082 359.66 270.442 359.8 269.982 360.12L268.922 358.34L272.762 354.84H266.662V352.5H275.942V354.7L272.362 357.9C274.982 357.8 276.802 359.4 276.802 362.04C276.802 364.82 274.682 366.66 271.482 366.66ZM283.24 366.66C280.36 366.66 278.28 365.02 278.02 362.54L280.5 362.14C280.7 363.44 281.78 364.3 283.26 364.3C284.8 364.3 285.84 363.36 285.84 361.98C285.84 360.54 284.86 359.66 283.32 359.66C282.84 359.66 282.2 359.8 281.74 360.12L280.68 358.34L284.52 354.84H278.42V352.5H287.7V354.7L284.12 357.9C286.74 357.8 288.56 359.4 288.56 362.04C288.56 364.82 286.44 366.66 283.24 366.66ZM293.057 359.38C291.077 359.38 289.777 357.94 289.777 355.86C289.777 353.78 291.077 352.34 293.057 352.34C295.017 352.34 296.317 353.78 296.317 355.86C296.317 357.94 295.017 359.38 293.057 359.38ZM291.417 366.5L300.777 352.5H302.817L293.457 366.5H291.417ZM293.057 357.66C293.877 357.66 294.377 356.98 294.377 355.86C294.377 354.74 293.877 354.06 293.057 354.06C292.217 354.06 291.697 354.74 291.697 355.86C291.697 356.98 292.217 357.66 293.057 357.66ZM301.257 366.66C299.277 366.66 297.977 365.22 297.977 363.14C297.977 361.06 299.277 359.62 301.257 359.62C303.217 359.62 304.517 361.06 304.517 363.14C304.517 365.22 303.217 366.66 301.257 366.66ZM301.257 364.94C302.077 364.94 302.577 364.26 302.577 363.14C302.577 362.02 302.077 361.34 301.257 361.34C300.417 361.34 299.897 362.02 299.897 363.14C299.897 364.26 300.417 364.94 301.257 364.94Z" fill="#f1f5fd"/>
<path d="M44 380.5C47.3137 380.5 50 383.186 50 386.5C50 389.814 47.3137 392.5 44 392.5L36 392.5C32.6863 392.5 30 389.814 30 386.5C30 383.186 32.6863 380.5 36 380.5L44 380.5Z" fill="#25b8ff"/>
<path d="M65.9917 393.126C63.2239 393.126 60.6448 391.286 60.6448 387.496C60.6448 383.706 63.2396 381.866 65.9917 381.866C68.3979 381.866 70.1749 383.218 70.631 385.341L69.2156 385.656C68.8696 384.067 67.6902 383.14 65.976 383.14C63.7429 383.14 62.1231 384.681 62.1231 387.496C62.1231 390.311 63.7429 391.836 65.976 391.836C67.6902 391.836 68.8067 390.956 69.1999 389.43L70.631 389.729C70.0806 391.805 68.3664 393.126 65.9917 393.126ZM75.8815 393.126C73.5225 393.126 71.8556 391.412 71.8556 389.037C71.8556 386.662 73.5225 384.948 75.8815 384.948C78.2247 384.948 79.9232 386.662 79.9232 389.037C79.9232 391.412 78.2247 393.126 75.8815 393.126ZM75.8815 391.931C77.4698 391.931 78.5392 390.735 78.5392 389.037C78.5392 387.339 77.4698 386.143 75.8815 386.143C74.2931 386.143 73.2237 387.339 73.2237 389.037C73.2237 390.735 74.2931 391.931 75.8815 391.931ZM85.2036 393.126C82.8447 393.126 81.1777 391.412 81.1777 389.037C81.1777 386.662 82.8447 384.948 85.2036 384.948C87.5469 384.948 89.2453 386.662 89.2453 389.037C89.2453 391.412 87.5469 393.126 85.2036 393.126ZM85.2036 391.931C86.792 391.931 87.8614 390.735 87.8614 389.037C87.8614 387.339 86.792 386.143 85.2036 386.143C83.6153 386.143 82.5459 387.339 82.5459 389.037C82.5459 390.735 83.6153 391.931 85.2036 391.931ZM90.9559 395.862V385.074H92.2926V386.222C92.7173 385.499 93.7552 384.948 94.9032 384.948C97.3408 384.948 98.6933 386.709 98.6933 389.037C98.6933 391.364 97.3093 393.126 94.8718 393.126C93.8653 393.126 92.8273 392.623 92.2926 391.899V395.862H90.9559ZM94.7459 391.931C96.3186 391.931 97.3408 390.783 97.3408 389.037C97.3408 387.291 96.3186 386.143 94.7459 386.143C93.2048 386.143 92.1826 387.291 92.1826 389.037C92.1826 390.783 93.2048 391.931 94.7459 391.931ZM107.572 388.675C107.572 388.864 107.556 389.147 107.541 389.289H101.282C101.376 390.893 102.382 391.946 103.814 391.946C105.024 391.946 105.858 391.38 106.094 390.389L107.352 390.688C106.959 392.229 105.638 393.126 103.814 393.126C101.439 393.126 99.9448 391.286 99.9448 389.037C99.9448 386.788 101.392 384.948 103.782 384.948C106.125 384.948 107.572 386.631 107.572 388.675ZM101.36 388.172H106.157C106.031 386.961 105.182 386.065 103.782 386.065C102.54 386.065 101.628 386.851 101.36 388.172ZM113.932 386.379C113.633 386.253 113.256 386.191 112.91 386.191C111.652 386.191 110.63 387.401 110.63 389.981V393H109.293V385.074H110.63V386.678C111.086 385.672 112.124 384.948 113.099 384.948C113.429 384.948 113.744 384.995 114.011 385.09L113.932 386.379ZM117.993 384.948C119.912 384.948 121.249 386.08 121.249 387.92V393H119.928V391.648C119.472 392.56 118.434 393.126 117.286 393.126C115.697 393.126 114.612 392.151 114.612 390.783C114.612 389.257 115.855 388.424 118.387 388.172L119.928 387.999V387.842C119.928 386.757 119.157 386.065 117.993 386.065C116.908 386.065 116.138 386.709 116.028 387.779L114.785 387.543C115.021 385.97 116.326 384.948 117.993 384.948ZM117.49 392.025C119.031 392.025 119.928 391.003 119.928 389.414V389.037L118.387 389.21C116.782 389.383 115.949 389.933 115.949 390.767C115.949 391.506 116.578 392.025 117.49 392.025ZM127.591 392.937C127.198 393.079 126.773 393.126 126.348 393.126C124.996 393.126 124.005 392.371 124.005 390.625V386.253H122.527V385.074H124.005V382.668H125.342V385.074H127.465V386.253H125.342V390.673C125.342 391.506 125.814 391.915 126.506 391.915C126.82 391.915 127.182 391.868 127.496 391.71L127.591 392.937ZM129.811 383.58C129.276 383.58 128.883 383.171 128.883 382.652C128.883 382.117 129.276 381.709 129.811 381.709C130.362 381.709 130.77 382.117 130.77 382.652C130.77 383.171 130.362 383.58 129.811 383.58ZM129.151 393V385.074H130.487V393H129.151ZM134.665 393L131.771 385.074H133.14L135.341 391.443L137.559 385.074H138.943L136.033 393H134.665ZM147.149 388.675C147.149 388.864 147.133 389.147 147.118 389.289H140.858C140.953 390.893 141.959 391.946 143.39 391.946C144.601 391.946 145.435 391.38 145.671 390.389L146.929 390.688C146.536 392.229 145.215 393.126 143.39 393.126C141.016 393.126 139.522 391.286 139.522 389.037C139.522 386.788 140.969 384.948 143.359 384.948C145.702 384.948 147.149 386.631 147.149 388.675ZM140.937 388.172H145.734C145.608 386.961 144.759 386.065 143.359 386.065C142.117 386.065 141.204 386.851 140.937 388.172ZM155.321 393.126C153.402 393.126 152.364 391.931 152.018 390.814L153.167 390.311C153.465 391.239 154.094 391.994 155.321 391.994C156.296 391.994 156.925 391.427 156.925 390.783C156.925 388.754 152.364 390.059 152.364 387.055C152.364 385.797 153.45 384.948 155.148 384.948C156.548 384.948 157.759 385.734 158.089 386.898L156.972 387.386C156.752 386.568 155.966 386.049 155.117 386.049C154.22 386.049 153.654 386.411 153.654 387.04C153.654 388.738 158.246 387.496 158.23 390.767C158.23 392.151 157.067 393.126 155.321 393.126ZM163.436 393.126C161.077 393.126 159.41 391.412 159.41 389.037C159.41 386.662 161.077 384.948 163.436 384.948C165.779 384.948 167.478 386.662 167.478 389.037C167.478 391.412 165.779 393.126 163.436 393.126ZM163.436 391.931C165.024 391.931 166.094 390.735 166.094 389.037C166.094 387.339 165.024 386.143 163.436 386.143C161.848 386.143 160.778 387.339 160.778 389.037C160.778 390.735 161.848 391.931 163.436 391.931ZM172.664 393.126C170.305 393.126 168.732 391.49 168.732 389.037C168.732 386.584 170.305 384.948 172.664 384.948C174.504 384.948 175.856 385.955 176.139 387.527L174.818 387.795C174.645 386.835 173.812 386.143 172.695 386.143C171.138 386.143 170.132 387.291 170.132 389.037C170.132 390.783 171.138 391.931 172.695 391.931C173.812 391.931 174.629 391.317 174.85 390.264L176.155 390.531C175.809 392.167 174.488 393.126 172.664 393.126ZM178.48 383.58C177.945 383.58 177.552 383.171 177.552 382.652C177.552 382.117 177.945 381.709 178.48 381.709C179.03 381.709 179.439 382.117 179.439 382.652C179.439 383.171 179.03 383.58 178.48 383.58ZM177.819 393V385.074H179.156V393H177.819ZM188.492 388.675C188.492 388.864 188.476 389.147 188.461 389.289H182.201C182.296 390.893 183.302 391.946 184.733 391.946C185.944 391.946 186.778 391.38 187.014 390.389L188.272 390.688C187.879 392.229 186.558 393.126 184.733 393.126C182.359 393.126 180.865 391.286 180.865 389.037C180.865 386.788 182.312 384.948 184.702 384.948C187.045 384.948 188.492 386.631 188.492 388.675ZM182.28 388.172H187.077C186.951 386.961 186.102 386.065 184.702 386.065C183.46 386.065 182.547 386.851 182.28 388.172ZM194.32 392.937C193.927 393.079 193.502 393.126 193.078 393.126C191.725 393.126 190.734 392.371 190.734 390.625V386.253H189.256V385.074H190.734V382.668H192.071V385.074H194.194V386.253H192.071V390.673C192.071 391.506 192.543 391.915 193.235 391.915C193.549 391.915 193.911 391.868 194.226 391.71L194.32 392.937ZM196.902 395.862L198.066 392.827L194.984 385.074H196.383L198.758 391.286L201.007 385.074H202.375L198.223 395.862H196.902Z" fill="#f1f5fd"/>
<path d="M266.889 394.5L266.869 392.3L271.849 388.1C273.369 386.82 274.029 385.82 274.029 384.76C274.029 383.5 273.169 382.68 271.849 382.68C270.289 382.68 269.389 383.9 269.549 385.74L266.969 385.56C266.689 382.58 268.889 380.34 271.849 380.34C274.809 380.34 276.769 382.14 276.769 384.76C276.769 386.52 275.749 388.08 273.449 389.9L270.689 392.14H276.749V394.5H266.889ZM278.373 394.5L278.353 392.3L283.333 388.1C284.853 386.82 285.513 385.82 285.513 384.76C285.513 383.5 284.653 382.68 283.333 382.68C281.773 382.68 280.873 383.9 281.033 385.74L278.453 385.56C278.173 382.58 280.373 380.34 283.333 380.34C286.293 380.34 288.253 382.14 288.253 384.76C288.253 386.52 287.233 388.08 284.933 389.9L282.173 392.14H288.233V394.5H278.373ZM293.057 387.38C291.077 387.38 289.777 385.94 289.777 383.86C289.777 381.78 291.077 380.34 293.057 380.34C295.017 380.34 296.317 381.78 296.317 383.86C296.317 385.94 295.017 387.38 293.057 387.38ZM291.417 394.5L300.777 380.5H302.817L293.457 394.5H291.417ZM293.057 385.66C293.877 385.66 294.377 384.98 294.377 383.86C294.377 382.74 293.877 382.06 293.057 382.06C292.217 382.06 291.697 382.74 291.697 383.86C291.697 384.98 292.217 385.66 293.057 385.66ZM301.257 394.66C299.277 394.66 297.977 393.22 297.977 391.14C297.977 389.06 299.277 387.62 301.257 387.62C303.217 387.62 304.517 389.06 304.517 391.14C304.517 393.22 303.217 394.66 301.257 394.66ZM301.257 392.94C302.077 392.94 302.577 392.26 302.577 391.14C302.577 390.02 302.077 389.34 301.257 389.34C300.417 389.34 299.897 390.02 299.897 391.14C299.897 392.26 300.417 392.94 301.257 392.94Z" fill="#f1f5fd"/>
<path d="M44 408.5C47.3137 408.5 50 411.186 50 414.5C50 417.814 47.3137 420.5 44 420.5L36 420.5C32.6863 420.5 30 417.814 30 414.5C30 411.186 32.6863 408.5 36 408.5L44 408.5Z" fill="#C0C9C9"/>
<path d="M61.148 421V409.992H64.4191C67.5015 409.992 69.939 411.957 69.939 415.496C69.939 419.034 67.5015 421 64.4191 421H61.148ZM62.5634 419.71H64.3719C66.495 419.71 68.4608 418.5 68.4608 415.496C68.4608 412.492 66.495 411.265 64.3719 411.265H62.5634V419.71ZM78.8378 416.675C78.8378 416.864 78.8221 417.147 78.8063 417.289H72.5473C72.6416 418.893 73.6481 419.946 75.0792 419.946C76.2901 419.946 77.1236 419.38 77.3595 418.389L78.6176 418.688C78.2245 420.229 76.9035 421.126 75.0792 421.126C72.7045 421.126 71.2105 419.286 71.2105 417.037C71.2105 414.788 72.6573 412.948 75.0478 412.948C77.391 412.948 78.8378 414.631 78.8378 416.675ZM72.6259 416.172H77.4224C77.2966 414.961 76.4474 414.065 75.0478 414.065C73.8054 414.065 72.8932 414.851 72.6259 416.172ZM82.3106 421L79.417 413.074H80.7852L82.9868 419.443L85.2042 413.074H86.5882L83.6788 421H82.3106ZM94.7945 416.675C94.7945 416.864 94.7787 417.147 94.763 417.289H88.5039C88.5983 418.893 89.6048 419.946 91.0359 419.946C92.2468 419.946 93.0803 419.38 93.3162 418.389L94.5743 418.688C94.1811 420.229 92.8601 421.126 91.0359 421.126C88.6612 421.126 87.1672 419.286 87.1672 417.037C87.1672 414.788 88.614 412.948 91.0044 412.948C93.3477 412.948 94.7945 414.631 94.7945 416.675ZM88.5826 416.172H93.3791C93.2533 414.961 92.4041 414.065 91.0044 414.065C89.7621 414.065 88.8499 414.851 88.5826 416.172ZM96.5154 421V409.866H97.8521V421H96.5154ZM103.587 421.126C101.228 421.126 99.5609 419.412 99.5609 417.037C99.5609 414.662 101.228 412.948 103.587 412.948C105.93 412.948 107.629 414.662 107.629 417.037C107.629 419.412 105.93 421.126 103.587 421.126ZM103.587 419.931C105.175 419.931 106.245 418.735 106.245 417.037C106.245 415.339 105.175 414.143 103.587 414.143C101.998 414.143 100.929 415.339 100.929 417.037C100.929 418.735 101.998 419.931 103.587 419.931ZM109.339 423.862V413.074H110.676V414.222C111.1 413.499 112.138 412.948 113.286 412.948C115.724 412.948 117.076 414.709 117.076 417.037C117.076 419.364 115.693 421.126 113.255 421.126C112.248 421.126 111.211 420.623 110.676 419.899V423.862H109.339ZM113.129 419.931C114.702 419.931 115.724 418.783 115.724 417.037C115.724 415.291 114.702 414.143 113.129 414.143C111.588 414.143 110.566 415.291 110.566 417.037C110.566 418.783 111.588 419.931 113.129 419.931ZM125.955 416.675C125.955 416.864 125.94 417.147 125.924 417.289H119.665C119.759 418.893 120.766 419.946 122.197 419.946C123.408 419.946 124.241 419.38 124.477 418.389L125.735 418.688C125.342 420.229 124.021 421.126 122.197 421.126C119.822 421.126 118.328 419.286 118.328 417.037C118.328 414.788 119.775 412.948 122.165 412.948C124.508 412.948 125.955 414.631 125.955 416.675ZM119.743 416.172H124.54C124.414 414.961 123.565 414.065 122.165 414.065C120.923 414.065 120.011 414.851 119.743 416.172ZM132.315 414.379C132.017 414.253 131.639 414.191 131.293 414.191C130.035 414.191 129.013 415.401 129.013 417.981V421H127.676V413.074H129.013V414.678C129.469 413.672 130.507 412.948 131.482 412.948C131.812 412.948 132.127 412.995 132.394 413.09L132.315 414.379Z" fill="#f1f5fd"/>
<path d="M273.818 422.5V411.5C272.858 412.26 271.838 412.74 270.598 412.98V410.56C271.898 410.26 273.238 409.5 274.258 408.5H276.338V422.5H273.818ZM283.476 422.66C280.716 422.66 278.676 421.12 278.296 418.78L280.756 418.32C281.016 419.54 282.016 420.3 283.376 420.3C284.856 420.3 285.836 419.3 285.836 417.82C285.836 416.28 284.816 415.32 283.216 415.32C282.096 415.32 281.236 415.8 280.596 416.74L278.636 416.32L279.796 408.5H287.516V410.84H281.776L281.256 414.18C281.896 413.6 282.916 413.18 283.896 413.18C286.656 413.18 288.556 415.06 288.556 417.82C288.556 420.74 286.556 422.66 283.476 422.66ZM293.057 415.38C291.077 415.38 289.777 413.94 289.777 411.86C289.777 409.78 291.077 408.34 293.057 408.34C295.017 408.34 296.317 409.78 296.317 411.86C296.317 413.94 295.017 415.38 293.057 415.38ZM291.417 422.5L300.777 408.5H302.817L293.457 422.5H291.417ZM293.057 413.66C293.877 413.66 294.377 412.98 294.377 411.86C294.377 410.74 293.877 410.06 293.057 410.06C292.217 410.06 291.697 410.74 291.697 411.86C291.697 412.98 292.217 413.66 293.057 413.66ZM301.257 422.66C299.277 422.66 297.977 421.22 297.977 419.14C297.977 417.06 299.277 415.62 301.257 415.62C303.217 415.62 304.517 417.06 304.517 419.14C304.517 421.22 303.217 422.66 301.257 422.66ZM301.257 420.94C302.077 420.94 302.577 420.26 302.577 419.14C302.577 418.02 302.077 417.34 301.257 417.34C300.417 417.34 299.897 418.02 299.897 419.14C299.897 420.26 300.417 420.94 301.257 420.94Z" fill="#f1f5fd"/>
<path d="M44 436.5C47.3137 436.5 50 439.186 50 442.5C50 445.814 47.3137 448.5 44 448.5L36 448.5C32.6863 448.5 30 445.814 30 442.5C30 439.186 32.6863 436.5 36 436.5L44 436.5Z" fill="#6D7E7B"/>
<path d="M64.2776 449L60.1415 437.992H61.6041L65.001 447.349L68.4136 437.992H69.8761L65.7401 449H64.2776ZM77.1484 444.675C77.1484 444.864 77.1327 445.147 77.117 445.289H70.8579C70.9523 446.893 71.9588 447.946 73.3899 447.946C74.6008 447.946 75.4343 447.38 75.6702 446.389L76.9283 446.688C76.5351 448.229 75.2141 449.126 73.3899 449.126C71.0152 449.126 69.5212 447.286 69.5212 445.037C69.5212 442.788 70.968 440.948 73.3584 440.948C75.7016 440.948 77.1484 442.631 77.1484 444.675ZM70.9365 444.172H75.7331C75.6073 442.961 74.758 442.065 73.3584 442.065C72.116 442.065 71.2039 442.851 70.9365 444.172ZM83.5086 442.379C83.2098 442.253 82.8324 442.191 82.4864 442.191C81.2283 442.191 80.2061 443.401 80.2061 445.981V449H78.8694V441.074H80.2061V442.678C80.6622 441.672 81.7001 440.948 82.6751 440.948C83.0054 440.948 83.3199 440.995 83.5873 441.09L83.5086 442.379ZM85.5501 439.58C85.0154 439.58 84.6222 439.171 84.6222 438.652C84.6222 438.117 85.0154 437.709 85.5501 437.709C86.1005 437.709 86.5094 438.117 86.5094 438.652C86.5094 439.171 86.1005 439.58 85.5501 439.58ZM84.8896 449V441.074H86.2263V449H84.8896ZM89.1775 449V442.253H87.825V441.074H89.1775V440.335C89.1775 438.589 90.1682 437.661 91.5207 437.661C91.8824 437.661 92.2598 437.693 92.5901 437.787L92.5272 438.982C92.2441 438.872 91.961 438.825 91.6937 438.825C90.986 438.825 90.5142 439.375 90.5142 440.225V441.074H92.5429V442.253H90.5142V449H89.1775ZM94.8108 439.58C94.2761 439.58 93.883 439.171 93.883 438.652C93.883 438.117 94.2761 437.709 94.8108 437.709C95.3612 437.709 95.7701 438.117 95.7701 438.652C95.7701 439.171 95.3612 439.58 94.8108 439.58ZM94.1503 449V441.074H95.487V449H94.1503ZM101.127 449.126C98.7684 449.126 97.1958 447.49 97.1958 445.037C97.1958 442.584 98.7684 440.948 101.127 440.948C102.967 440.948 104.32 441.955 104.603 443.527L103.282 443.795C103.109 442.835 102.275 442.143 101.159 442.143C99.6019 442.143 98.5955 443.291 98.5955 445.037C98.5955 446.783 99.6019 447.931 101.159 447.931C102.275 447.931 103.093 447.317 103.313 446.264L104.619 446.531C104.273 448.167 102.952 449.126 101.127 449.126ZM109.163 440.948C111.081 440.948 112.418 442.08 112.418 443.92V449H111.097V447.648C110.641 448.56 109.603 449.126 108.455 449.126C106.867 449.126 105.782 448.151 105.782 446.783C105.782 445.257 107.024 444.424 109.556 444.172L111.097 443.999V443.842C111.097 442.757 110.326 442.065 109.163 442.065C108.078 442.065 107.307 442.709 107.197 443.779L105.955 443.543C106.19 441.97 107.496 440.948 109.163 440.948ZM108.659 448.025C110.201 448.025 111.097 447.003 111.097 445.414V445.037L109.556 445.21C107.952 445.383 107.118 445.933 107.118 446.767C107.118 447.506 107.747 448.025 108.659 448.025ZM118.76 448.937C118.367 449.079 117.942 449.126 117.518 449.126C116.165 449.126 115.174 448.371 115.174 446.625V442.253H113.696V441.074H115.174V438.668H116.511V441.074H118.634V442.253H116.511V446.673C116.511 447.506 116.983 447.915 117.675 447.915C117.989 447.915 118.351 447.868 118.666 447.71L118.76 448.937ZM120.98 439.58C120.446 439.58 120.053 439.171 120.053 438.652C120.053 438.117 120.446 437.709 120.98 437.709C121.531 437.709 121.94 438.117 121.94 438.652C121.94 439.171 121.531 439.58 120.98 439.58ZM120.32 449V441.074H121.657V449H120.32ZM127.391 449.126C125.032 449.126 123.365 447.412 123.365 445.037C123.365 442.662 125.032 440.948 127.391 440.948C129.735 440.948 131.433 442.662 131.433 445.037C131.433 447.412 129.735 449.126 127.391 449.126ZM127.391 447.931C128.98 447.931 130.049 446.735 130.049 445.037C130.049 443.339 128.98 442.143 127.391 442.143C125.803 442.143 124.734 443.339 124.734 445.037C124.734 446.735 125.803 447.931 127.391 447.931ZM133.144 449V441.074H134.48V442.568C135.031 441.624 135.99 440.948 137.201 440.948C138.852 440.948 140.032 442.065 140.032 443.747V449H138.695V443.999C138.695 442.93 138.019 442.159 136.902 442.159C135.424 442.159 134.48 443.433 134.48 445.524V449H133.144ZM149.474 449.126C147.115 449.126 145.542 447.49 145.542 445.037C145.542 442.584 147.115 440.948 149.474 440.948C151.314 440.948 152.666 441.955 152.949 443.527L151.628 443.795C151.455 442.835 150.622 442.143 149.505 442.143C147.948 442.143 146.942 443.291 146.942 445.037C146.942 446.783 147.948 447.931 149.505 447.931C150.622 447.931 151.439 447.317 151.659 446.264L152.965 446.531C152.619 448.167 151.298 449.126 149.474 449.126ZM158.199 449.126C155.84 449.126 154.173 447.412 154.173 445.037C154.173 442.662 155.84 440.948 158.199 440.948C160.542 440.948 162.241 442.662 162.241 445.037C162.241 447.412 160.542 449.126 158.199 449.126ZM158.199 447.931C159.787 447.931 160.857 446.735 160.857 445.037C160.857 443.339 159.787 442.143 158.199 442.143C156.611 442.143 155.541 443.339 155.541 445.037C155.541 446.735 156.611 447.931 158.199 447.931ZM166.532 449.126C164.614 449.126 163.576 447.931 163.23 446.814L164.378 446.311C164.676 447.239 165.306 447.994 166.532 447.994C167.507 447.994 168.136 447.427 168.136 446.783C168.136 444.754 163.576 446.059 163.576 443.055C163.576 441.797 164.661 440.948 166.359 440.948C167.759 440.948 168.97 441.734 169.3 442.898L168.183 443.386C167.963 442.568 167.177 442.049 166.328 442.049C165.431 442.049 164.865 442.411 164.865 443.04C164.865 444.738 169.457 443.496 169.442 446.767C169.442 448.151 168.278 449.126 166.532 449.126ZM175.246 448.937C174.853 449.079 174.428 449.126 174.003 449.126C172.651 449.126 171.66 448.371 171.66 446.625V442.253H170.182V441.074H171.66V438.668H172.997V441.074H175.12V442.253H172.997V446.673C172.997 447.506 173.469 447.915 174.161 447.915C174.475 447.915 174.837 447.868 175.151 447.71L175.246 448.937ZM179.571 449.126C177.652 449.126 176.614 447.931 176.268 446.814L177.416 446.311C177.715 447.239 178.344 447.994 179.571 447.994C180.546 447.994 181.175 447.427 181.175 446.783C181.175 444.754 176.614 446.059 176.614 443.055C176.614 441.797 177.699 440.948 179.398 440.948C180.798 440.948 182.008 441.734 182.339 442.898L181.222 443.386C181.002 442.568 180.216 442.049 179.366 442.049C178.47 442.049 177.904 442.411 177.904 443.04C177.904 444.738 182.496 443.496 182.48 446.767C182.48 448.151 181.316 449.126 179.571 449.126Z" fill="#f1f5fd"/>
<path d="M284.571 450.5V447.58H277.511V445.22L284.351 436.5H287.291V445.22H289.071V447.58H287.291V450.5H284.571ZM280.311 445.22H284.571V439.74L280.311 445.22ZM293.057 443.38C291.077 443.38 289.777 441.94 289.777 439.86C289.777 437.78 291.077 436.34 293.057 436.34C295.017 436.34 296.317 437.78 296.317 439.86C296.317 441.94 295.017 443.38 293.057 443.38ZM291.417 450.5L300.777 436.5H302.817L293.457 450.5H291.417ZM293.057 441.66C293.877 441.66 294.377 440.98 294.377 439.86C294.377 438.74 293.877 438.06 293.057 438.06C292.217 438.06 291.697 438.74 291.697 439.86C291.697 440.98 292.217 441.66 293.057 441.66ZM301.257 450.66C299.277 450.66 297.977 449.22 297.977 447.14C297.977 445.06 299.277 443.62 301.257 443.62C303.217 443.62 304.517 445.06 304.517 447.14C304.517 449.22 303.217 450.66 301.257 450.66ZM301.257 448.94C302.077 448.94 302.577 448.26 302.577 447.14C302.577 446.02 302.077 445.34 301.257 445.34C300.417 445.34 299.897 446.02 299.897 447.14C299.897 448.26 300.417 448.94 301.257 448.94Z" fill="#f1f5fd"/>
<defs>
<filter id="filter0_b_1203_1086" x="-61.1579" y="-60.6579" width="457.316" height="602.316" filterUnits="userSpaceOnUse" color-interpolation-filters="sRGB">
<feFlood flood-opacity="0" result="BackgroundImageFix"/>
<feGaussianBlur in="BackgroundImageFix" stdDeviation="30.5789"/>
<feComposite in2="SourceAlpha" operator="in" result="effect1_backgroundBlur_1203_1086"/>
<feBlend mode="normal" in="SourceGraphic" in2="effect1_backgroundBlur_1203_1086" result="shape"/>
</filter>
</defs>
</svg>
