<svg width="335" height="480" viewBox="0 0 335 480" fill="none" xmlns="http://www.w3.org/2000/svg">
<g filter="url(#filter0_b_994_10457)">
<rect width="335" height="480" rx="16" fill="#303B36" fill-opacity="0.6"/>
</g>
<path d="M32.208 61V38.6H46.832V41.864H35.952V47.496H44.72V50.76H35.952V57.704H47.184V61H32.208ZM63.8623 61H59.9903L56.4383 55.656L52.8543 61H48.9823L54.5183 52.776L49.2383 44.872H53.0463L56.4383 49.896L59.7983 44.872H63.6063L58.3263 52.776L63.8623 61ZM75.6375 60.872C74.8695 61.128 73.9735 61.256 73.0775 61.256C70.0375 61.256 67.7655 59.592 67.7655 55.912V47.848H64.9495V44.872H67.7655V40.072H71.2535V44.872H75.4135V47.848H71.2535V55.72C71.2535 57.32 72.1495 58.152 73.4615 58.152C74.0695 58.152 74.8055 58.056 75.4135 57.768L75.6375 60.872ZM80.3073 42.184C79.0273 42.184 78.0673 41.192 78.0673 39.944C78.0673 38.664 79.0273 37.672 80.3073 37.672C81.6193 37.672 82.6113 38.664 82.6113 39.944C82.6113 41.192 81.6193 42.184 80.3073 42.184ZM78.5793 61V44.872H82.0673V61H78.5793ZM86.2043 61V44.872H89.6923V47.56C90.7803 45.832 92.6363 44.616 95.0043 44.616C98.4283 44.616 100.828 46.888 100.828 50.376V61H97.3403V51.176C97.3403 49.16 96.0923 47.752 94.0443 47.752C91.3243 47.752 89.6923 50.056 89.6923 53.928V61H86.2043ZM112.155 61.256C107.323 61.256 104.059 57.896 104.059 52.936C104.059 47.976 107.323 44.616 112.155 44.616C116.123 44.616 118.971 46.728 119.515 50.056L116.123 50.728C115.803 48.904 114.299 47.656 112.251 47.656C109.467 47.656 107.675 49.736 107.675 52.936C107.675 56.136 109.499 58.216 112.251 58.216C114.299 58.216 115.739 57.096 116.123 55.208L119.547 55.88C118.875 59.24 116.091 61.256 112.155 61.256ZM131.606 60.872C130.838 61.128 129.942 61.256 129.046 61.256C126.006 61.256 123.734 59.592 123.734 55.912V47.848H120.918V44.872H123.734V40.072H127.222V44.872H131.382V47.848H127.222V55.72C127.222 57.32 128.118 58.152 129.43 58.152C130.038 58.152 130.774 58.056 131.382 57.768L131.606 60.872ZM136.276 42.184C134.996 42.184 134.036 41.192 134.036 39.944C134.036 38.664 134.996 37.672 136.276 37.672C137.588 37.672 138.58 38.664 138.58 39.944C138.58 41.192 137.588 42.184 136.276 42.184ZM134.548 61V44.872H138.036V61H134.548ZM149.629 61.256C144.765 61.256 141.309 57.768 141.309 52.936C141.309 48.104 144.765 44.616 149.629 44.616C154.461 44.616 157.949 48.104 157.949 52.936C157.949 57.768 154.461 61.256 149.629 61.256ZM149.629 58.216C152.477 58.216 154.429 56.04 154.429 52.936C154.429 49.832 152.477 47.656 149.629 47.656C146.749 47.656 144.829 49.832 144.829 52.936C144.829 56.04 146.749 58.216 149.629 58.216ZM161.173 61V44.872H164.661V47.56C165.749 45.832 167.605 44.616 169.973 44.616C173.397 44.616 175.797 46.888 175.797 50.376V61H172.309V51.176C172.309 49.16 171.061 47.752 169.013 47.752C166.293 47.752 164.661 50.056 164.661 53.928V61H161.173ZM197.595 48.264C197.019 48.008 196.251 47.88 195.515 47.88C193.147 47.88 191.067 49.992 191.067 54.984V61H187.579V44.872H191.067V47.944C191.931 46.024 194.043 44.616 195.995 44.616C196.603 44.616 197.307 44.712 197.787 44.904L197.595 48.264ZM201.995 42.184C200.715 42.184 199.755 41.192 199.755 39.944C199.755 38.664 200.715 37.672 201.995 37.672C203.307 37.672 204.299 38.664 204.299 39.944C204.299 41.192 203.307 42.184 201.995 42.184ZM200.267 61V44.872H203.755V61H200.267ZM213.46 61.256C209.524 61.256 207.284 58.824 206.548 56.52L209.428 55.304C209.972 57.032 211.22 58.472 213.46 58.472C215.124 58.472 216.244 57.512 216.244 56.36C216.244 52.872 207.252 55.144 207.252 49.032C207.252 46.504 209.46 44.616 212.948 44.616C215.988 44.616 218.548 46.216 219.252 48.584L216.372 49.8C215.956 48.2 214.452 47.304 212.98 47.304C211.444 47.304 210.484 47.912 210.484 48.968C210.484 52.072 219.54 49.704 219.54 56.328C219.54 59.112 217.108 61.256 213.46 61.256ZM233.617 61L228.209 53.576L226.193 55.464V61H222.673V38.344H226.193V50.952L232.849 44.872H237.361L230.673 51.24L237.873 61H233.617ZM245.335 61.256C241.399 61.256 239.159 58.824 238.423 56.52L241.303 55.304C241.847 57.032 243.095 58.472 245.335 58.472C246.999 58.472 248.119 57.512 248.119 56.36C248.119 52.872 239.127 55.144 239.127 49.032C239.127 46.504 241.335 44.616 244.823 44.616C247.863 44.616 250.423 46.216 251.127 48.584L248.247 49.8C247.831 48.2 246.327 47.304 244.855 47.304C243.319 47.304 242.359 47.912 242.359 48.968C242.359 52.072 251.415 49.704 251.415 56.328C251.415 59.112 248.983 61.256 245.335 61.256Z" fill="#f1f5fd"/>
<path d="M133.457 285.299C118.551 279.134 105.601 269.036 95.9865 256.084C86.3725 243.133 80.4563 227.813 78.8695 211.761C77.2827 195.71 80.085 179.528 86.9771 164.945C93.8692 150.362 104.592 137.924 118.002 128.959C131.411 119.995 147.004 114.84 163.114 114.046C179.224 113.251 195.248 116.847 209.474 124.449C223.701 132.051 235.595 143.374 243.889 157.208C252.182 171.043 256.562 186.87 256.562 203" stroke="#25b8ff" stroke-width="11.875" stroke-linecap="round"/>
<path d="M98.8547 222.089C96.1299 212.29 95.5344 202.022 97.1083 191.974C98.6822 181.926 102.389 172.332 107.979 163.836C113.57 155.339 120.914 148.139 129.519 142.717C138.124 137.296 147.79 133.779 157.867 132.404C167.944 131.029 178.199 131.827 187.942 134.745C197.684 137.663 206.69 142.633 214.352 149.321C222.014 156.009 228.156 164.259 232.364 173.518C236.573 182.777 238.75 192.83 238.75 203" stroke="#84E1FF" stroke-width="11.875" stroke-linecap="round"/>
<path d="M116.046 188.576C119.531 176.144 127.399 165.394 138.196 158.314C148.993 151.233 161.989 148.302 174.78 150.061C187.571 151.82 199.293 158.15 207.778 167.882C216.263 177.614 220.938 190.089 220.938 203" stroke="#C0C9C9" stroke-width="11.875" stroke-linecap="round"/>
<path d="M160.9 167.457C166.077 166.569 171.385 166.822 176.453 168.199C181.522 169.575 186.228 172.042 190.244 175.428C194.259 178.813 197.487 183.034 199.701 187.797C201.915 192.559 203.062 197.748 203.062 203" stroke="#FF7324" stroke-width="11.875" stroke-linecap="round"/>
<path d="M44 347C47.3137 347 50 349.686 50 353C50 356.314 47.3137 359 44 359L36 359C32.6863 359 30 356.314 30 353C30 349.686 32.6863 347 36 347L44 347Z" fill="#FF7324"/>
<path d="M65.9917 359.626C63.2239 359.626 60.6448 357.786 60.6448 353.996C60.6448 350.206 63.2396 348.366 65.9917 348.366C68.3979 348.366 70.1749 349.718 70.631 351.841L69.2156 352.156C68.8696 350.567 67.6902 349.64 65.976 349.64C63.7429 349.64 62.1231 351.181 62.1231 353.996C62.1231 356.811 63.7429 358.336 65.976 358.336C67.6902 358.336 68.8067 357.456 69.1999 355.93L70.631 356.229C70.0806 358.305 68.3664 359.626 65.9917 359.626ZM76.9509 352.879C76.6521 352.753 76.2746 352.691 75.9287 352.691C74.6706 352.691 73.6484 353.901 73.6484 356.481V359.5H72.3116V351.574H73.6484V353.178C74.1044 352.172 75.1424 351.448 76.1174 351.448C76.4476 351.448 76.7622 351.495 77.0295 351.59L76.9509 352.879ZM78.9924 350.08C78.4577 350.08 78.0645 349.671 78.0645 349.152C78.0645 348.617 78.4577 348.209 78.9924 348.209C79.5428 348.209 79.9517 348.617 79.9517 349.152C79.9517 349.671 79.5428 350.08 78.9924 350.08ZM78.3318 359.5V351.574H79.6686V359.5H78.3318ZM86.0481 359.437C85.6549 359.579 85.2303 359.626 84.8057 359.626C83.4532 359.626 82.4625 358.871 82.4625 357.125V352.753H80.9842V351.574H82.4625V349.168H83.7992V351.574H85.9223V352.753H83.7992V357.173C83.7992 358.006 84.271 358.415 84.9629 358.415C85.2775 358.415 85.6392 358.368 85.9537 358.21L86.0481 359.437ZM88.2684 350.08C87.7337 350.08 87.3406 349.671 87.3406 349.152C87.3406 348.617 87.7337 348.209 88.2684 348.209C88.8188 348.209 89.2277 348.617 89.2277 349.152C89.2277 349.671 88.8188 350.08 88.2684 350.08ZM87.6079 359.5V351.574H88.9447V359.5H87.6079ZM94.585 359.626C92.226 359.626 90.6534 357.99 90.6534 355.537C90.6534 353.084 92.226 351.448 94.585 351.448C96.425 351.448 97.7774 352.455 98.0605 354.027L96.7395 354.295C96.5665 353.335 95.733 352.643 94.6164 352.643C93.0595 352.643 92.0531 353.791 92.0531 355.537C92.0531 357.283 93.0595 358.431 94.6164 358.431C95.733 358.431 96.5508 357.817 96.771 356.764L98.0762 357.031C97.7303 358.667 96.4092 359.626 94.585 359.626ZM102.62 351.448C104.539 351.448 105.876 352.58 105.876 354.42V359.5H104.555V358.148C104.099 359.06 103.061 359.626 101.913 359.626C100.324 359.626 99.2391 358.651 99.2391 357.283C99.2391 355.757 100.482 354.924 103.013 354.672L104.555 354.499V354.342C104.555 353.257 103.784 352.565 102.62 352.565C101.535 352.565 100.765 353.209 100.654 354.279L99.4121 354.043C99.648 352.47 100.953 351.448 102.62 351.448ZM102.117 358.525C103.658 358.525 104.555 357.503 104.555 355.914V355.537L103.013 355.71C101.409 355.883 100.576 356.433 100.576 357.267C100.576 358.006 101.205 358.525 102.117 358.525ZM108.049 359.5V348.366H109.386V359.5H108.049Z" fill="#f1f5fd"/>
<path d="M299.199 361.16C296.439 361.16 294.399 359.62 294.019 357.28L296.479 356.82C296.739 358.04 297.739 358.8 299.099 358.8C300.579 358.8 301.559 357.8 301.559 356.32C301.559 354.78 300.539 353.82 298.939 353.82C297.819 353.82 296.959 354.3 296.319 355.24L294.359 354.82L295.519 347H303.239V349.34H297.499L296.979 352.68C297.619 352.1 298.639 351.68 299.619 351.68C302.379 351.68 304.279 353.56 304.279 356.32C304.279 359.24 302.279 361.16 299.199 361.16Z" fill="#f1f5fd"/>
<path d="M44 375C47.3137 375 50 377.686 50 381C50 384.314 47.3137 387 44 387L36 387C32.6863 387 30 384.314 30 381C30 377.686 32.6863 375 36 375L44 375Z" fill="#C0C9C9"/>
<path d="M61.148 387.5V376.492H68.0833V377.765H62.5791V381.005H67.0454V382.295H62.5791V386.21H68.2563V387.5H61.148ZM70.008 387.5V379.574H71.3447V381.068C71.8951 380.124 72.8544 379.448 74.0653 379.448C75.7166 379.448 76.8961 380.565 76.8961 382.247V387.5H75.5593V382.499C75.5593 381.43 74.8831 380.659 73.7665 380.659C72.2883 380.659 71.3447 381.933 71.3447 384.024V387.5H70.008ZM82.4344 387.626C79.9654 387.626 78.613 385.864 78.613 383.537C78.613 381.209 79.9654 379.448 82.4187 379.448C83.4724 379.448 84.5103 379.967 85.0136 380.706V376.366H86.3503V387.5H85.0136V386.352C84.6519 387.075 83.5982 387.626 82.4344 387.626ZM82.5603 386.431C84.1172 386.431 85.1394 385.283 85.1394 383.537C85.1394 381.791 84.1172 380.643 82.5603 380.643C81.0034 380.643 79.9811 381.791 79.9811 383.537C79.9811 385.283 81.0034 386.431 82.5603 386.431ZM91.4706 379.448C93.3892 379.448 94.7259 380.58 94.7259 382.42V387.5H93.4049V386.148C92.9488 387.06 91.9109 387.626 90.7629 387.626C89.1745 387.626 88.0894 386.651 88.0894 385.283C88.0894 383.757 89.3318 382.924 91.8637 382.672L93.4049 382.499V382.342C93.4049 381.257 92.6343 380.565 91.4706 380.565C90.3855 380.565 89.6149 381.209 89.5048 382.279L88.2624 382.043C88.4983 380.47 89.8036 379.448 91.4706 379.448ZM90.9673 386.525C92.5085 386.525 93.4049 385.503 93.4049 383.914V383.537L91.8637 383.71C90.2596 383.883 89.4261 384.433 89.4261 385.267C89.4261 386.006 90.0552 386.525 90.9673 386.525ZM96.8993 387.5V379.574H98.2361V381.068C98.7865 380.124 99.7458 379.448 100.957 379.448C102.608 379.448 103.787 380.565 103.787 382.247V387.5H102.451V382.499C102.451 381.43 101.775 380.659 100.658 380.659C99.1797 380.659 98.2361 381.933 98.2361 384.024V387.5H96.8993ZM111.811 379.574H113.132V387.123C113.132 389.12 111.622 390.488 109.436 390.488C107.596 390.488 106.165 389.513 105.929 388.082L107.219 387.862C107.297 388.742 108.225 389.356 109.436 389.356C110.836 389.356 111.811 388.506 111.811 387.264V386.163C111.449 386.839 110.411 387.296 109.279 387.296C106.841 387.296 105.504 385.613 105.504 383.38C105.504 381.131 106.841 379.448 109.247 379.448C110.301 379.448 111.339 379.951 111.811 380.643V379.574ZM109.404 386.1C110.93 386.1 111.921 385.031 111.921 383.38C111.921 381.713 110.93 380.643 109.404 380.643C107.863 380.643 106.873 381.713 106.873 383.38C106.873 385.031 107.863 386.1 109.404 386.1ZM122.469 383.175C122.469 383.364 122.453 383.647 122.438 383.789H116.179C116.273 385.393 117.279 386.446 118.711 386.446C119.921 386.446 120.755 385.88 120.991 384.889L122.249 385.188C121.856 386.729 120.535 387.626 118.711 387.626C116.336 387.626 114.842 385.786 114.842 383.537C114.842 381.288 116.289 379.448 118.679 379.448C121.022 379.448 122.469 381.131 122.469 383.175ZM116.257 382.672H121.054C120.928 381.461 120.079 380.565 118.679 380.565C117.437 380.565 116.525 381.351 116.257 382.672ZM128.829 380.879C128.53 380.753 128.153 380.691 127.807 380.691C126.549 380.691 125.527 381.901 125.527 384.481V387.5H124.19V379.574H125.527V381.178C125.983 380.172 127.021 379.448 127.996 379.448C128.326 379.448 128.641 379.495 128.908 379.59L128.829 380.879ZM137.013 383.175C137.013 383.364 136.997 383.647 136.981 383.789H130.722C130.817 385.393 131.823 386.446 133.254 386.446C134.465 386.446 135.299 385.88 135.535 384.889L136.793 385.188C136.4 386.729 135.079 387.626 133.254 387.626C130.88 387.626 129.386 385.786 129.386 383.537C129.386 381.288 130.832 379.448 133.223 379.448C135.566 379.448 137.013 381.131 137.013 383.175ZM130.801 382.672H135.598C135.472 381.461 134.622 380.565 133.223 380.565C131.98 380.565 131.068 381.351 130.801 382.672ZM142.099 387.626C139.63 387.626 138.278 385.864 138.278 383.537C138.278 381.209 139.63 379.448 142.084 379.448C143.137 379.448 144.175 379.967 144.678 380.706V376.366H146.015V387.5H144.678V386.352C144.317 387.075 143.263 387.626 142.099 387.626ZM142.225 386.431C143.782 386.431 144.804 385.283 144.804 383.537C144.804 381.791 143.782 380.643 142.225 380.643C140.668 380.643 139.646 381.791 139.646 383.537C139.646 385.283 140.668 386.431 142.225 386.431Z" fill="#f1f5fd"/>
<path d="M289.678 389V378C288.718 378.76 287.698 379.24 286.458 379.48V377.06C287.758 376.76 289.098 376 290.118 375H292.198V389H289.678ZM294.096 389L294.076 386.8L299.056 382.6C300.576 381.32 301.236 380.32 301.236 379.26C301.236 378 300.376 377.18 299.056 377.18C297.496 377.18 296.596 378.4 296.756 380.24L294.176 380.06C293.896 377.08 296.096 374.84 299.056 374.84C302.016 374.84 303.976 376.64 303.976 379.26C303.976 381.02 302.956 382.58 300.656 384.4L297.896 386.64H303.956V389H294.096Z" fill="#f1f5fd"/>
<path d="M44 403C47.3137 403 50 405.686 50 409C50 412.314 47.3137 415 44 415L36 415C32.6863 415 30 412.314 30 409C30 405.686 32.6863 403 36 403L44 403Z" fill="#84E1FF"/>
<path d="M64.2776 415.5L60.1415 404.492H61.6041L65.001 413.849L68.4136 404.492H69.8761L65.7401 415.5H64.2776ZM77.3722 407.574V415.5H76.0354V414.006C75.485 414.95 74.5257 415.626 73.3148 415.626C71.6635 415.626 70.484 414.509 70.484 412.827V407.574H71.8208V412.575C71.8208 413.644 72.497 414.415 73.6136 414.415C75.0919 414.415 76.0354 413.141 76.0354 411.049V407.574H77.3722ZM79.5451 415.5V404.366H80.8818V415.5H79.5451ZM83.0467 415.5V407.574H84.3834V409.068C84.9338 408.124 85.8931 407.448 87.1041 407.448C88.7553 407.448 89.9348 408.565 89.9348 410.247V415.5H88.5981V410.499C88.5981 409.43 87.9218 408.659 86.8053 408.659C85.327 408.659 84.3834 409.933 84.3834 412.024V415.5H83.0467ZM99.2789 411.175C99.2789 411.364 99.2632 411.647 99.2475 411.789H92.9884C93.0828 413.393 94.0892 414.446 95.5203 414.446C96.7313 414.446 97.5648 413.88 97.8007 412.889L99.0588 413.188C98.6656 414.729 97.3446 415.626 95.5203 415.626C93.1457 415.626 91.6517 413.786 91.6517 411.537C91.6517 409.288 93.0985 407.448 95.4889 407.448C97.8321 407.448 99.2789 409.131 99.2789 411.175ZM93.067 410.672H97.8636C97.7378 409.461 96.8885 408.565 95.4889 408.565C94.2465 408.565 93.3344 409.351 93.067 410.672ZM105.639 408.879C105.34 408.753 104.963 408.691 104.617 408.691C103.359 408.691 102.337 409.901 102.337 412.481V415.5H101V407.574H102.337V409.178C102.793 408.172 103.831 407.448 104.806 407.448C105.136 407.448 105.45 407.495 105.718 407.59L105.639 408.879ZM109.7 407.448C111.619 407.448 112.956 408.58 112.956 410.42V415.5H111.635V414.148C111.178 415.06 110.141 415.626 108.993 415.626C107.404 415.626 106.319 414.651 106.319 413.283C106.319 411.757 107.561 410.924 110.093 410.672L111.635 410.499V410.342C111.635 409.257 110.864 408.565 109.7 408.565C108.615 408.565 107.844 409.209 107.734 410.279L106.492 410.043C106.728 408.47 108.033 407.448 109.7 407.448ZM109.197 414.525C110.738 414.525 111.635 413.503 111.635 411.914V411.537L110.093 411.71C108.489 411.883 107.656 412.433 107.656 413.267C107.656 414.006 108.285 414.525 109.197 414.525ZM119.045 415.626C117.881 415.626 116.827 415.075 116.466 414.352V415.5H115.129V404.366H116.466V408.706C116.969 407.967 118.007 407.448 119.061 407.448C121.514 407.448 122.866 409.209 122.866 411.537C122.866 413.864 121.514 415.626 119.045 415.626ZM118.919 414.431C120.476 414.431 121.498 413.283 121.498 411.537C121.498 409.791 120.476 408.643 118.919 408.643C117.362 408.643 116.34 409.791 116.34 411.537C116.34 413.283 117.362 414.431 118.919 414.431ZM124.574 415.5V404.366H125.911V415.5H124.574ZM135.247 411.175C135.247 411.364 135.231 411.647 135.215 411.789H128.956C129.051 413.393 130.057 414.446 131.488 414.446C132.699 414.446 133.533 413.88 133.768 412.889L135.027 413.188C134.633 414.729 133.312 415.626 131.488 415.626C129.113 415.626 127.619 413.786 127.619 411.537C127.619 409.288 129.066 407.448 131.457 407.448C133.8 407.448 135.247 409.131 135.247 411.175ZM129.035 410.672H133.831C133.706 409.461 132.856 408.565 131.457 408.565C130.214 408.565 129.302 409.351 129.035 410.672Z" fill="#f1f5fd"/>
<path d="M282.162 417L282.142 414.8L287.122 410.6C288.642 409.32 289.302 408.32 289.302 407.26C289.302 406 288.442 405.18 287.122 405.18C285.562 405.18 284.662 406.4 284.822 408.24L282.242 408.06C281.962 405.08 284.162 402.84 287.122 402.84C290.082 402.84 292.042 404.64 292.042 407.26C292.042 409.02 291.022 410.58 288.722 412.4L285.962 414.64H292.022V417H282.162ZM299.156 407.56C302.016 407.56 304.076 409.56 304.076 412.36C304.076 415.16 301.856 417.16 298.756 417.16C295.596 417.16 293.376 414.52 293.376 410.64C293.376 405.4 296.476 402.84 299.996 402.84C301.496 402.84 302.976 403.32 304.096 404.26L302.856 406.24C302.136 405.62 301.136 405.18 300.056 405.18C297.736 405.18 296.096 406.86 295.936 409.22C296.576 408.18 297.776 407.56 299.156 407.56ZM298.836 414.8C300.336 414.8 301.396 413.72 301.396 412.22C301.416 410.74 300.336 409.66 298.836 409.66C297.316 409.66 296.236 410.74 296.236 412.22C296.236 413.72 297.316 414.8 298.836 414.8Z" fill="#f1f5fd"/>
<path d="M44 431C47.3137 431 50 433.686 50 437C50 440.314 47.3137 443 44 443L36 443C32.6863 443 30 440.314 30 437C30 433.686 32.6863 431 36 431L44 431Z" fill="#25b8ff"/>
<path d="M61.148 443.5V432.492H62.7364L68.2878 441.251V432.492H69.6874V443.5H68.0991L62.5477 434.772V443.5H61.148ZM79.0989 439.175C79.0989 439.364 79.0831 439.647 79.0674 439.789H72.8083C72.9027 441.393 73.9092 442.446 75.3403 442.446C76.5512 442.446 77.3847 441.88 77.6206 440.889L78.8787 441.188C78.4855 442.729 77.1645 443.626 75.3403 443.626C72.9656 443.626 71.4716 441.786 71.4716 439.537C71.4716 437.288 72.9184 435.448 75.3088 435.448C77.6521 435.448 79.0989 437.131 79.0989 439.175ZM72.887 438.672H77.6835C77.5577 437.461 76.7085 436.565 75.3088 436.565C74.0665 436.565 73.1543 437.351 72.887 438.672ZM83.6996 435.448C85.6182 435.448 86.9549 436.58 86.9549 438.42V443.5H85.6339V442.148C85.1778 443.06 84.1399 443.626 82.9919 443.626C81.4035 443.626 80.3184 442.651 80.3184 441.283C80.3184 439.757 81.5608 438.924 84.0927 438.672L85.6339 438.499V438.342C85.6339 437.257 84.8633 436.565 83.6996 436.565C82.6144 436.565 81.8439 437.209 81.7338 438.279L80.4914 438.043C80.7273 436.47 82.0326 435.448 83.6996 435.448ZM83.1963 442.525C84.7375 442.525 85.6339 441.503 85.6339 439.914V439.537L84.0927 439.71C82.4886 439.883 81.6551 440.433 81.6551 441.267C81.6551 442.006 82.2842 442.525 83.1963 442.525ZM93.7676 436.879C93.4688 436.753 93.0914 436.691 92.7454 436.691C91.4873 436.691 90.4651 437.901 90.4651 440.481V443.5H89.1283V435.574H90.4651V437.178C90.9211 436.172 91.9591 435.448 92.9341 435.448C93.2644 435.448 93.5789 435.495 93.8462 435.59L93.7676 436.879ZM103.157 443.437C102.763 443.579 102.339 443.626 101.914 443.626C100.562 443.626 99.571 442.871 99.571 441.125V436.753H98.0927V435.574H99.571V433.168H100.908V435.574H103.031V436.753H100.908V441.173C100.908 442.006 101.379 442.415 102.071 442.415C102.386 442.415 102.748 442.368 103.062 442.21L103.157 443.437ZM104.855 443.5V432.366H106.191V437.131C106.773 435.999 107.733 435.448 108.896 435.448C110.689 435.448 111.869 436.565 111.869 438.279V443.5H110.532V438.53C110.532 437.367 109.808 436.659 108.598 436.659C107.135 436.659 106.191 437.98 106.191 440.103V443.5H104.855ZM118.678 436.879C118.379 436.753 118.002 436.691 117.656 436.691C116.398 436.691 115.375 437.901 115.375 440.481V443.5H114.039V435.574H115.375V437.178C115.831 436.172 116.869 435.448 117.844 435.448C118.175 435.448 118.489 435.495 118.756 435.59L118.678 436.879ZM126.861 439.175C126.861 439.364 126.846 439.647 126.83 439.789H120.571C120.665 441.393 121.672 442.446 123.103 442.446C124.314 442.446 125.147 441.88 125.383 440.889L126.641 441.188C126.248 442.729 124.927 443.626 123.103 443.626C120.728 443.626 119.234 441.786 119.234 439.537C119.234 437.288 120.681 435.448 123.071 435.448C125.415 435.448 126.861 437.131 126.861 439.175ZM120.65 438.672H125.446C125.32 437.461 124.471 436.565 123.071 436.565C121.829 436.565 120.917 437.351 120.65 438.672ZM131.462 435.448C133.381 435.448 134.717 436.58 134.717 438.42V443.5H133.396V442.148C132.94 443.06 131.902 443.626 130.754 443.626C129.166 443.626 128.081 442.651 128.081 441.283C128.081 439.757 129.323 438.924 131.855 438.672L133.396 438.499V438.342C133.396 437.257 132.626 436.565 131.462 436.565C130.377 436.565 129.606 437.209 129.496 438.279L128.254 438.043C128.49 436.47 129.795 435.448 131.462 435.448ZM130.959 442.525C132.5 442.525 133.396 441.503 133.396 439.914V439.537L131.855 439.71C130.251 439.883 129.418 440.433 129.418 441.267C129.418 442.006 130.047 442.525 130.959 442.525ZM141.059 443.437C140.666 443.579 140.242 443.626 139.817 443.626C138.465 443.626 137.474 442.871 137.474 441.125V436.753H135.996V435.574H137.474V433.168H138.811V435.574H140.934V436.753H138.811V441.173C138.811 442.006 139.282 442.415 139.974 442.415C140.289 442.415 140.651 442.368 140.965 442.21L141.059 443.437ZM149.591 439.175C149.591 439.364 149.575 439.647 149.559 439.789H143.3C143.395 441.393 144.401 442.446 145.832 442.446C147.043 442.446 147.877 441.88 148.113 440.889L149.371 441.188C148.978 442.729 147.657 443.626 145.832 443.626C143.458 443.626 141.964 441.786 141.964 439.537C141.964 437.288 143.41 435.448 145.801 435.448C148.144 435.448 149.591 437.131 149.591 439.175ZM143.379 438.672H148.175C148.05 437.461 147.2 436.565 145.801 436.565C144.558 436.565 143.646 437.351 143.379 438.672ZM151.312 443.5V435.574H152.649V437.068C153.199 436.124 154.158 435.448 155.369 435.448C157.02 435.448 158.2 436.565 158.2 438.247V443.5H156.863V438.499C156.863 437.43 156.187 436.659 155.07 436.659C153.592 436.659 152.649 437.933 152.649 440.024V443.5H151.312ZM167.544 439.175C167.544 439.364 167.528 439.647 167.513 439.789H161.254C161.348 441.393 162.354 442.446 163.785 442.446C164.996 442.446 165.83 441.88 166.066 440.889L167.324 441.188C166.931 442.729 165.61 443.626 163.785 443.626C161.411 443.626 159.917 441.786 159.917 439.537C159.917 437.288 161.364 435.448 163.754 435.448C166.097 435.448 167.544 437.131 167.544 439.175ZM161.332 438.672H166.129C166.003 437.461 165.154 436.565 163.754 436.565C162.512 436.565 161.599 437.351 161.332 438.672ZM172.63 443.626C170.161 443.626 168.809 441.864 168.809 439.537C168.809 437.209 170.161 435.448 172.615 435.448C173.668 435.448 174.706 435.967 175.21 436.706V432.366H176.546V443.5H175.21V442.352C174.848 443.075 173.794 443.626 172.63 443.626ZM172.756 442.431C174.313 442.431 175.335 441.283 175.335 439.537C175.335 437.791 174.313 436.643 172.756 436.643C171.199 436.643 170.177 437.791 170.177 439.537C170.177 441.283 171.199 442.431 172.756 442.431Z" fill="#f1f5fd"/>
<path d="M280.586 445.16C277.686 445.16 275.426 443.54 275.426 440.9C275.426 439.32 276.426 437.96 277.926 437.46C276.786 436.92 276.026 435.8 276.026 434.6C276.026 432.46 277.846 430.84 280.586 430.84C283.286 430.84 285.106 432.46 285.106 434.6C285.106 435.82 284.346 436.94 283.186 437.46C284.706 437.94 285.706 439.3 285.706 440.9C285.706 443.54 283.446 445.16 280.586 445.16ZM280.586 436.46C281.806 436.46 282.606 435.76 282.606 434.7C282.626 433.62 281.806 432.94 280.586 432.94C279.326 432.94 278.506 433.62 278.526 434.7C278.526 435.76 279.326 436.46 280.586 436.46ZM280.586 442.94C282.086 442.94 283.046 442.12 283.046 440.84C283.046 439.58 282.086 438.76 280.586 438.76C279.066 438.76 278.086 439.58 278.086 440.84C278.086 442.12 279.066 442.94 280.586 442.94ZM289.678 445V434C288.718 434.76 287.698 435.24 286.458 435.48V433.06C287.758 432.76 289.098 432 290.118 431H292.198V445H289.678ZM294.096 445L294.076 442.8L299.056 438.6C300.576 437.32 301.236 436.32 301.236 435.26C301.236 434 300.376 433.18 299.056 433.18C297.496 433.18 296.596 434.4 296.756 436.24L294.176 436.06C293.896 433.08 296.096 430.84 299.056 430.84C302.016 430.84 303.976 432.64 303.976 435.26C303.976 437.02 302.956 438.58 300.656 440.4L297.896 442.64H303.956V445H294.096Z" fill="#f1f5fd"/>
<defs>
<filter id="filter0_b_994_10457" x="-61.1579" y="-61.1579" width="457.316" height="602.316" filterUnits="userSpaceOnUse" color-interpolation-filters="sRGB">
<feFlood flood-opacity="0" result="BackgroundImageFix"/>
<feGaussianBlur in="BackgroundImageFix" stdDeviation="30.5789"/>
<feComposite in2="SourceAlpha" operator="in" result="effect1_backgroundBlur_994_10457"/>
<feBlend mode="normal" in="SourceGraphic" in2="effect1_backgroundBlur_994_10457" result="shape"/>
</filter>
</defs>
</svg>
