<svg version="1.2" xmlns="http://www.w3.org/2000/svg" viewBox="0 0 162 44" width="162" height="44">
	<defs>
		<linearGradient id="P" gradientUnits="userSpaceOnUse" />
		<linearGradient id="g1" x2="1" href="#P"
			gradientTransform="matrix(40.984,12.148,-11.899,40.144,1.106,16.991)">
			<stop stop-color="#0c336a" />
			<stop offset="1" stop-color="#25b8ff" />
		</linearGradient>
		<linearGradient id="g2" x2="1" href="#P"
			gradientTransform="matrix(41.526,12.307,-12.055,40.675,.836,16.91)">
			<stop stop-color="#0c336a" />
			<stop offset="1" stop-color="#25b8ff" />
		</linearGradient>
		<linearGradient id="g3" x2="1" href="#P"
			gradientTransform="matrix(2.246,.666,-0.789,2.659,20.329,17.318)">
			<stop stop-color="#0c336a" />
			<stop offset="1" stop-color="#25b8ff" />
		</linearGradient>
		<linearGradient id="g4" x2="1" href="#P"
			gradientTransform="matrix(2.794,.828,-0.98,3.309,20.058,17.236)">
			<stop stop-color="#0c336a" />
			<stop offset="1" stop-color="#25b8ff" />
		</linearGradient>
		<linearGradient id="g5" x2="1" href="#P"
			gradientTransform="matrix(2.436,.722,-0.818,2.761,28.99,16.466)">
			<stop stop-color="#0c336a" />
			<stop offset="1" stop-color="#25b8ff" />
		</linearGradient>
		<linearGradient id="g6" x2="1" href="#P"
			gradientTransform="matrix(2.98,.883,-1.001,3.377,28.705,16.429)">
			<stop stop-color="#0c336a" />
			<stop offset="1" stop-color="#25b8ff" />
		</linearGradient>
		<linearGradient id="g7" x2="1" href="#P"
			gradientTransform="matrix(1.69,.501,-0.825,2.782,21.045,22.044)">
			<stop stop-color="#0c336a" />
			<stop offset="1" stop-color="#25b8ff" />
		</linearGradient>
		<linearGradient id="g8" x2="1" href="#P"
			gradientTransform="matrix(2.253,.668,-1.099,3.708,20.774,21.962)">
			<stop stop-color="#0c336a" />
			<stop offset="1" stop-color="#25b8ff" />
		</linearGradient>
		<linearGradient id="g9" x2="1" href="#P"
			gradientTransform="matrix(2.823,.837,-0.526,1.773,16.451,20.635)">
			<stop stop-color="#0c336a" />
			<stop offset="1" stop-color="#25b8ff" />
		</linearGradient>
		<linearGradient id="g10" x2="1" href="#P"
			gradientTransform="matrix(3.367,.998,-0.627,2.115,16.18,20.553)">
			<stop stop-color="#0c336a" />
			<stop offset="1" stop-color="#25b8ff" />
		</linearGradient>
		<linearGradient id="g11" x2="1" href="#P"
			gradientTransform="matrix(2.815,.834,-0.646,2.18,32.725,31.298)">
			<stop stop-color="#0c336a" />
			<stop offset="1" stop-color="#25b8ff" />
		</linearGradient>
		<linearGradient id="g12" x2="1" href="#P"
			gradientTransform="matrix(3.369,.998,-0.773,2.609,32.443,31.212)">
			<stop stop-color="#0c336a" />
			<stop offset="1" stop-color="#25b8ff" />
		</linearGradient>
		<linearGradient id="g13" x2="1" href="#P"
			gradientTransform="matrix(1.68,.498,-0.832,2.805,15.429,36.252)">
			<stop stop-color="#0c336a" />
			<stop offset="1" stop-color="#25b8ff" />
		</linearGradient>
		<linearGradient id="g14" x2="1" href="#P"
			gradientTransform="matrix(2.223,.659,-1.1,3.712,15.159,36.169)">
			<stop stop-color="#0c336a" />
			<stop offset="1" stop-color="#25b8ff" />
		</linearGradient>
		<linearGradient id="g15" x2="1" href="#P"
			gradientTransform="matrix(2.217,.657,-0.823,2.777,17.978,7.394)">
			<stop stop-color="#0c336a" />
			<stop offset="1" stop-color="#25b8ff" />
		</linearGradient>
		<linearGradient id="g16" x2="1" href="#P"
			gradientTransform="matrix(2.76,.818,-1.025,3.457,17.707,7.308)">
			<stop stop-color="#0c336a" />
			<stop offset="1" stop-color="#25b8ff" />
		</linearGradient>
		<linearGradient id="g17" x2="1" href="#P"
			gradientTransform="matrix(2.508,.743,-0.734,2.479,33.35,13.908)">
			<stop stop-color="#0c336a" />
			<stop offset="1" stop-color="#25b8ff" />
		</linearGradient>
		<linearGradient id="g18" x2="1" href="#P"
			gradientTransform="matrix(3.051,.904,-0.894,3.016,33.078,13.826)">
			<stop stop-color="#0c336a" />
			<stop offset="1" stop-color="#25b8ff" />
		</linearGradient>
		<linearGradient id="g19" x2="1" href="#P"
			gradientTransform="matrix(2.767,.82,-0.651,2.196,25.173,24.524)">
			<stop stop-color="#0c336a" />
			<stop offset="1" stop-color="#25b8ff" />
		</linearGradient>
		<linearGradient id="g20" x2="1" href="#P"
			gradientTransform="matrix(3.311,.981,-0.779,2.628,24.903,24.436)">
			<stop stop-color="#0c336a" />
			<stop offset="1" stop-color="#25b8ff" />
		</linearGradient>
		<linearGradient id="g21" x2="1" href="#P"
			gradientTransform="matrix(2.819,.836,-0.566,1.909,6.272,20.189)">
			<stop stop-color="#0c336a" />
			<stop offset="1" stop-color="#25b8ff" />
		</linearGradient>
		<linearGradient id="g22" x2="1" href="#P"
			gradientTransform="matrix(3.362,.997,-0.675,2.277,6.001,20.107)">
			<stop stop-color="#0c336a" />
			<stop offset="1" stop-color="#25b8ff" />
		</linearGradient>
		<linearGradient id="g23" x2="1" href="#P"
			gradientTransform="matrix(1.679,.498,-0.822,2.772,19.186,26.788)">
			<stop stop-color="#0c336a" />
			<stop offset="1" stop-color="#25b8ff" />
		</linearGradient>
		<linearGradient id="g24" x2="1" href="#P"
			gradientTransform="matrix(2.223,.659,-1.088,3.67,18.915,26.706)">
			<stop stop-color="#0c336a" />
			<stop offset="1" stop-color="#25b8ff" />
		</linearGradient>
		<linearGradient id="g25" x2="1" href="#P"
			gradientTransform="matrix(2.762,.819,-0.639,2.154,28.994,27.9)">
			<stop stop-color="#0c336a" />
			<stop offset="1" stop-color="#25b8ff" />
		</linearGradient>
		<linearGradient id="g26" x2="1" href="#P"
			gradientTransform="matrix(3.306,.98,-0.764,2.578,28.726,27.809)">
			<stop stop-color="#0c336a" />
			<stop offset="1" stop-color="#25b8ff" />
		</linearGradient>
		<linearGradient id="g27" x2="1" href="#P"
			gradientTransform="matrix(1.683,.499,-0.867,2.923,17.297,31.515)">
			<stop stop-color="#0c336a" />
			<stop offset="1" stop-color="#25b8ff" />
		</linearGradient>
		<linearGradient id="g28" x2="1" href="#P"
			gradientTransform="matrix(2.226,.66,-1.146,3.867,17.026,31.433)">
			<stop stop-color="#0c336a" />
			<stop offset="1" stop-color="#25b8ff" />
		</linearGradient>
		<linearGradient id="g29" x2="1" href="#P"
			gradientTransform="matrix(2.473,.733,-0.728,2.457,24.513,18.916)">
			<stop stop-color="#0c336a" />
			<stop offset="1" stop-color="#25b8ff" />
		</linearGradient>
		<linearGradient id="g30" x2="1" href="#P"
			gradientTransform="matrix(3.016,.894,-0.888,2.997,24.241,18.834)">
			<stop stop-color="#0c336a" />
			<stop offset="1" stop-color="#25b8ff" />
		</linearGradient>
		<linearGradient id="g31" x2="1" href="#P"
			gradientTransform="matrix(2.824,.837,-0.561,1.893,11.36,20.413)">
			<stop stop-color="#0c336a" />
			<stop offset="1" stop-color="#25b8ff" />
		</linearGradient>
		<linearGradient id="g32" x2="1" href="#P"
			gradientTransform="matrix(3.367,.998,-0.669,2.257,11.089,20.331)">
			<stop stop-color="#0c336a" />
			<stop offset="1" stop-color="#25b8ff" />
		</linearGradient>
		<linearGradient id="g33" x2="1" href="#P"
			gradientTransform="matrix(2.204,.653,-0.813,2.744,19.15,12.412)">
			<stop stop-color="#0c336a" />
			<stop offset="1" stop-color="#25b8ff" />
		</linearGradient>
		<linearGradient id="g34" x2="1" href="#P"
			gradientTransform="matrix(2.748,.814,-1.013,3.421,18.877,12.336)">
			<stop stop-color="#0c336a" />
			<stop offset="1" stop-color="#25b8ff" />
		</linearGradient>
		<linearGradient id="g35" x2="1" href="#P"
			gradientTransform="matrix(1.624,.481,-0.475,1.605,26.986,10.288)">
			<stop stop-color="#0c336a" />
			<stop offset="1" stop-color="#25b8ff" />
		</linearGradient>
		<linearGradient id="g36" x2="1" href="#P"
			gradientTransform="matrix(2.168,.643,-0.635,2.142,26.715,10.206)">
			<stop stop-color="#0c336a" />
			<stop offset="1" stop-color="#25b8ff" />
		</linearGradient>
		<linearGradient id="g37" x2="1" href="#P"
			gradientTransform="matrix(1.575,.467,-0.434,1.463,7.541,5.993)">
			<stop stop-color="#0c336a" />
			<stop offset="1" stop-color="#25b8ff" />
		</linearGradient>
		<linearGradient id="g38" x2="1" href="#P"
			gradientTransform="matrix(2.119,.628,-0.583,1.969,7.269,5.912)">
			<stop stop-color="#0c336a" />
			<stop offset="1" stop-color="#25b8ff" />
		</linearGradient>
		<linearGradient id="g39" x2="1" href="#P"
			gradientTransform="matrix(1.588,.471,-0.468,1.579,9.326,9.854)">
			<stop stop-color="#0c336a" />
			<stop offset="1" stop-color="#25b8ff" />
		</linearGradient>
		<linearGradient id="g40" x2="1" href="#P"
			gradientTransform="matrix(2.131,.632,-0.629,2.119,9.055,9.773)">
			<stop stop-color="#0c336a" />
			<stop offset="1" stop-color="#25b8ff" />
		</linearGradient>
		<linearGradient id="g41" x2="1" href="#P"
			gradientTransform="matrix(1.588,.471,-0.468,1.579,4.989,11.267)">
			<stop stop-color="#0c336a" />
			<stop offset="1" stop-color="#25b8ff" />
		</linearGradient>
		<linearGradient id="g42" x2="1" href="#P"
			gradientTransform="matrix(2.131,.632,-0.629,2.119,4.717,11.186)">
			<stop stop-color="#0c336a" />
			<stop offset="1" stop-color="#25b8ff" />
		</linearGradient>
	</defs>
	<style>tspan{white-space:pre}.a{fill:url(#g1);stroke:url(#g2);stroke-miterlimit:10;stroke-width:.6}.b{fill:url(#g3);stroke:url(#g4);stroke-miterlimit:10;stroke-width:.6}.c{fill:url(#g5);stroke:url(#g6);stroke-miterlimit:10;stroke-width:.6}.d{fill:url(#g7);stroke:url(#g8);stroke-miterlimit:10;stroke-width:.6}.e{fill:url(#g9);stroke:url(#g10);stroke-miterlimit:10;stroke-width:.6}.f{fill:url(#g11);stroke:url(#g12);stroke-miterlimit:10;stroke-width:.6}.g{fill:url(#g13);stroke:url(#g14);stroke-miterlimit:10;stroke-width:.6}.h{fill:url(#g15);stroke:url(#g16);stroke-miterlimit:10;stroke-width:.6}.i{fill:url(#g17);stroke:url(#g18);stroke-miterlimit:10;stroke-width:.6}.j{fill:url(#g19);stroke:url(#g20);stroke-miterlimit:10;stroke-width:.6}.k{fill:url(#g21);stroke:url(#g22);stroke-miterlimit:10;stroke-width:.6}.l{fill:url(#g23);stroke:url(#g24);stroke-miterlimit:10;stroke-width:.6}.m{fill:url(#g25);stroke:url(#g26);stroke-miterlimit:10;stroke-width:.6}.n{fill:url(#g27);stroke:url(#g28);stroke-miterlimit:10;stroke-width:.6}.o{fill:url(#g29);stroke:url(#g30);stroke-miterlimit:10;stroke-width:.6}.p{fill:url(#g31);stroke:url(#g32);stroke-miterlimit:10;stroke-width:.6}.q{fill:url(#g33);stroke:url(#g34);stroke-miterlimit:10;stroke-width:.6}.r{fill:url(#g35);stroke:url(#g36);stroke-miterlimit:10;stroke-width:.6}.s{fill:url(#g37);stroke:url(#g38);stroke-miterlimit:10;stroke-width:.6}.t{fill:url(#g39);stroke:url(#g40);stroke-miterlimit:10;stroke-width:.6}.u{fill:url(#g41);stroke:url(#g42);stroke-miterlimit:10;stroke-width:.6}.v{font-size:
		24px;fill: #1f9bde;font-weight: 400;font-family: "Poppins-Regular", "Poppins"}</style>
	<path class="a"
		d="m0.5 19c0.2-0.3 0.4-0.6 0.7-0.9 0.6-0.6 1.3-1 2.1-1.1 1.3-0.3 2.7-0.6 4-0.9 4.1-0.9 6.7-3.9 6.9-8.1 0.1-1.5 0.1-2.9 0.3-4.4 0.1-1.6 1.2-2.8 2.8-3.2 1.5-0.4 3.1 0.2 4 1.5 0.8 1.2 1.5 2.5 2.2 3.7 0.5 1 1.2 1.8 2 2.6 0.2 0.2 0.4 0.5 0.3 0.8 0 0.2-0.3 0.5-0.5 0.7-0.3 0.2-0.7 0-0.9-0.2-0.9-0.8-1.5-1.6-2.1-2.6-0.8-1.4-1.5-2.6-2.3-3.9-0.6-1.1-1.7-1.4-2.8-0.9-0.8 0.3-1.1 1-1.1 1.8q-0.1 2.5-0.3 5.1c-0.3 3.9-3.3 7.5-7.1 8.5-1.7 0.4-3.3 0.7-5 1.1-1.2 0.3-1.8 1.1-1.7 2.3 0.1 0.9 0.6 1.4 1.4 1.7q2.2 0.9 4.5 1.8c3.8 1.5 6.3 5.6 6 9.7-0.1 1.6-0.3 3.3-0.5 4.9-0.1 1 0.2 1.7 1.1 2.2 0.8 0.4 1.5 0.4 2.2-0.2 0.2-0.2 0.4-0.4 0.5-0.6 1-1.2 2-2.5 3-3.6 2.6-3 6.8-4.2 10.6-2.8 1.6 0.6 3.1 1.3 4.7 2 0.4 0.2 0.8 0.3 1.2 0.4 1.5 0.1 2.7-1.7 1.9-3-0.8-1.3-1.6-2.6-2.5-3.9-1.5-2.3-2-4.7-1.6-7.4 0.3-1.9 1.2-3.5 2.4-4.9q1.5-1.6 3-3.3c1-1.1 0.7-2.6-0.5-3.3-0.5-0.3-1.1-0.3-1.7-0.1-1.6 0.4-3.2 0.9-4.8 1.2-0.7 0.2-1.5 0.2-2.2 0.2-0.5 0-0.8-0.3-0.8-0.8 0-0.4 0.3-0.8 0.8-0.8 2.3-0.1 4.4-0.9 6.5-1.4 0.8-0.2 1.6-0.3 2.4 0 2.4 0.7 3.4 3.8 1.9 5.7-1 1.3-2.1 2.4-3.2 3.6-1.4 1.5-2.2 3.3-2.2 5.4-0.1 1.7 0.4 3.3 1.4 4.8 0.8 1.2 1.6 2.5 2.4 3.7 1.3 2.1 0.6 4.5-1.6 5.5-1.1 0.5-2.2 0.4-3.3-0.1-1.4-0.6-2.8-1.3-4.2-1.9-3.1-1.3-6.9-0.5-9.1 2.1-1.1 1.2-2.1 2.5-3.1 3.8-0.8 1-1.8 1.6-3.1 1.5-2.3-0.1-3.9-2-3.6-4.4 0.2-1.6 0.4-3.3 0.5-4.9 0.2-3.3-1.9-6.6-4.9-7.8-1.5-0.6-2.9-1.2-4.4-1.7-1.8-0.7-2.7-2.1-2.6-4.1 0-0.1 0-0.1 0-0.2-0.2-0.3-0.1-0.6 0-0.9z" />
	<path class="b"
		d="m22.4 18.5c-0.2 0.4-0.4 0.6-0.8 0.7-0.4 0-0.7-0.1-0.8-0.5-0.2-0.5-0.3-1.1-0.4-1.6-0.1-0.4 0.2-0.6 0.5-0.8 0.3-0.1 0.7-0.1 0.9 0.2 0.5 0.6 0.6 1.3 0.6 2z" />
	<path class="c"
		d="m29.3 18c-0.2-0.2-0.4-0.4-0.5-0.7 0-0.2 0.1-0.6 0.2-0.8 0.4-0.3 0.9-0.6 1.4-0.8 0.4-0.2 0.7 0 0.9 0.3 0.2 0.3 0.2 0.8-0.1 1-0.5 0.4-1.1 0.6-1.6 0.9 0 0.1-0.1 0-0.3 0.1q0-0.2 0 0z" />
	<path class="d"
		d="m22.8 22.2c-0.1 0.3-0.3 0.6-0.4 1-0.2 0.5-0.6 0.7-1.1 0.5-0.4-0.2-0.7-0.6-0.5-1.1 0.1-0.4 0.3-0.8 0.5-1.2 0.2-0.5 0.7-0.7 1.1-0.5 0.4 0.2 0.6 0.6 0.4 1.2 0.1 0 0 0.1 0 0.1z" />
	<path class="e"
		d="m17.1 21.9c-0.5-0.2-0.8-0.5-0.8-0.8 0-0.4 0.3-0.8 0.7-0.8 0.5 0 1.1 0 1.6 0.1 0.4 0.1 0.7 0.4 0.7 0.8 0 0.4-0.3 0.7-0.8 0.8-0.4-0.1-1-0.1-1.4-0.1z" />
	<path class="f"
		d="m32.8 31.1c0.2-0.6 0.8-0.8 1.3-0.5 0.4 0.3 0.9 0.7 1.2 1.1 0.3 0.3 0.2 0.7 0 1.1-0.3 0.3-0.7 0.4-1 0.1-0.4-0.3-0.8-0.6-1.1-1-0.3-0.3-0.3-0.6-0.4-0.8z" />
	<path class="g"
		d="m17.2 36.4c-0.1 0.3-0.2 0.6-0.4 1-0.2 0.5-0.7 0.7-1.1 0.5-0.4-0.2-0.6-0.6-0.5-1.1 0.1-0.3 0.3-0.7 0.4-1 0.2-0.6 0.7-0.9 1.2-0.7 0.5 0.2 0.6 0.6 0.4 1.3z" />
	<path class="h"
		d="m19.2 6.3c0.2 0.2 0.4 0.4 0.5 0.6 0.1 0.4 0.3 0.9 0.3 1.4 0.1 0.5-0.2 0.9-0.7 1-0.4 0.1-0.8-0.2-1-0.6-0.1-0.5-0.3-1-0.3-1.5 0.1-0.6 0.6-1 1.2-0.9z" />
	<path class="i"
		d="m35.4 13.1c0.7 0.2 0.9 1 0.4 1.4-0.5 0.4-1 0.6-1.6 0.9-0.3 0.1-0.7 0-0.9-0.3-0.2-0.3-0.3-0.7 0-0.9 0.5-0.4 1.1-0.7 1.7-1 0.2-0.1 0.3-0.1 0.4-0.1z" />
	<path class="j"
		d="m26.4 23.7c0.5 0.4 1 0.9 1.4 1.4 0.2 0.3 0.1 0.6-0.1 0.9-0.2 0.3-0.6 0.4-0.9 0.2-0.5-0.4-1-0.8-1.5-1.3-0.2-0.3-0.1-0.6 0.1-0.9 0.2-0.3 0.6-0.4 1-0.3z" />
	<path class="k"
		d="m8.4 19.8c0.5 0.2 0.8 0.5 0.8 0.9 0 0.4-0.3 0.7-0.7 0.8-0.5 0-1.1 0-1.7-0.1-0.4 0-0.6-0.4-0.6-0.8 0-0.4 0.3-0.8 0.7-0.8 0.5-0.1 1.1 0 1.5 0z" />
	<path class="l"
		d="m19.1 27.1c0.1-0.2 0.2-0.6 0.4-0.9 0.2-0.5 0.7-0.7 1.1-0.6 0.4 0.2 0.6 0.6 0.5 1.1-0.1 0.3-0.3 0.6-0.4 1-0.2 0.6-0.7 0.9-1.1 0.7-0.6-0.1-0.7-0.6-0.5-1.3z" />
	<path class="m"
		d="m30.2 27c0.5 0.5 1 0.9 1.4 1.4 0.2 0.3 0.1 0.7-0.2 0.9-0.3 0.2-0.6 0.3-0.9 0.1-0.5-0.3-0.9-0.7-1.3-1.1-0.3-0.3-0.2-0.6 0-1 0.2-0.2 0.5-0.3 1-0.3z" />
	<path class="n"
		d="m17.1 32c0.2-0.4 0.3-0.8 0.5-1.2 0.2-0.4 0.6-0.6 1-0.4 0.4 0.1 0.6 0.5 0.5 1q-0.3 0.8-0.6 1.5c-0.2 0.4-0.7 0.5-1 0.3-0.4-0.3-0.5-0.7-0.4-1.2z" />
	<path class="o"
		d="m27.1 19.2c-0.1 0.5-1.7 1.4-2.2 1.2-0.6-0.2-0.8-1-0.4-1.4q0.8-0.6 1.5-0.9c0.7-0.1 1.3 0.5 1.1 1.1z" />
	<path class="p"
		d="m12 21.6c-0.5-0.2-0.8-0.5-0.8-0.9 0-0.4 0.3-0.7 0.7-0.8 0.6 0 1.1 0 1.7 0.1 0.4 0.1 0.6 0.4 0.6 0.8 0 0.4-0.3 0.7-0.7 0.7-0.5 0.2-1 0.1-1.5 0.1z" />
	<path class="q"
		d="m20.1 14.2c-0.2-0.2-0.4-0.4-0.5-0.6-0.2-0.4-0.2-0.9-0.3-1.3-0.1-0.5 0.2-0.9 0.6-1 0.4-0.1 0.8 0.1 1 0.6 0.1 0.4 0.2 0.9 0.3 1.3 0.1 0.6-0.4 1.1-1.1 1z" />
	<path class="r"
		d="m28.6 10.8c-0.1 0.4-0.6 0.7-1 0.6-0.4-0.1-0.7-0.6-0.6-1.1 0.1-0.4 0.6-0.7 1-0.5 0.5 0.1 0.7 0.5 0.6 1z" />
	<path class="s"
		d="m9.1 6.5c-0.1 0.4-0.6 0.6-1 0.5-0.4-0.1-0.7-0.6-0.6-1 0.1-0.4 0.6-0.7 1-0.5 0.5 0.1 0.8 0.5 0.6 1z" />
	<path class="t"
		d="m10.4 9.3c0.4 0.1 0.7 0.6 0.5 1-0.1 0.4-0.6 0.7-1 0.5-0.4-0.1-0.7-0.6-0.5-1 0.1-0.4 0.5-0.6 1-0.5z" />
	<path class="u"
		d="m5.5 12.3c-0.4-0.1-0.7-0.6-0.5-1 0.1-0.4 0.6-0.7 1-0.5 0.4 0.1 0.7 0.6 0.5 1-0.1 0.4-0.5 0.6-1 0.5z" />
	<text style="transform:matrix(1,0,0,1,49,30)">
		<tspan x="0" y="0" class="v">B
		</tspan>
	</text>
	<text style="transform:matrix(1,0,0,1,64,30)">
		<tspan x="0" y="0" class="v">l
		</tspan>
	</text>
	<text style="transform:matrix(1,0,0,1,70,30)">
		<tspan x="0" y="0" class="v">u
		</tspan>
	</text>
	<text style="transform:matrix(1,0,0,1,82,30)">
		<tspan x="0" y="0" class="v">e
		</tspan>
	</text>
</svg>