<?xml version="1.0" encoding="utf-8"?>
<!-- Generator: Adobe Illustrator 28.2.0, SVG Export Plug-In . SVG Version: 6.00 Build 0)  -->
<svg version="1.1" id="Layer_1" xmlns="http://www.w3.org/2000/svg" xmlns:xlink="http://www.w3.org/1999/xlink" x="0px" y="0px"
	 viewBox="0 0 162 44" style="enable-background:new 0 0 162 44;" xml:space="preserve">
<style type="text/css">
	
		.st0{fill:url(#SVGID_1_);stroke:url(#SVGID_00000157306910535037220890000017307366743278985909_);stroke-width:0.5669;stroke-miterlimit:10;}
	
		.st1{fill:url(#SVGID_00000044893587505815718580000011897236900860526744_);stroke:url(#SVGID_00000066498341865034183520000011461316177687887000_);stroke-width:0.5669;stroke-miterlimit:10;}
	
		.st2{fill:url(#SVGID_00000063631913780137165320000008064803690198321581_);stroke:url(#SVGID_00000044874003498974221860000009388113158562740158_);stroke-width:0.5669;stroke-miterlimit:10;}
	
		.st3{fill:url(#SVGID_00000183967885756981956390000015336860969086212226_);stroke:url(#SVGID_00000100349777936589598190000012177453295410867345_);stroke-width:0.5669;stroke-miterlimit:10;}
	
		.st4{fill:url(#SVGID_00000026123357390538275680000014028581612368639886_);stroke:url(#SVGID_00000108310979518461898750000015824012879552117388_);stroke-width:0.5669;stroke-miterlimit:10;}
	
		.st5{fill:url(#SVGID_00000173155191865732718130000009766436340423185833_);stroke:url(#SVGID_00000092429005169865973110000010143118455124958383_);stroke-width:0.5669;stroke-miterlimit:10;}
	
		.st6{fill:url(#SVGID_00000062189567746421892390000000873537108601361576_);stroke:url(#SVGID_00000113316545650307263070000015377178743670872205_);stroke-width:0.5669;stroke-miterlimit:10;}
	
		.st7{fill:url(#SVGID_00000041259257504929128540000009666814527585190555_);stroke:url(#SVGID_00000092422975575411288210000013524553054507810716_);stroke-width:0.5669;stroke-miterlimit:10;}
	
		.st8{fill:url(#SVGID_00000054961926386141038600000011597612121494716090_);stroke:url(#SVGID_00000132769356505695540400000005402389185324007570_);stroke-width:0.5669;stroke-miterlimit:10;}
	
		.st9{fill:url(#SVGID_00000116219040358075965480000007899422253480840606_);stroke:url(#SVGID_00000116203124213607250650000005119759669256913294_);stroke-width:0.5669;stroke-miterlimit:10;}
	
		.st10{fill:url(#SVGID_00000036959437432953134180000015619310927759135397_);stroke:url(#SVGID_00000078016854790971373920000004138380991954510499_);stroke-width:0.5669;stroke-miterlimit:10;}
	
		.st11{fill:url(#SVGID_00000064317001469371344450000012370124321967241648_);stroke:url(#SVGID_00000036252807059851358550000003191078721804154760_);stroke-width:0.5669;stroke-miterlimit:10;}
	
		.st12{fill:url(#SVGID_00000049186307897152726050000017544719438538912945_);stroke:url(#SVGID_00000106141934191890028700000004044417715122100643_);stroke-width:0.5669;stroke-miterlimit:10;}
	
		.st13{fill:url(#SVGID_00000137830531769505779400000013332497986662502841_);stroke:url(#SVGID_00000090274757050776449770000006377672763043363998_);stroke-width:0.5669;stroke-miterlimit:10;}
	
		.st14{fill:url(#SVGID_00000090285283062711909280000011207970259263155591_);stroke:url(#SVGID_00000046304612649461780990000017059320201641606060_);stroke-width:0.5669;stroke-miterlimit:10;}
	
		.st15{fill:url(#SVGID_00000111911701967280396080000010124672930447559065_);stroke:url(#SVGID_00000178910829833474515430000014327224204553626781_);stroke-width:0.5669;stroke-miterlimit:10;}
	
		.st16{fill:url(#SVGID_00000000936528680710104190000012192946870256588685_);stroke:url(#SVGID_00000159469570814696598490000013297644873114466212_);stroke-width:0.5669;stroke-miterlimit:10;}
	
		.st17{fill:url(#SVGID_00000018213472484171343250000011306616939430936195_);stroke:url(#SVGID_00000156576846934426498380000014525295696076797095_);stroke-width:0.5669;stroke-miterlimit:10;}
	
		.st18{fill:url(#SVGID_00000152239623312108248320000003372543966223151003_);stroke:url(#SVGID_00000024708324666260403580000004385965984871057574_);stroke-width:0.5669;stroke-miterlimit:10;}
	
		.st19{fill:url(#SVGID_00000083788812855176938470000011727520135252663453_);stroke:url(#SVGID_00000067226130072604205220000009049641935481775539_);stroke-width:0.5669;stroke-miterlimit:10;}
	
		.st20{fill:url(#SVGID_00000107571477841342346530000004467935973782691257_);stroke:url(#SVGID_00000090284973852209731220000012283230804146323641_);stroke-width:0.5669;stroke-miterlimit:10;}
	.st21{fill:#181B26;}
</style>
<g id="hfjnqK_00000070097814659801476350000008527428546129435031_">
	<g>
		
			<linearGradient id="SVGID_1_" gradientUnits="userSpaceOnUse" x1="0.5605" y1="23.2399" x2="43.3053" y2="23.2399" gradientTransform="matrix(0.9588 0.2842 -0.2842 0.9588 7.1737 -5.4509)">
			<stop  offset="0" style="stop-color:#0C336A"/>
			<stop  offset="1" style="stop-color:#25B8FF"/>
		</linearGradient>
		
			<linearGradient id="SVGID_00000005241802209453196470000007961894420119991425_" gradientUnits="userSpaceOnUse" x1="0.8356" y1="16.9098" x2="42.362" y2="29.2169">
			<stop  offset="0" style="stop-color:#0C336A"/>
			<stop  offset="1" style="stop-color:#25B8FF"/>
		</linearGradient>
		
			<path style="fill:url(#SVGID_1_);stroke:url(#SVGID_00000005241802209453196470000007961894420119991425_);stroke-width:0.5669;stroke-miterlimit:10;" d="
			M0.5,19c0.2-0.3,0.4-0.6,0.7-0.9c0.6-0.6,1.3-1,2.1-1.1c1.3-0.3,2.7-0.6,4-0.9c4.1-0.9,6.7-3.9,6.9-8.1c0.1-1.5,0.1-2.9,0.3-4.4
			c0.1-1.6,1.2-2.8,2.8-3.2c1.5-0.4,3.1,0.2,4,1.5c0.8,1.2,1.5,2.5,2.2,3.7c0.5,1,1.2,1.8,2,2.6c0.2,0.2,0.4,0.5,0.3,0.8
			c0,0.2-0.3,0.5-0.5,0.7c-0.3,0.2-0.7,0-0.9-0.2c-0.9-0.8-1.5-1.6-2.1-2.6C21.5,5.5,20.8,4.3,20,3c-0.6-1.1-1.7-1.4-2.8-0.9
			c-0.8,0.3-1.1,1-1.1,1.8C16,5.6,15.9,7.3,15.8,9c-0.3,3.9-3.3,7.5-7.1,8.5c-1.7,0.4-3.3,0.7-5,1.1c-1.2,0.3-1.8,1.1-1.7,2.3
			c0.1,0.9,0.6,1.4,1.4,1.7c1.5,0.6,3,1.2,4.5,1.8c3.8,1.5,6.3,5.6,6,9.7c-0.1,1.6-0.3,3.3-0.5,4.9c-0.1,1,0.2,1.7,1.1,2.2
			c0.8,0.4,1.5,0.4,2.2-0.2c0.2-0.2,0.4-0.4,0.5-0.6c1-1.2,2-2.5,3-3.6c2.6-3,6.8-4.2,10.6-2.8c1.6,0.6,3.1,1.3,4.7,2
			c0.4,0.2,0.8,0.3,1.2,0.4c1.5,0.1,2.7-1.7,1.9-3c-0.8-1.3-1.6-2.6-2.5-3.9c-1.5-2.3-2-4.7-1.6-7.4c0.3-1.9,1.2-3.5,2.4-4.9
			c1-1.1,2-2.2,3-3.3c1-1.1,0.7-2.6-0.5-3.3c-0.5-0.3-1.1-0.3-1.7-0.1c-1.6,0.4-3.2,0.9-4.8,1.2c-0.7,0.2-1.5,0.2-2.2,0.2
			c-0.5,0-0.8-0.3-0.8-0.8c0-0.4,0.3-0.8,0.8-0.8c2.3-0.1,4.4-0.9,6.5-1.4c0.8-0.2,1.6-0.3,2.4,0c2.4,0.7,3.4,3.8,1.9,5.7
			c-1,1.3-2.1,2.4-3.2,3.6c-1.4,1.5-2.2,3.3-2.2,5.4c-0.1,1.7,0.4,3.3,1.4,4.8c0.8,1.2,1.6,2.5,2.4,3.7c1.3,2.1,0.6,4.5-1.6,5.5
			c-1.1,0.5-2.2,0.4-3.3-0.1c-1.4-0.6-2.8-1.3-4.2-1.9c-3.1-1.3-6.9-0.5-9.1,2.1c-1.1,1.2-2.1,2.5-3.1,3.8c-0.8,1-1.8,1.6-3.1,1.5
			c-2.3-0.1-3.9-2-3.6-4.4c0.2-1.6,0.4-3.3,0.5-4.9c0.2-3.3-1.9-6.6-4.9-7.8c-1.5-0.6-2.9-1.2-4.4-1.7c-1.8-0.7-2.7-2.1-2.6-4.1
			c0-0.1,0-0.1,0-0.2C0.3,19.6,0.4,19.3,0.5,19z"/>
		
			<linearGradient id="SVGID_00000119811651096381485010000007861680171025038520_" gradientUnits="userSpaceOnUse" x1="19.0831" y1="18.0908" x2="21.4259" y2="18.0908" gradientTransform="matrix(0.9588 0.2842 -0.2842 0.9588 7.1737 -5.4509)">
			<stop  offset="0" style="stop-color:#0C336A"/>
			<stop  offset="1" style="stop-color:#25B8FF"/>
		</linearGradient>
		
			<linearGradient id="SVGID_00000026123242854068680620000004669377654871010700_" gradientUnits="userSpaceOnUse" x1="20.0578" y1="17.2362" x2="22.8523" y2="18.0644">
			<stop  offset="0" style="stop-color:#0C336A"/>
			<stop  offset="1" style="stop-color:#25B8FF"/>
		</linearGradient>
		
			<path style="fill:url(#SVGID_00000119811651096381485010000007861680171025038520_);stroke:url(#SVGID_00000026123242854068680620000004669377654871010700_);stroke-width:0.5669;stroke-miterlimit:10;" d="
			M22.4,18.5c-0.2,0.4-0.4,0.6-0.8,0.7c-0.4,0-0.7-0.1-0.8-0.5c-0.2-0.5-0.3-1.1-0.4-1.6c-0.1-0.4,0.2-0.6,0.5-0.8
			c0.3-0.1,0.7-0.1,0.9,0.2C22.3,17.1,22.4,17.8,22.4,18.5z"/>
		
			<linearGradient id="SVGID_00000047779533529066563470000008601452566328816286_" gradientUnits="userSpaceOnUse" x1="27.1443" y1="14.8127" x2="29.6849" y2="14.8127" gradientTransform="matrix(0.9588 0.2842 -0.2842 0.9588 7.1737 -5.4509)">
			<stop  offset="0" style="stop-color:#0C336A"/>
			<stop  offset="1" style="stop-color:#25B8FF"/>
		</linearGradient>
		
			<linearGradient id="SVGID_00000181775179676216124490000000773863402649758341_" gradientUnits="userSpaceOnUse" x1="28.7049" y1="16.4286" x2="31.6844" y2="17.3116">
			<stop  offset="0" style="stop-color:#0C336A"/>
			<stop  offset="1" style="stop-color:#25B8FF"/>
		</linearGradient>
		
			<path style="fill:url(#SVGID_00000047779533529066563470000008601452566328816286_);stroke:url(#SVGID_00000181775179676216124490000000773863402649758341_);stroke-width:0.5669;stroke-miterlimit:10;" d="
			M29.3,18c-0.2-0.2-0.4-0.4-0.5-0.7c0-0.2,0.1-0.6,0.2-0.8c0.4-0.3,0.9-0.6,1.4-0.8c0.4-0.2,0.7,0,0.9,0.3c0.2,0.3,0.2,0.8-0.1,1
			c-0.5,0.4-1.1,0.6-1.6,0.9C29.6,18,29.5,17.9,29.3,18C29.3,17.9,29.3,17.9,29.3,18z"/>
		
			<linearGradient id="SVGID_00000155144072704504836040000017879590266757447852_" gradientUnits="userSpaceOnUse" x1="21.1126" y1="22.4185" x2="22.8748" y2="22.4185" gradientTransform="matrix(0.9588 0.2842 -0.2842 0.9588 7.1737 -5.4509)">
			<stop  offset="0" style="stop-color:#0C336A"/>
			<stop  offset="1" style="stop-color:#25B8FF"/>
		</linearGradient>
		
			<linearGradient id="SVGID_00000059994624164661848630000001799481332789683090_" gradientUnits="userSpaceOnUse" x1="20.7739" y1="21.9622" x2="23.0272" y2="22.63">
			<stop  offset="0" style="stop-color:#0C336A"/>
			<stop  offset="1" style="stop-color:#25B8FF"/>
		</linearGradient>
		
			<path style="fill:url(#SVGID_00000155144072704504836040000017879590266757447852_);stroke:url(#SVGID_00000059994624164661848630000001799481332789683090_);stroke-width:0.5669;stroke-miterlimit:10;" d="
			M22.8,22.2c-0.1,0.3-0.3,0.6-0.4,1c-0.2,0.5-0.6,0.7-1.1,0.5c-0.4-0.2-0.7-0.6-0.5-1.1c0.1-0.4,0.3-0.8,0.5-1.2
			c0.2-0.5,0.7-0.7,1.1-0.5c0.4,0.2,0.6,0.6,0.4,1.2C22.9,22.1,22.8,22.2,22.8,22.2C22.8,22.2,22.8,22.2,22.8,22.2z"/>
		
			<linearGradient id="SVGID_00000010278273615737553140000015734233533716710533_" gradientUnits="userSpaceOnUse" x1="16.3073" y1="22.3732" x2="19.2519" y2="22.3732" gradientTransform="matrix(0.9588 0.2842 -0.2842 0.9588 7.1737 -5.4509)">
			<stop  offset="0" style="stop-color:#0C336A"/>
			<stop  offset="1" style="stop-color:#25B8FF"/>
		</linearGradient>
		
			<linearGradient id="SVGID_00000157281857069061809790000005609553355160461190_" gradientUnits="userSpaceOnUse" x1="16.1796" y1="20.5533" x2="19.5464" y2="21.5511">
			<stop  offset="0" style="stop-color:#0C336A"/>
			<stop  offset="1" style="stop-color:#25B8FF"/>
		</linearGradient>
		
			<path style="fill:url(#SVGID_00000010278273615737553140000015734233533716710533_);stroke:url(#SVGID_00000157281857069061809790000005609553355160461190_);stroke-width:0.5669;stroke-miterlimit:10;" d="
			M17.1,21.9c-0.5-0.2-0.8-0.5-0.8-0.8c0-0.4,0.3-0.8,0.7-0.8c0.5,0,1.1,0,1.6,0.1c0.4,0.1,0.7,0.4,0.7,0.8c0,0.4-0.3,0.7-0.8,0.8
			C18.1,21.9,17.5,21.9,17.1,21.9z"/>
		
			<linearGradient id="SVGID_00000065758741848765427790000007598066142741944745_" gradientUnits="userSpaceOnUse" x1="34.9405" y1="27.9717" x2="37.8761" y2="27.9717" gradientTransform="matrix(0.9588 0.2842 -0.2842 0.9588 7.1737 -5.4509)">
			<stop  offset="0" style="stop-color:#0C336A"/>
			<stop  offset="1" style="stop-color:#25B8FF"/>
		</linearGradient>
		
			<linearGradient id="SVGID_00000018926664565748083300000016012916514844237215_" gradientUnits="userSpaceOnUse" x1="32.4431" y1="31.2125" x2="35.812" y2="32.2109">
			<stop  offset="0" style="stop-color:#0C336A"/>
			<stop  offset="1" style="stop-color:#25B8FF"/>
		</linearGradient>
		
			<path style="fill:url(#SVGID_00000065758741848765427790000007598066142741944745_);stroke:url(#SVGID_00000018926664565748083300000016012916514844237215_);stroke-width:0.5669;stroke-miterlimit:10;" d="
			M32.8,31.1c0.2-0.6,0.8-0.8,1.3-0.5c0.4,0.3,0.9,0.7,1.2,1.1c0.3,0.3,0.2,0.7,0,1.1c-0.3,0.3-0.7,0.4-1,0.1
			c-0.4-0.3-0.8-0.6-1.1-1C32.9,31.6,32.9,31.3,32.8,31.1z"/>
		
			<linearGradient id="SVGID_00000007407140369787350540000011581330099189348525_" gradientUnits="userSpaceOnUse" x1="19.7658" y1="37.6356" x2="21.5176" y2="37.6356" gradientTransform="matrix(0.9588 0.2842 -0.2842 0.9588 7.1737 -5.4509)">
			<stop  offset="0" style="stop-color:#0C336A"/>
			<stop  offset="1" style="stop-color:#25B8FF"/>
		</linearGradient>
		
			<linearGradient id="SVGID_00000161608368532701118750000011752708029950174124_" gradientUnits="userSpaceOnUse" x1="15.1586" y1="36.1693" x2="17.3818" y2="36.8282">
			<stop  offset="0" style="stop-color:#0C336A"/>
			<stop  offset="1" style="stop-color:#25B8FF"/>
		</linearGradient>
		
			<path style="fill:url(#SVGID_00000007407140369787350540000011581330099189348525_);stroke:url(#SVGID_00000161608368532701118750000011752708029950174124_);stroke-width:0.5669;stroke-miterlimit:10;" d="
			M17.2,36.4c-0.1,0.3-0.2,0.6-0.4,1c-0.2,0.5-0.7,0.7-1.1,0.5c-0.4-0.2-0.6-0.6-0.5-1.1c0.1-0.3,0.3-0.7,0.4-1
			c0.2-0.6,0.7-0.9,1.2-0.7C17.3,35.3,17.4,35.7,17.2,36.4z"/>
		
			<linearGradient id="SVGID_00000096041906749940614390000001690364692930672012_" gradientUnits="userSpaceOnUse" x1="14.0085" y1="9.2448" x2="16.3207" y2="9.2448" gradientTransform="matrix(0.9588 0.2842 -0.2842 0.9588 7.1737 -5.4509)">
			<stop  offset="0" style="stop-color:#0C336A"/>
			<stop  offset="1" style="stop-color:#25B8FF"/>
		</linearGradient>
		
			<linearGradient id="SVGID_00000139986909614478496840000007427693673483191204_" gradientUnits="userSpaceOnUse" x1="17.7074" y1="7.3081" x2="20.4679" y2="8.1262">
			<stop  offset="0" style="stop-color:#0C336A"/>
			<stop  offset="1" style="stop-color:#25B8FF"/>
		</linearGradient>
		
			<path style="fill:url(#SVGID_00000096041906749940614390000001690364692930672012_);stroke:url(#SVGID_00000139986909614478496840000007427693673483191204_);stroke-width:0.5669;stroke-miterlimit:10;" d="
			M19.2,6.3c0.2,0.2,0.4,0.4,0.5,0.6C19.8,7.3,20,7.8,20,8.3c0.1,0.5-0.2,0.9-0.7,1c-0.4,0.1-0.8-0.2-1-0.6c-0.1-0.5-0.3-1-0.3-1.5
			C18.1,6.6,18.6,6.2,19.2,6.3z"/>
		
			<linearGradient id="SVGID_00000041279823756068501190000010392076105234836917_" gradientUnits="userSpaceOnUse" x1="30.5976" y1="11.1216" x2="33.2134" y2="11.1216" gradientTransform="matrix(0.9588 0.2842 -0.2842 0.9588 7.1737 -5.4509)">
			<stop  offset="0" style="stop-color:#0C336A"/>
			<stop  offset="1" style="stop-color:#25B8FF"/>
		</linearGradient>
		
			<linearGradient id="SVGID_00000157299415585673361020000016607898622234079621_" gradientUnits="userSpaceOnUse" x1="33.078" y1="13.8262" x2="36.1295" y2="14.7306">
			<stop  offset="0" style="stop-color:#0C336A"/>
			<stop  offset="1" style="stop-color:#25B8FF"/>
		</linearGradient>
		
			<path style="fill:url(#SVGID_00000041279823756068501190000010392076105234836917_);stroke:url(#SVGID_00000157299415585673361020000016607898622234079621_);stroke-width:0.5669;stroke-miterlimit:10;" d="
			M35.4,13.1c0.7,0.2,0.9,1,0.4,1.4c-0.5,0.4-1,0.6-1.6,0.9c-0.3,0.1-0.7,0-0.9-0.3c-0.2-0.3-0.3-0.7,0-0.9c0.5-0.4,1.1-0.7,1.7-1
			C35.2,13.1,35.3,13.1,35.4,13.1z"/>
		
			<linearGradient id="SVGID_00000169549955554344656480000005238930253038822532_" gradientUnits="userSpaceOnUse" x1="25.7743" y1="23.6227" x2="28.6606" y2="23.6227" gradientTransform="matrix(0.9588 0.2842 -0.2842 0.9588 7.1737 -5.4509)">
			<stop  offset="0" style="stop-color:#0C336A"/>
			<stop  offset="1" style="stop-color:#25B8FF"/>
		</linearGradient>
		
			<linearGradient id="SVGID_00000100364143810285082390000004863714885425264258_" gradientUnits="userSpaceOnUse" x1="24.9028" y1="24.4364" x2="28.2136" y2="25.4176">
			<stop  offset="0" style="stop-color:#0C336A"/>
			<stop  offset="1" style="stop-color:#25B8FF"/>
		</linearGradient>
		
			<path style="fill:url(#SVGID_00000169549955554344656480000005238930253038822532_);stroke:url(#SVGID_00000100364143810285082390000004863714885425264258_);stroke-width:0.5669;stroke-miterlimit:10;" d="
			M26.4,23.7c0.5,0.4,1,0.9,1.4,1.4c0.2,0.3,0.1,0.6-0.1,0.9c-0.2,0.3-0.6,0.4-0.9,0.2c-0.5-0.4-1-0.8-1.5-1.3
			c-0.2-0.3-0.1-0.6,0.1-0.9C25.6,23.7,26,23.6,26.4,23.7z"/>
		
			<linearGradient id="SVGID_00000136391059311165021990000012598811113971345804_" gradientUnits="userSpaceOnUse" x1="6.4214" y1="24.8378" x2="9.3614" y2="24.8378" gradientTransform="matrix(0.9588 0.2842 -0.2842 0.9588 7.1737 -5.4509)">
			<stop  offset="0" style="stop-color:#0C336A"/>
			<stop  offset="1" style="stop-color:#25B8FF"/>
		</linearGradient>
		
			<linearGradient id="SVGID_00000064328944739631637870000013856960569812027055_" gradientUnits="userSpaceOnUse" x1="6.0009" y1="20.1072" x2="9.3632" y2="21.1038">
			<stop  offset="0" style="stop-color:#0C336A"/>
			<stop  offset="1" style="stop-color:#25B8FF"/>
		</linearGradient>
		
			<path style="fill:url(#SVGID_00000136391059311165021990000012598811113971345804_);stroke:url(#SVGID_00000064328944739631637870000013856960569812027055_);stroke-width:0.5669;stroke-miterlimit:10;" d="
			M8.4,19.8c0.5,0.2,0.8,0.5,0.8,0.9c0,0.4-0.3,0.7-0.7,0.8c-0.5,0-1.1,0-1.7-0.1c-0.4,0-0.6-0.4-0.6-0.8c0-0.4,0.3-0.8,0.7-0.8
			C7.4,19.7,8,19.8,8.4,19.8z"/>
		
			<linearGradient id="SVGID_00000043429207795571042780000015997745070832899242_" gradientUnits="userSpaceOnUse" x1="20.6783" y1="27.4951" x2="22.4298" y2="27.4951" gradientTransform="matrix(0.9588 0.2842 -0.2842 0.9588 7.1737 -5.4509)">
			<stop  offset="0" style="stop-color:#0C336A"/>
			<stop  offset="1" style="stop-color:#25B8FF"/>
		</linearGradient>
		
			<linearGradient id="SVGID_00000117668437708303362950000009781660755636792228_" gradientUnits="userSpaceOnUse" x1="18.915" y1="26.7061" x2="21.1378" y2="27.3649">
			<stop  offset="0" style="stop-color:#0C336A"/>
			<stop  offset="1" style="stop-color:#25B8FF"/>
		</linearGradient>
		
			<path style="fill:url(#SVGID_00000043429207795571042780000015997745070832899242_);stroke:url(#SVGID_00000117668437708303362950000009781660755636792228_);stroke-width:0.5669;stroke-miterlimit:10;" d="
			M19.1,27.1c0.1-0.2,0.2-0.6,0.4-0.9c0.2-0.5,0.7-0.7,1.1-0.6c0.4,0.2,0.6,0.6,0.5,1.1c-0.1,0.3-0.3,0.6-0.4,1
			c-0.2,0.6-0.7,0.9-1.1,0.7C19,28.3,18.9,27.8,19.1,27.1z"/>
		
			<linearGradient id="SVGID_00000041266666823235819340000010248553039876094389_" gradientUnits="userSpaceOnUse" x1="30.3979" y1="25.7735" x2="33.2791" y2="25.7735" gradientTransform="matrix(0.9588 0.2842 -0.2842 0.9588 7.1737 -5.4509)">
			<stop  offset="0" style="stop-color:#0C336A"/>
			<stop  offset="1" style="stop-color:#25B8FF"/>
		</linearGradient>
		
			<linearGradient id="SVGID_00000000204618301305781390000018275680585524487837_" gradientUnits="userSpaceOnUse" x1="28.7256" y1="27.8087" x2="32.0317" y2="28.7886">
			<stop  offset="0" style="stop-color:#0C336A"/>
			<stop  offset="1" style="stop-color:#25B8FF"/>
		</linearGradient>
		
			<path style="fill:url(#SVGID_00000041266666823235819340000010248553039876094389_);stroke:url(#SVGID_00000000204618301305781390000018275680585524487837_);stroke-width:0.5669;stroke-miterlimit:10;" d="
			M30.2,27c0.5,0.5,1,0.9,1.4,1.4c0.2,0.3,0.1,0.7-0.2,0.9c-0.3,0.2-0.6,0.3-0.9,0.1c-0.5-0.3-0.9-0.7-1.3-1.1c-0.3-0.3-0.2-0.6,0-1
			C29.4,27.1,29.7,27,30.2,27z"/>
		
			<linearGradient id="SVGID_00000016792672029677609330000004482141836267643553_" gradientUnits="userSpaceOnUse" x1="20.2103" y1="32.5637" x2="21.9651" y2="32.5637" gradientTransform="matrix(0.9588 0.2842 -0.2842 0.9588 7.1737 -5.4509)">
			<stop  offset="0" style="stop-color:#0C336A"/>
			<stop  offset="1" style="stop-color:#25B8FF"/>
		</linearGradient>
		
			<linearGradient id="SVGID_00000122697066319895322460000006616584159518561410_" gradientUnits="userSpaceOnUse" x1="17.026" y1="31.4328" x2="19.2521" y2="32.0925">
			<stop  offset="0" style="stop-color:#0C336A"/>
			<stop  offset="1" style="stop-color:#25B8FF"/>
		</linearGradient>
		
			<path style="fill:url(#SVGID_00000016792672029677609330000004482141836267643553_);stroke:url(#SVGID_00000122697066319895322460000006616584159518561410_);stroke-width:0.5669;stroke-miterlimit:10;" d="
			M17.1,32c0.2-0.4,0.3-0.8,0.5-1.2c0.2-0.4,0.6-0.6,1-0.4c0.4,0.1,0.6,0.5,0.5,1c-0.2,0.5-0.4,1-0.6,1.5c-0.2,0.4-0.7,0.5-1,0.3
			C17.1,32.9,17,32.5,17.1,32z"/>
		
			<linearGradient id="SVGID_00000015341616860957992850000013472361546589673088_" gradientUnits="userSpaceOnUse" x1="23.5482" y1="18.4339" x2="26.1271" y2="18.4339" gradientTransform="matrix(0.9588 0.2842 -0.2842 0.9588 7.1737 -5.4509)">
			<stop  offset="0" style="stop-color:#0C336A"/>
			<stop  offset="1" style="stop-color:#25B8FF"/>
		</linearGradient>
		
			<linearGradient id="SVGID_00000109717113741893121050000017542037309507899008_" gradientUnits="userSpaceOnUse" x1="24.2414" y1="18.8339" x2="27.2575" y2="19.7278">
			<stop  offset="0" style="stop-color:#0C336A"/>
			<stop  offset="1" style="stop-color:#25B8FF"/>
		</linearGradient>
		
			<path style="fill:url(#SVGID_00000015341616860957992850000013472361546589673088_);stroke:url(#SVGID_00000109717113741893121050000017542037309507899008_);stroke-width:0.5669;stroke-miterlimit:10;" d="
			M27.1,19.2c-0.1,0.5-1.7,1.4-2.2,1.2c-0.6-0.2-0.8-1-0.4-1.4c0.5-0.4,1-0.7,1.5-0.9C26.7,18,27.3,18.6,27.1,19.2z"/>
		
			<linearGradient id="SVGID_00000164498783860645375870000002730286556919638973_" gradientUnits="userSpaceOnUse" x1="11.3638" y1="23.6067" x2="14.3087" y2="23.6067" gradientTransform="matrix(0.9588 0.2842 -0.2842 0.9588 7.1737 -5.4509)">
			<stop  offset="0" style="stop-color:#0C336A"/>
			<stop  offset="1" style="stop-color:#25B8FF"/>
		</linearGradient>
		
			<linearGradient id="SVGID_00000067214836511758506450000004703266533972803212_" gradientUnits="userSpaceOnUse" x1="11.0894" y1="20.3313" x2="14.4564" y2="21.3292">
			<stop  offset="0" style="stop-color:#0C336A"/>
			<stop  offset="1" style="stop-color:#25B8FF"/>
		</linearGradient>
		
			<path style="fill:url(#SVGID_00000164498783860645375870000002730286556919638973_);stroke:url(#SVGID_00000067214836511758506450000004703266533972803212_);stroke-width:0.5669;stroke-miterlimit:10;" d="
			M12,21.6c-0.5-0.2-0.8-0.5-0.8-0.9c0-0.4,0.3-0.7,0.7-0.8c0.6,0,1.1,0,1.7,0.1c0.4,0.1,0.6,0.4,0.6,0.8c0,0.4-0.3,0.7-0.7,0.7
			C13,21.7,12.5,21.6,12,21.6z"/>
		
			<linearGradient id="SVGID_00000027587587358559729350000017303593592227999643_" gradientUnits="userSpaceOnUse" x1="16.5584" y1="13.7224" x2="18.857" y2="13.7224" gradientTransform="matrix(0.9588 0.2842 -0.2842 0.9588 7.1737 -5.4509)">
			<stop  offset="0" style="stop-color:#0C336A"/>
			<stop  offset="1" style="stop-color:#25B8FF"/>
		</linearGradient>
		
			<linearGradient id="SVGID_00000076598648609659647290000003221530473415146678_" gradientUnits="userSpaceOnUse" x1="18.8768" y1="12.3358" x2="21.6243" y2="13.1501">
			<stop  offset="0" style="stop-color:#0C336A"/>
			<stop  offset="1" style="stop-color:#25B8FF"/>
		</linearGradient>
		
			<path style="fill:url(#SVGID_00000027587587358559729350000017303593592227999643_);stroke:url(#SVGID_00000076598648609659647290000003221530473415146678_);stroke-width:0.5669;stroke-miterlimit:10;" d="
			M20.1,14.2c-0.2-0.2-0.4-0.4-0.5-0.6c-0.2-0.4-0.2-0.9-0.3-1.3c-0.1-0.5,0.2-0.9,0.6-1c0.4-0.1,0.8,0.1,1,0.6
			c0.1,0.4,0.2,0.9,0.3,1.3C21.3,13.8,20.8,14.3,20.1,14.2z"/>
		
			<linearGradient id="SVGID_00000015355860132152502640000015068817194607959717_" gradientUnits="userSpaceOnUse" x1="23.4678" y1="9.4586" x2="25.1618" y2="9.4586" gradientTransform="matrix(0.9588 0.2842 -0.2842 0.9588 7.1737 -5.4509)">
			<stop  offset="0" style="stop-color:#0C336A"/>
			<stop  offset="1" style="stop-color:#25B8FF"/>
		</linearGradient>
		
			<linearGradient id="SVGID_00000087395480085352937110000004561645959071074486_" gradientUnits="userSpaceOnUse" x1="26.7146" y1="10.2057" x2="28.8824" y2="10.8482">
			<stop  offset="0" style="stop-color:#0C336A"/>
			<stop  offset="1" style="stop-color:#25B8FF"/>
		</linearGradient>
		
			<path style="fill:url(#SVGID_00000015355860132152502640000015068817194607959717_);stroke:url(#SVGID_00000087395480085352937110000004561645959071074486_);stroke-width:0.5669;stroke-miterlimit:10;" d="
			M28.6,10.8c-0.1,0.4-0.6,0.7-1,0.6c-0.4-0.1-0.7-0.6-0.6-1.1c0.1-0.4,0.6-0.7,1-0.5C28.5,9.9,28.7,10.3,28.6,10.8z"/>
		
			<linearGradient id="SVGID_00000035507110621998669180000012997624273964323474_" gradientUnits="userSpaceOnUse" x1="3.6041" y1="10.8673" x2="5.2469" y2="10.8673" gradientTransform="matrix(0.9588 0.2842 -0.2842 0.9588 7.1737 -5.4509)">
			<stop  offset="0" style="stop-color:#0C336A"/>
			<stop  offset="1" style="stop-color:#25B8FF"/>
		</linearGradient>
		
			<linearGradient id="SVGID_00000167359905098480590180000007602635750390514356_" gradientUnits="userSpaceOnUse" x1="7.2694" y1="5.912" x2="9.3881" y2="6.5399">
			<stop  offset="0" style="stop-color:#0C336A"/>
			<stop  offset="1" style="stop-color:#25B8FF"/>
		</linearGradient>
		
			<path style="fill:url(#SVGID_00000035507110621998669180000012997624273964323474_);stroke:url(#SVGID_00000167359905098480590180000007602635750390514356_);stroke-width:0.5669;stroke-miterlimit:10;" d="
			M9.1,6.5C9,6.9,8.5,7.1,8.1,7C7.7,6.9,7.4,6.4,7.5,6c0.1-0.4,0.6-0.7,1-0.5C9,5.6,9.3,6,9.1,6.5z"/>
		
			<linearGradient id="SVGID_00000132800882982102540630000008991268119896288669_" gradientUnits="userSpaceOnUse" x1="6.4128" y1="14.0616" x2="8.0688" y2="14.0616" gradientTransform="matrix(0.9588 0.2842 -0.2842 0.9588 7.1737 -5.4509)">
			<stop  offset="0" style="stop-color:#0C336A"/>
			<stop  offset="1" style="stop-color:#25B8FF"/>
		</linearGradient>
		
			<linearGradient id="SVGID_00000158732415781141181780000000354554492101582517_" gradientUnits="userSpaceOnUse" x1="9.0547" y1="9.7727" x2="11.1861" y2="10.4044">
			<stop  offset="0" style="stop-color:#0C336A"/>
			<stop  offset="1" style="stop-color:#25B8FF"/>
		</linearGradient>
		
			<path style="fill:url(#SVGID_00000132800882982102540630000008991268119896288669_);stroke:url(#SVGID_00000158732415781141181780000000354554492101582517_);stroke-width:0.5669;stroke-miterlimit:10;" d="
			M10.4,9.3c0.4,0.1,0.7,0.6,0.5,1c-0.1,0.4-0.6,0.7-1,0.5c-0.4-0.1-0.7-0.6-0.5-1C9.5,9.4,9.9,9.2,10.4,9.3z"/>
		
			<linearGradient id="SVGID_00000093143105859941080860000005161830857868286091_" gradientUnits="userSpaceOnUse" x1="2.656" y1="16.6494" x2="4.312" y2="16.6494" gradientTransform="matrix(0.9588 0.2842 -0.2842 0.9588 7.1737 -5.4509)">
			<stop  offset="0" style="stop-color:#0C336A"/>
			<stop  offset="1" style="stop-color:#25B8FF"/>
		</linearGradient>
		
			<linearGradient id="SVGID_00000027585454485941183730000013735144406480520839_" gradientUnits="userSpaceOnUse" x1="4.7174" y1="11.1864" x2="6.8488" y2="11.818">
			<stop  offset="0" style="stop-color:#0C336A"/>
			<stop  offset="1" style="stop-color:#25B8FF"/>
		</linearGradient>
		
			<path style="fill:url(#SVGID_00000093143105859941080860000005161830857868286091_);stroke:url(#SVGID_00000027585454485941183730000013735144406480520839_);stroke-width:0.5669;stroke-miterlimit:10;" d="
			M5.5,12.3c-0.4-0.1-0.7-0.6-0.5-1c0.1-0.4,0.6-0.7,1-0.5c0.4,0.1,0.7,0.6,0.5,1C6.4,12.2,6,12.4,5.5,12.3z"/>
	</g>
</g>
<g>
	<path class="st21" d="M56.4,22.7c0,3.8-2.3,7.1-6.7,7.1c-4.3,0-6.5-3.1-6.5-7c0-4,2.5-7,6.7-7C53.8,15.8,56.4,18.6,56.4,22.7z
		 M46.2,22.7c0,2.7,1.2,4.7,3.6,4.7c2.6,0,3.6-2.2,3.6-4.6c0-2.6-1.1-4.6-3.6-4.6C47.2,18.2,46.2,20.1,46.2,22.7z"/>
	<path class="st21" d="M67.4,26.3c-0.3,1.7-1.5,3.6-4.6,3.6c-3.2,0-4.8-2.2-4.8-5.3c0-3,1.8-5.5,5-5.5c3.5,0,4.4,2.5,4.5,3.6h-2.8
		c-0.2-0.8-0.7-1.4-1.8-1.4c-1.3,0-2,1.1-2,3.1c0,2.2,0.8,3.2,2,3.2c1,0,1.5-0.6,1.8-1.3H67.4z"/>
	<path class="st21" d="M71.5,25.1c0,1.3,0.7,2.5,2.1,2.5c1.2,0,1.5-0.5,1.8-1.1h2.8c-0.4,1.2-1.5,3.3-4.7,3.3
		c-3.4,0-4.9-2.5-4.9-5.2c0-3.2,1.6-5.5,5-5.5c3.5,0,4.7,2.6,4.7,5.1c0,0.4,0,0.6,0,0.9H71.5z M75.5,23.4c0-1.2-0.5-2.2-1.9-2.2
		c-1.3,0-1.9,0.9-2,2.2H75.5z"/>
	<path class="st21" d="M88.8,27c0,1,0.1,2.4,0.1,2.7h-2.7c-0.1-0.2-0.1-0.8-0.1-1c-0.4,0.6-1.1,1.2-2.9,1.2c-2.5,0-3.5-1.6-3.5-3.2
		c0-2.3,1.9-3.4,4.9-3.4H86v-0.6c0-0.7-0.3-1.4-1.6-1.4c-1.2,0-1.5,0.5-1.6,1.2h-2.7c0.1-1.8,1.3-3.3,4.4-3.3c2.7,0,4.2,1.1,4.2,3.6
		V27z M86,25h-1.2c-1.7,0-2.4,0.5-2.4,1.5c0,0.7,0.5,1.4,1.5,1.4c1.8,0,2-1.3,2-2.6V25z"/>
	<path class="st21" d="M91.4,22c0-0.9,0-1.8,0-2.6h2.8c0.1,0.3,0.1,1,0.1,1.3c0.3-0.6,1.2-1.5,3-1.5c2.1,0,3.4,1.4,3.4,4v6.5h-2.8
		v-6.2c0-1.2-0.4-2-1.6-2c-1.2,0-1.9,0.7-1.9,2.5v5.7h-2.9V22z"/>
	<path class="st21" d="M108.3,16h5.7c2.9,0,4.9,1.6,4.9,4.2c0,3-2.2,4.3-4.9,4.3h-2.6v5.1h-3V16z M111.3,22.2h2.3
		c1.4,0,2.3-0.5,2.3-1.9c0-1.4-1-1.9-2.3-1.9h-2.3V22.2z"/>
	<path class="st21" d="M129.7,26.7c0,1,0,2.1,0,3h-2.8c0-0.3-0.1-0.8-0.1-1.2c-0.6,1-1.5,1.4-2.8,1.4c-2.1,0-3.4-1.3-3.4-3.8v-6.7
		h2.8v6.1c0,1.1,0.4,2.1,1.6,2.1c1.3,0,1.8-0.7,1.8-2.7v-5.5h2.8V26.7z"/>
	<path class="st21" d="M132.3,29.6V15.2h2.9v14.5H132.3z"/>
	<path class="st21" d="M139.7,26.5c0.2,0.8,0.9,1.3,1.9,1.3c1.1,0,1.4-0.4,1.4-1c0-0.7-0.4-0.9-1.9-1.3c-3.4-0.8-3.9-1.9-3.9-3.3
		c0-1.5,1.1-3.1,4.1-3.1c3.1,0,4.2,1.7,4.3,3.1H143c-0.1-0.4-0.4-1.1-1.7-1.1c-0.9,0-1.2,0.4-1.2,0.9c0,0.5,0.3,0.8,2,1.2
		c3.4,0.8,3.9,2,3.9,3.5c0,1.7-1.3,3.3-4.4,3.3c-3.1,0-4.4-1.5-4.6-3.3H139.7z"/>
	<path class="st21" d="M150.1,25.1c0,1.3,0.7,2.5,2.1,2.5c1.2,0,1.5-0.5,1.8-1.1h2.8c-0.4,1.2-1.5,3.3-4.7,3.3
		c-3.4,0-4.9-2.5-4.9-5.2c0-3.2,1.6-5.5,5-5.5c3.5,0,4.7,2.6,4.7,5.1c0,0.4,0,0.6,0,0.9H150.1z M154.1,23.4c0-1.2-0.5-2.2-1.9-2.2
		c-1.3,0-1.9,0.9-2,2.2H154.1z"/>
</g>
</svg>
