<?xml version="1.0" encoding="utf-8"?>
<!-- Generator: Adobe Illustrator 28.2.0, SVG Export Plug-In . SVG Version: 6.00 Build 0)  -->
<svg version="1.1" id="Layer_1" xmlns="http://www.w3.org/2000/svg" xmlns:xlink="http://www.w3.org/1999/xlink" x="0px" y="0px"
	 viewBox="0 0 259 70" style="enable-background:new 0 0 259 70;" xml:space="preserve">
<style type="text/css">
	.st0{fill:#F1F5FD;}
</style>
<g>
	<g id="hfjnqK_00000070097814659801476350000008527428546129435031_">
		<g>
			<path class="st0" d="M4.2,30.8c0.4-0.5,0.7-1,1.1-1.5c0.9-1,2.1-1.6,3.4-1.8c2.1-0.5,4.3-0.9,6.4-1.4c6.6-1.4,10.7-6.2,11-13
				c0.1-2.4,0.2-4.7,0.4-7.1c0.2-2.5,2-4.5,4.5-5.2c2.4-0.6,5,0.3,6.4,2.4c1.2,1.9,2.4,3.9,3.5,5.9c0.9,1.5,1.9,3,3.2,4.2
				c0.3,0.3,0.6,0.9,0.5,1.3c0,0.4-0.4,0.8-0.8,1c-0.5,0.3-1.1,0.1-1.5-0.3c-1.4-1.2-2.5-2.6-3.4-4.2c-1.2-2-2.3-4-3.5-6
				c-1-1.7-2.7-2.3-4.5-1.4c-1.2,0.6-1.8,1.6-1.8,2.9c-0.2,2.7-0.3,5.4-0.5,8.1c-0.5,6.3-5.3,12-11.5,13.6c-2.7,0.7-5.4,1.2-8,1.8
				c-2,0.4-3,1.8-2.8,3.7c0.1,1.4,1,2.3,2.2,2.7c2.4,0.9,4.8,1.9,7.2,2.8c6.1,2.5,10.1,8.9,9.7,15.5c-0.2,2.6-0.5,5.3-0.8,7.9
				c-0.2,1.6,0.4,2.8,1.7,3.5c1.2,0.6,2.5,0.6,3.6-0.3c0.3-0.3,0.6-0.6,0.9-0.9c1.6-1.9,3.1-3.9,4.8-5.8c4.2-4.8,11-6.7,17-4.6
				c2.6,0.9,5,2.2,7.5,3.2c0.6,0.3,1.3,0.5,1.9,0.6c2.5,0.1,4.3-2.7,3-4.8c-1.2-2.1-2.6-4.2-4-6.2c-2.4-3.6-3.2-7.5-2.5-11.8
				c0.5-3,1.9-5.6,3.9-7.9c1.6-1.8,3.2-3.5,4.8-5.3c1.5-1.8,1.1-4.1-0.8-5.3c-0.9-0.5-1.8-0.4-2.7-0.2c-2.5,0.7-5.1,1.4-7.6,2
				c-1.1,0.3-2.3,0.3-3.5,0.4c-0.8,0-1.3-0.6-1.4-1.3c0-0.7,0.4-1.3,1.2-1.3c3.6-0.1,7-1.5,10.5-2.3c1.3-0.3,2.5-0.4,3.8,0
				c3.8,1.2,5.5,6.1,3,9.2c-1.6,2-3.4,3.9-5.1,5.8c-2.2,2.5-3.5,5.3-3.6,8.7c-0.1,2.8,0.7,5.4,2.2,7.7c1.3,2,2.6,4,3.8,6
				c2.1,3.3,1,7.2-2.5,8.9c-1.8,0.9-3.6,0.6-5.3-0.2c-2.3-1-4.5-2-6.8-3c-5-2.1-11.1-0.8-14.6,3.3c-1.7,2-3.4,4.1-5.1,6.1
				c-1.3,1.6-2.9,2.5-5,2.4c-3.8-0.2-6.2-3.2-5.8-7c0.3-2.6,0.6-5.2,0.8-7.9c0.4-5.2-3-10.6-7.9-12.6c-2.4-1-4.7-1.9-7.1-2.8
				C5,38,3.5,35.8,3.8,32.6c0-0.1,0-0.2,0-0.3C3.9,31.8,4.1,31.3,4.2,30.8z"/>
			<path class="st0" d="M39.4,29.9c-0.3,0.7-0.6,1-1.2,1.1c-0.6,0-1.1-0.2-1.3-0.8c-0.3-0.8-0.5-1.7-0.6-2.6c-0.1-0.6,0.2-1,0.8-1.3
				c0.5-0.2,1.1-0.2,1.5,0.3C39.2,27.7,39.3,28.9,39.4,29.9z"/>
			<path class="st0" d="M50.4,29.1c-0.3-0.4-0.7-0.7-0.7-1.1c-0.1-0.4,0.1-1,0.4-1.2c0.7-0.5,1.5-1,2.3-1.3c0.6-0.3,1.2,0,1.5,0.5
				c0.3,0.5,0.3,1.3-0.2,1.6c-0.8,0.6-1.7,1-2.6,1.5c-0.2,0.1-0.4,0-0.6,0C50.5,29,50.4,29.1,50.4,29.1z"/>
			<path class="st0" d="M40,35.9c-0.2,0.5-0.4,1-0.6,1.5c-0.3,0.7-1,1.1-1.7,0.8c-0.7-0.2-1.1-1-0.8-1.8c0.2-0.7,0.5-1.3,0.8-1.9
				c0.4-0.8,1.1-1.1,1.8-0.8c0.7,0.3,1,1,0.7,1.9C40.1,35.8,40,35.8,40,35.9C40,35.9,40,35.9,40,35.9z"/>
			<path class="st0" d="M30.9,35.3c-0.8-0.2-1.2-0.8-1.2-1.4c0-0.7,0.5-1.2,1.1-1.3c0.9,0,1.7,0,2.6,0.1c0.7,0.1,1.1,0.7,1,1.3
				c0,0.6-0.5,1.2-1.2,1.2C32.4,35.4,31.5,35.4,30.9,35.3z"/>
			<path class="st0" d="M56,50.2c0.4-0.9,1.3-1.3,2-0.8c0.7,0.5,1.4,1.1,2,1.7c0.5,0.5,0.4,1.2-0.1,1.7c-0.4,0.5-1.1,0.6-1.7,0.2
				c-0.7-0.5-1.3-1-1.8-1.6C56.2,51.1,56.1,50.6,56,50.2z"/>
			<path class="st0" d="M31,58.8c-0.2,0.4-0.4,1-0.6,1.5c-0.3,0.8-1.1,1.1-1.8,0.8c-0.7-0.3-1-1-0.7-1.7c0.2-0.6,0.4-1.1,0.6-1.6
				c0.4-1,1.1-1.4,1.9-1.1C31.1,56.9,31.4,57.6,31,58.8z"/>
			<path class="st0" d="M34.2,10.3c0.3,0.3,0.6,0.6,0.7,0.9c0.3,0.7,0.4,1.5,0.6,2.3c0.1,0.8-0.3,1.4-1.1,1.5
				c-0.7,0.1-1.3-0.3-1.5-1c-0.2-0.8-0.4-1.5-0.5-2.3C32.4,10.8,33.2,10.1,34.2,10.3z"/>
			<path class="st0" d="M60.1,21.3c1.1,0.3,1.4,1.6,0.6,2.2c-0.7,0.6-1.6,1-2.5,1.4c-0.5,0.2-1.1,0-1.4-0.5
				c-0.3-0.5-0.4-1.1,0.1-1.5c0.9-0.6,1.8-1.1,2.7-1.6C59.8,21.3,60.1,21.3,60.1,21.3z"/>
			<path class="st0" d="M45.7,38.3c0.7,0.7,1.5,1.4,2.2,2.2c0.4,0.4,0.2,1-0.2,1.5c-0.4,0.4-0.9,0.6-1.4,0.3c-0.8-0.6-1.6-1.3-2.3-2
				c-0.4-0.4-0.2-1,0.2-1.5C44.5,38.3,45.1,38.2,45.7,38.3z"/>
			<path class="st0" d="M16.9,32c0.9,0.2,1.3,0.8,1.2,1.4c0,0.7-0.5,1.2-1.1,1.2c-0.9,0-1.8,0-2.7-0.1c-0.6-0.1-1-0.7-1-1.3
				c0-0.6,0.4-1.2,1.1-1.3C15.3,32,16.2,32,16.9,32z"/>
			<path class="st0" d="M34,43.7c0.2-0.4,0.3-0.9,0.6-1.4c0.3-0.8,1.1-1.2,1.8-0.9c0.7,0.3,1,1,0.8,1.8c-0.2,0.5-0.4,1-0.6,1.6
				c-0.4,1-1.1,1.4-1.8,1.1C33.9,45.6,33.6,44.9,34,43.7z"/>
			<path class="st0" d="M51.8,43.7c0.8,0.8,1.6,1.5,2.3,2.3c0.4,0.5,0.1,1.1-0.3,1.5c-0.4,0.4-1,0.5-1.5,0.2c-0.7-0.5-1.4-1.1-2-1.8
				c-0.4-0.4-0.4-1,0-1.5C50.6,43.8,51.1,43.6,51.8,43.7z"/>
			<path class="st0" d="M30.9,51.7c0.3-0.6,0.5-1.3,0.8-1.9c0.3-0.7,1-1,1.7-0.7c0.6,0.2,1,0.9,0.8,1.6c-0.2,0.8-0.6,1.6-0.9,2.4
				c-0.3,0.6-1.1,0.8-1.7,0.5C30.9,53.1,30.6,52.4,30.9,51.7z"/>
			<path class="st0" d="M46.9,31c-0.2,0.8-2.7,2.2-3.5,2c-1-0.3-1.4-1.5-0.6-2.2c0.7-0.6,1.6-1.1,2.5-1.4
				C46.3,29.1,47.2,30.1,46.9,31z"/>
			<path class="st0" d="M22.7,35c-0.9-0.2-1.3-0.8-1.2-1.4c0-0.6,0.5-1.2,1.1-1.2c0.9,0,1.8,0,2.7,0.1c0.6,0.1,1,0.7,1,1.3
				c0,0.6-0.5,1.1-1.1,1.2C24.3,35.1,23.4,35,22.7,35z"/>
			<path class="st0" d="M35.6,23.1c-0.3-0.3-0.6-0.6-0.7-1c-0.2-0.7-0.4-1.4-0.5-2.1c-0.2-0.8,0.3-1.5,1-1.6c0.7-0.2,1.4,0.2,1.6,1
				c0.2,0.7,0.4,1.4,0.5,2.1C37.6,22.5,36.7,23.2,35.6,23.1z"/>
			<path class="st0" d="M49.3,17.6c-0.2,0.7-1,1.1-1.7,0.9c-0.7-0.2-1.1-1-0.9-1.7c0.2-0.7,0.9-1.1,1.7-0.9
				C49.1,16.1,49.5,16.8,49.3,17.6z"/>
			<path class="st0" d="M18,10.7c-0.2,0.7-1,1.1-1.7,0.9c-0.7-0.2-1.1-1-0.8-1.7c0.2-0.7,1-1.1,1.7-0.8C17.9,9.2,18.2,10,18,10.7z"
				/>
			<path class="st0" d="M20,15.2c0.7,0.2,1.1,1,0.9,1.7c-0.2,0.7-1,1.1-1.7,0.9c-0.7-0.2-1.1-1-0.9-1.7C18.6,15.4,19.4,15,20,15.2z"
				/>
			<path class="st0" d="M12.3,20c-0.7-0.2-1.1-1-0.9-1.7c0.2-0.7,1-1.1,1.7-0.9c0.7,0.2,1.1,1,0.9,1.7C13.7,19.8,12.9,20.2,12.3,20z
				"/>
		</g>
	</g>
	<g>
		<path class="st0" d="M93.8,36.8c0,6.1-3.7,11.4-10.8,11.4c-6.9,0-10.5-5-10.5-11.3c0-6.4,4-11.3,10.8-11.3
			C89.8,25.6,93.8,30.1,93.8,36.8z M77.4,36.7c0,4.3,1.9,7.5,5.8,7.5c4.2,0,5.7-3.5,5.7-7.4c0-4.2-1.7-7.4-5.8-7.4
			C79.2,29.4,77.4,32.5,77.4,36.7z"/>
		<path class="st0" d="M111.5,42.5c-0.5,2.7-2.5,5.7-7.4,5.7c-5.1,0-7.8-3.5-7.8-8.5c0-4.9,3-8.8,8-8.8c5.5,0,7.1,4,7.2,5.9h-4.4
			c-0.3-1.3-1.1-2.3-2.8-2.3c-2.1,0-3.3,1.8-3.3,5c0,3.5,1.3,5.1,3.2,5.1c1.6,0,2.4-0.9,2.8-2.2H111.5z"/>
		<path class="st0" d="M118.2,40.6c0,2.1,1,4.1,3.3,4.1c1.9,0,2.5-0.8,2.9-1.8h4.6c-0.6,2-2.4,5.3-7.5,5.3c-5.4,0-7.8-4-7.8-8.4
			c0-5.2,2.6-8.9,8-8.9c5.6,0,7.6,4.1,7.6,8.2c0,0.6,0,0.9-0.1,1.4H118.2z M124.5,37.8c0-1.9-0.8-3.5-3-3.5c-2.2,0-3.1,1.5-3.2,3.5
			H124.5z"/>
		<path class="st0" d="M145.9,43.6c0,1.6,0.1,3.9,0.2,4.3h-4.4c-0.1-0.3-0.2-1.2-0.2-1.6c-0.6,0.9-1.7,2-4.6,2c-4,0-5.6-2.6-5.6-5.2
			c0-3.8,3-5.5,7.8-5.5h2.4v-1c0-1.2-0.4-2.3-2.5-2.3c-1.9,0-2.4,0.8-2.5,2H132c0.2-2.9,2-5.3,7.1-5.3c4.4,0,6.8,1.8,6.8,5.7V43.6z
			 M141.4,40.3h-1.8c-2.8,0-3.8,0.9-3.8,2.5c0,1.2,0.7,2.2,2.4,2.2c2.9,0,3.2-2,3.2-4.2V40.3z"/>
		<path class="st0" d="M150,35.5c0-1.4,0-2.9,0-4.2h4.4c0.1,0.4,0.2,1.6,0.2,2.1c0.5-1,1.9-2.5,4.8-2.5c3.3,0,5.4,2.3,5.4,6.4v10.5
			h-4.6v-10c0-1.9-0.6-3.2-2.6-3.2c-1.9,0-3,1.1-3,4v9.2H150V35.5z"/>
		<path class="st0" d="M177.2,25.9h9.1c4.7,0,7.8,2.6,7.8,6.8c0,4.8-3.6,7-7.9,7h-4.2v8.2h-4.7V25.9z M181.9,35.9h3.6
			c2.2,0,3.8-0.9,3.8-3.1c0-2.3-1.7-3.1-3.7-3.1h-3.7V35.9z"/>
		<path class="st0" d="M211.5,43c0,1.6,0,3.3,0,4.8h-4.5c-0.1-0.4-0.1-1.3-0.1-1.9c-1,1.7-2.4,2.3-4.6,2.3c-3.3,0-5.5-2-5.5-6.1
			V31.3h4.6v9.8c0,1.8,0.6,3.3,2.5,3.3c2.1,0,2.9-1.1,2.9-4.4v-8.8h4.6V43z"/>
		<path class="st0" d="M215.6,47.8V24.6h4.6v23.2H215.6z"/>
		<path class="st0" d="M227.5,42.9c0.4,1.3,1.4,2.1,3.1,2.1c1.7,0,2.3-0.6,2.3-1.6c0-1-0.7-1.5-3.1-2c-5.4-1.3-6.2-3-6.2-5.3
			c0-2.4,1.7-5,6.7-5c5,0,6.7,2.7,6.8,5h-4.3c-0.2-0.6-0.6-1.8-2.7-1.8c-1.5,0-2,0.7-2,1.4c0,0.8,0.5,1.2,3.2,1.8
			c5.5,1.3,6.3,3.2,6.3,5.6c0,2.7-2.1,5.2-7.1,5.2c-5,0-7.1-2.4-7.4-5.3H227.5z"/>
		<path class="st0" d="M244.3,40.6c0,2.1,1,4.1,3.3,4.1c1.9,0,2.5-0.8,2.9-1.8h4.6c-0.6,2-2.4,5.3-7.5,5.3c-5.4,0-7.8-4-7.8-8.4
			c0-5.2,2.6-8.9,8-8.9c5.6,0,7.6,4.1,7.6,8.2c0,0.6,0,0.9-0.1,1.4H244.3z M250.7,37.8c0-1.9-0.8-3.5-3-3.5c-2.2,0-3.1,1.5-3.2,3.5
			H250.7z"/>
	</g>
</g>
</svg>
