<?xml version="1.0" encoding="utf-8"?>
<!-- Generator: Adobe Illustrator 26.4.1, SVG Export Plug-In . SVG Version: 6.00 Build 0)  -->
<svg version="1.1" id="Layer_1" xmlns="http://www.w3.org/2000/svg" xmlns:xlink="http://www.w3.org/1999/xlink" x="0px" y="0px"
	 viewBox="0 0 571 161.9" enable-background="new 0 0 571 161.9" xml:space="preserve">
<g>
	<g>
		<defs>
			<path id="SVGID_1_" d="M505.8,66c-1.6-2.1-2.5-5.2-2.5-9.1s0.8-7,2.5-9.1c3.3-3.9,9.1-4.3,13-1c0.4,0.3,0.7,0.7,1,1
				c1.6,2.1,2.4,5.2,2.4,9.1s-0.8,7-2.4,9.1c-3.3,3.9-9.1,4.3-13,1C506.4,66.7,506.1,66.4,505.8,66 M497.6,42.1
				c-6.7,8.7-6.7,20.8,0,29.6c3.3,4.1,8.4,6.2,15.2,6.2s11.9-2,15.2-6.2c6.7-8.7,6.7-20.8,0-29.6c-3.3-4.2-8.4-6.3-15.2-6.2
				S500.9,38,497.6,42.1"/>
		</defs>
		<clipPath id="SVGID_00000134209749055417400250000016573626788788823477_">
			<use xlink:href="#SVGID_1_"  overflow="visible"/>
		</clipPath>
		<g clip-path="url(#SVGID_00000134209749055417400250000016573626788788823477_)">
			<rect x="477.6" y="20.9" fill="#2A3375" width="70.4" height="71.9"/>
		</g>
	</g>
</g>
<g>
	<g>
		<defs>
			<path id="SVGID_00000164512169913013387980000015196002432069521840_" d="M426.3,69c-1.1-1-1.6-2.4-1.5-3.8
				c-0.1-1.8,0.8-3.5,2.4-4.4c1.5-0.7,3.1-1.2,4.7-1.4l2.3-0.4c0.9-0.2,1.8-0.4,2.7-0.7c0.7-0.3,1.4-0.6,2-1v3.9
				c-0.1,3.5-1,5.9-2.9,7.2c-1.8,1.3-3.9,2-6.1,2C428.6,70.3,427.4,69.9,426.3,69 M418.8,41.1c-1.8,2.5-2.8,5.5-2.9,8.6h9.8
				c0.2-1.3,0.7-2.6,1.5-3.6c1-1.2,2.7-1.8,5.2-1.8c1.7-0.1,3.4,0.2,5,0.9c1.2,0.7,1.8,2,1.7,3.4c0,1.4-0.9,2.6-2.2,3
				c-1.3,0.5-2.7,0.8-4.1,0.9l-3.5,0.4c-3.1,0.3-6.2,1.1-9,2.6c-3.7,2.2-5.6,5.7-5.6,10.6c0,3.8,1.1,6.7,3.5,8.7s5.2,2.9,8.8,3.1
				c22.2,1,22-11.9,22.2-14.6v-15c0-4.8-1.7-8-5-9.8c-3.5-1.8-7.5-2.7-11.4-2.6C426.2,35.9,421.5,37.6,418.8,41.1"/>
		</defs>
		<clipPath id="SVGID_00000105395356901822676830000009427208986473593993_">
			<use xlink:href="#SVGID_00000164512169913013387980000015196002432069521840_"  overflow="visible"/>
		</clipPath>
		<g clip-path="url(#SVGID_00000105395356901822676830000009427208986473593993_)">
			<rect x="399.7" y="20.9" fill="#2A3375" width="64.4" height="71.9"/>
		</g>
	</g>
</g>
<g>
	<g>
		<defs>
			<path id="SVGID_00000041991322729979172920000011210137745078122905_" d="M379.3,41.5c-3.4,3.8-5.1,9.1-5.1,15.9
				c0,6,1.5,10.9,4.6,14.7s7.9,5.7,14.4,5.7s11.5-2.3,14.8-6.8c2-2.6,3.2-5.7,3.5-9h-10.8c-0.1,1.8-0.8,3.6-1.9,5.1
				c-1,1.3-2.8,2-5.3,2c-3.2,0.2-6.2-1.9-7.2-4.9c-0.8-2.2-1.1-4.6-1-7c-0.1-2.5,0.3-5,1-7.3c1.3-3.5,3.8-5.2,7.4-5.2
				c2.1-0.2,4.2,0.7,5.6,2.4c0.8,1.2,1.3,2.6,1.5,4h10.9c-0.6-5.7-2.5-9.6-5.8-11.8s-7.4-3.3-12.5-3.3
				C387.4,35.9,382.7,37.7,379.3,41.5"/>
		</defs>
		<clipPath id="SVGID_00000000906803747335547700000013708570193307942068_">
			<use xlink:href="#SVGID_00000041991322729979172920000011210137745078122905_"  overflow="visible"/>
		</clipPath>
		<g clip-path="url(#SVGID_00000000906803747335547700000013708570193307942068_)">
			<rect x="359.2" y="20.9" fill="#2A3375" width="67.4" height="71.9"/>
		</g>
	</g>
</g>
<g>
	<g>
		<defs>
			<path id="SVGID_00000008835539278402495240000016551190190514994076_" d="M350.2,55.9v20.4h10.2V57.2c0-3.1,0.4-5.4,1.2-6.9
				c1.4-2.7,4.1-4,8.2-4c0.3,0,0.7,0,1.2,0s1.1,0.1,1.7,0.1V35.9h-0.9h-0.5C348.9,35.9,350.3,56,350.2,55.9"/>
		</defs>
		<clipPath id="SVGID_00000084524615210209374170000001919155589042090905_">
			<use xlink:href="#SVGID_00000008835539278402495240000016551190190514994076_"  overflow="visible"/>
		</clipPath>
		<g clip-path="url(#SVGID_00000084524615210209374170000001919155589042090905_)">
			<rect x="335.2" y="20.9" fill="#2A3375" width="52.4" height="70.4"/>
		</g>
	</g>
</g>
<g>
	<g>
		<defs>
			<path id="SVGID_00000148644792841513647640000005426624667095708059_" d="M320.1,46.7c1.6-1.6,3.9-2.4,6.1-2.3
				c2.2-0.1,4.4,0.7,6.1,2.1c1.7,1.6,2.7,3.9,2.7,6.3h-17.7C317.6,50.5,318.6,48.4,320.1,46.7 M312.2,41.4
				c-3.6,3.7-5.4,8.9-5.4,15.8c0,7.3,2,12.6,6,15.8c3.9,3.2,8.8,4.9,13.8,4.9c6.3,0,11.3-1.9,14.8-5.8c1.7-1.7,2.9-3.7,3.6-6h-11
				c-0.4,0.6-0.9,1.1-1.4,1.6c-1.5,1.2-3.5,1.6-5.8,1.6c-1.9,0.1-3.8-0.3-5.5-1.3c-2.6-1.6-4-4.3-4.2-8.3h28.6
				c0.1-2.6,0-5.2-0.3-7.9c-0.4-2.9-1.5-5.7-3.1-8.2c-1.7-2.6-4-4.6-6.8-5.9c-2.9-1.3-6-1.9-9.2-1.9
				C320.5,35.9,315.8,37.7,312.2,41.4"/>
		</defs>
		<clipPath id="SVGID_00000122717308111056754800000008649627304956100024_">
			<use xlink:href="#SVGID_00000148644792841513647640000005426624667095708059_"  overflow="visible"/>
		</clipPath>
		<g clip-path="url(#SVGID_00000122717308111056754800000008649627304956100024_)">
			<rect x="291.8" y="20.9" fill="#2A3375" width="68.9" height="71.9"/>
		</g>
	</g>
</g>
<g>
	<g>
		<defs>
			<path id="SVGID_00000010269193370329850040000003993379349550906535_" d="M274.7,41.3c-2.8-3.5-7-5.5-11.5-5.4
				c-9.9,0-16.3,7.4-16.3,17.1v23.4h9.3V52.8c0-4.3,2.9-7.3,7-7.3c6.1,0,6.7,5.1,6.7,7.3v23.6h9.3V52.8c0-4.3,3-7.3,7-7.3
				c6.1,0,6.8,5.1,6.8,7.3v23.6h9.3V52.9c0-10-6-17.1-16.1-17.1C281.7,35.8,277.4,37.8,274.7,41.3"/>
		</defs>
		<clipPath id="SVGID_00000023964384040225673720000018251836121158066563_">
			<use xlink:href="#SVGID_00000010269193370329850040000003993379349550906535_"  overflow="visible"/>
		</clipPath>
		<g clip-path="url(#SVGID_00000023964384040225673720000018251836121158066563_)">
			<rect x="231.9" y="20.9" fill="#2A3375" width="85.4" height="70.4"/>
		</g>
	</g>
</g>
<g>
	<g>
		<defs>
			<path id="SVGID_00000010298420842718666230000010075409938875245233_" d="M466.1,66.1c-1.5-2.7-2.3-5.9-2.1-9
				c-0.1-3,0.6-5.9,2.1-8.4c1.3-2.3,3.8-3.6,6.5-3.4c1.9,0,3.7,0.6,5.1,1.9c2.4,2.1,3.6,5.8,3.6,10.6c0.1,3-0.7,5.9-2.2,8.4
				c-1.4,2.1-3.9,3.4-6.5,3.2C469.9,69.5,467.4,68.3,466.1,66.1 M480.9,31.1v11.1c-1.1-1.8-2.6-3.3-4.4-4.3c-1.9-1.1-4-1.6-6.2-1.6
				c-4.7-0.1-9.2,2-12.1,5.8c-3,3.9-4.5,9.4-4.5,16.1c0,5.8,1.5,10.6,4.6,14.3s9.1,5.3,14.4,5.3c18.6,0,18.4-16.3,18.4-16.3V23.9
				c0,0-0.5-0.1-1.2-0.1C487.2,23.9,480.9,24.6,480.9,31.1"/>
		</defs>
		<clipPath id="SVGID_00000158725688360392986640000006842815350656451976_">
			<use xlink:href="#SVGID_00000010298420842718666230000010075409938875245233_"  overflow="visible"/>
		</clipPath>
		<g clip-path="url(#SVGID_00000158725688360392986640000006842815350656451976_)">
			<rect x="438.6" y="8.9" fill="#2A3375" width="67.4" height="83.9"/>
		</g>
	</g>
</g>
<g>
	<g>
		<defs>
			<path id="SVGID_00000017507811491454110790000001636203403883147196_" d="M359.1,107.7c1.7-1.5,3.9-2.3,6.1-2.2
				c2.2-0.1,4.4,0.7,6.1,2.1c1.7,1.5,2.7,3.7,2.7,6h-17.7C356.6,111.4,357.5,109.3,359.1,107.7 M351.1,102.6
				c-3.6,3.5-5.4,8.6-5.4,15.2c0,7,2,12.1,6,15.3c3.9,3.1,8.8,4.8,13.8,4.7c6.3,0,11.2-1.9,14.8-5.6c1.7-1.6,2.9-3.6,3.6-5.8h-11
				c-0.4,0.6-0.9,1.1-1.4,1.6c-1.7,1.2-3.8,1.7-5.9,1.6c-1.9,0.1-3.8-0.3-5.5-1.3c-2.6-1.5-3.9-4.2-4.1-8h28.6
				c0.1-2.5,0-5.1-0.4-7.6c-0.4-2.8-1.5-5.5-3.1-7.9c-1.7-2.5-4-4.4-6.8-5.6c-2.9-1.2-6.1-1.8-9.2-1.8
				C359.4,97.3,354.7,99.1,351.1,102.6"/>
		</defs>
		<clipPath id="SVGID_00000163053196057389021610000017186117789912122781_">
			<use xlink:href="#SVGID_00000017507811491454110790000001636203403883147196_"  overflow="visible"/>
		</clipPath>
		<g clip-path="url(#SVGID_00000163053196057389021610000017186117789912122781_)">
			<rect x="330.7" y="82.3" fill="#2A3375" width="68.9" height="70.4"/>
		</g>
	</g>
</g>
<g>
	<g>
		<defs>
			<path id="SVGID_00000082332945100469938640000018277923160386675120_" d="M293.4,126.1c-1.6-2.5-2.4-5.4-2.2-8.4
				c0-4.8,1.2-8.2,3.6-10.3c1.4-1.2,3.2-1.9,5.1-1.9c2.6-0.2,5.1,1.1,6.5,3.4c1.5,2.6,2.2,5.5,2.1,8.5c0.1,3-0.6,6.1-2.1,8.7
				c-1.4,2.2-3.8,3.4-6.4,3.2C297.4,129.5,294.9,128.2,293.4,126.1 M281.3,91.3v30.1c0,0-0.2,16.3,18.4,16.3
				c5.3,0,11.4-1.6,14.4-5.3c3.1-3.7,4.6-8.5,4.6-14.3c0-6.7-1.5-12-4.5-15.8c-2.9-3.8-7.4-5.9-12.1-5.8c-2.2,0-4.3,0.5-6.2,1.6
				c-1.8,1.1-3.3,2.6-4.4,4.4V83.9c-0.3,0-0.7,0-1,0C287.9,83.9,281.3,84.5,281.3,91.3"/>
		</defs>
		<clipPath id="SVGID_00000180365698365065891880000002574065423011014827_">
			<use xlink:href="#SVGID_00000082332945100469938640000018277923160386675120_"  overflow="visible"/>
		</clipPath>
		<g clip-path="url(#SVGID_00000180365698365065891880000002574065423011014827_)">
			<rect x="266.3" y="68.8" fill="#2A3375" width="67.4" height="83.9"/>
		</g>
	</g>
</g>
<g>
	<g>
		<defs>
			<path id="SVGID_00000096764514159191282360000011511652661712360091_" d="M321.8,116v20.2H332v-19c0-3.2,0.4-5.5,1.2-7
				c1.4-2.7,4.1-4,8.2-4c0.3,0,0.7,0,1.2,0s1.1,0.1,1.7,0.1V95.9l-0.9-0.1h-0.5C320.5,95.8,321.8,116.1,321.8,116"/>
		</defs>
		<clipPath id="SVGID_00000089550964875631315240000001262536767098605755_">
			<use xlink:href="#SVGID_00000096764514159191282360000011511652661712360091_"  overflow="visible"/>
		</clipPath>
		<g clip-path="url(#SVGID_00000089550964875631315240000001262536767098605755_)">
			<rect x="306.8" y="80.8" fill="#2A3375" width="52.4" height="70.4"/>
		</g>
	</g>
</g>
<g>
	<g>
		<defs>
			<path id="SVGID_00000034073423447704627140000011630371048348675999_" d="M246.9,91.2v45.1h9V83.9h-0.2
				C254.3,83.8,246.9,84.1,246.9,91.2"/>
		</defs>
		<clipPath id="SVGID_00000039102286511189278000000010747781456103043467_">
			<use xlink:href="#SVGID_00000034073423447704627140000011630371048348675999_"  overflow="visible"/>
		</clipPath>
		<g clip-path="url(#SVGID_00000039102286511189278000000010747781456103043467_)">
			<rect x="231.9" y="68.8" fill="#2A3375" width="38.9" height="82.4"/>
		</g>
	</g>
</g>
<rect x="263.3" y="83.8" fill="#2A3375" width="10.5" height="10.5"/>
<rect x="263.3" y="97.3" fill="#2A3375" width="10.5" height="39"/>
<g>
	<g>
		<defs>
			<path id="SVGID_00000034062841765109944050000016690285305945036954_" d="M128.5,17.9c-50.1,0.1-90.6,27-90.4,59.8v3.5
				c0.1,34.8,35.6,62.9,90.8,62.6c55.5-0.1,90.5-28.5,90.5-63.2c-0.1-1.2,0-1.9,0-3.5c-0.2-32.6-40.6-59.2-90.5-59.2L128.5,17.9
				L128.5,17.9z"/>
		</defs>
		<clipPath id="SVGID_00000106867731850085149730000009577078315191534000_">
			<use xlink:href="#SVGID_00000034062841765109944050000016690285305945036954_"  overflow="visible"/>
		</clipPath>
		<g clip-path="url(#SVGID_00000106867731850085149730000009577078315191534000_)">
			<rect x="23" y="3" fill="#2A3375" width="211.3" height="155.9"/>
		</g>
	</g>
</g>
<g>
	<g>
		<defs>
			<path id="SVGID_00000089544237400089055690000007079808705970023867_" d="M128.5,21.1c-47.7,0.1-86.3,25.5-86.2,56.7
				s38.8,56.4,86.5,56.2s86.3-25.5,86.2-56.7s-38.6-56.2-86.1-56.2L128.5,21.1L128.5,21.1z"/>
		</defs>
		<clipPath id="SVGID_00000017479043493522387040000003251660519822403735_">
			<use xlink:href="#SVGID_00000089544237400089055690000007079808705970023867_"  overflow="visible"/>
		</clipPath>
		<g clip-path="url(#SVGID_00000017479043493522387040000003251660519822403735_)">
			<rect x="27.3" y="6.1" fill="#FDD100" width="202.7" height="142.9"/>
		</g>
	</g>
</g>
<g>
	<g>
		<defs>
			<path id="SVGID_00000126323404472894785820000013401820807652837014_" d="M87.4,84c-3.4,0.1-6,3-5.9,6.4c0.1,3.2,2.7,5.7,5.9,5.9
				c1.6,0,3.1-0.7,4.2-1.8c0.1,0,0.1,0.1,0,0.2l0,0c-0.3,1.5-0.7,7,5,9.2c2,0.8,4.3,0.4,5.9-1c0.5-0.4,0.6-0.2,0.5,0.3
				c-0.2,1.4,0.1,4.5,4.3,6.1c2.2,1,4.8,0.5,6.4-1.2c0.6-0.5,0.7-0.4,0.8,0.4c0.1,4.2,3.6,7.5,7.8,7.4s7.5-3.6,7.4-7.8l0,0
				c-0.1-4.2-3.5-7.6-7.7-7.6c-1.7,0-3.6,1-3.9,0.9c0-0.4,0.1-0.8,0.3-1.2c0.2-0.4,2.4-7.3-3.1-9.6c-4.3-1.8-6.9,0.3-7.7,1.1
				c-0.3,0.3-0.4,0.2-0.4-0.1c-0.1-2.6-1.8-4.9-4.3-5.7c-3.6-1.1-7.4,0.3-9.5,3.4c-0.3-3-2.9-5.3-5.9-5.3L87.4,84L87.4,84z
				 M42.1,70.8c1.6,0.5,4.1,1.2,5.2,1.4c24.8,5.5,32.6,11.1,33.9,12.3c1.5-1.8,3.8-2.8,6.1-2.8c2.7,0,5.2,1.3,6.7,3.5
				c1.7-1.4,3.8-2.1,5.9-2.1c1.2,0,2.4,0.2,3.6,0.6c2.3,0.6,4.1,2.3,5,4.5c1.1-0.5,2.3-0.7,3.5-0.7c1.4,0,2.8,0.3,4.1,0.9
				c4.6,1.9,5.3,6.5,4.9,9.9c0.3,0,0.6,0,0.9,0c5.4,0,9.8,4.4,9.8,9.8c0,1.6-0.4,3.2-1.2,4.7c1.5,0.8,5.2,2.7,8.5,2.3
				c2.6-0.3,3.7-1.3,4-1.8s0.5-0.8,0.3-1l-7-7.8c0,0-1.1-1.1-0.8-1.5c0.4-0.4,1.1,0.2,1.6,0.6c3.5,3,7.9,7.5,7.9,7.5s0.4,0.7,2,0.9
				c1.9,0.3,3.9-0.1,5.6-1.3c0.4-0.4,0.9-0.8,1.2-1.2l-0.1,0.1c1.8-2.3-0.2-4.6-0.2-4.6l-8.2-9.2c0,0-1.1-1.1-0.8-1.5
				c0.4-0.4,1.1,0.2,1.6,0.6c2.6,2.1,6.3,5.8,9.7,9.2c0.7,0.5,3.8,2.4,7.8-0.3c2.4-1.6,3-3.6,2.9-5.2c-0.2-1.3-0.8-2.5-1.7-3.4
				L153.6,84c0,0-1.1-1-0.8-1.5c0.4-0.5,1.1,0.2,1.6,0.6c3.5,3,13.2,11.8,13.2,11.8c2.3,1.5,5.3,1.4,7.6-0.2c1.4-0.8,2.4-2.3,2.5-4
				s-0.6-3.4-1.9-4.6c-0.3-0.3-28.3-24.7-34.6-29.5c-3.7-2.7-5.7-3.4-7.9-3.7c-1.3-0.1-2.5,0-3.8,0.3c-2.9,0.8-6.8,3.4-10.2,6.1
				c-3.6,2.9-6.8,5.5-9.9,6.2c-4,0.9-8.8-0.2-11-1.7c-0.8-0.5-1.4-1.2-1.8-2c-0.8-1.9,0.7-3.4,0.9-3.7l7.7-8.4
				c0.9-0.9,1.8-1.8,2.7-2.7c-2.4,0.4-4.7,0.9-7,1.6c-2.6,0.9-5.4,1.4-8.2,1.5c-2.8-0.3-5.6-0.7-8.4-1.3c-7.7-2-15.1-4.6-22.3-7.9
				C51.4,49.2,44.1,59.5,42.1,70.8 M132,39.5c-13.1,0.4-18.8,6-24.7,12.1l-7.6,8.3c0,0.1-0.9,1-0.4,1.7c1.3,1.8,5.6,2.8,9.9,1.8
				c2.5-0.6,5.8-3.2,9-5.8c3.5-2.8,6.8-5.5,10.3-6.6c2.4-0.9,5.1-1,7.5-0.2c2.5,0.9,4.8,2.3,6.8,4c6,4.5,30,25.5,34.2,29
				c12.3-5.4,25.2-9.6,38.3-12.5c-1.8-10.8-8.4-20.6-18.3-28.6c-13.8,5.9-30.7,9-47.2,0.9c-0.1,0-8.6-4-17.2-4L132,39.5"/>
		</defs>
		<clipPath id="SVGID_00000173848740119587887760000011089888990620779912_">
			<use xlink:href="#SVGID_00000126323404472894785820000013401820807652837014_"  overflow="visible"/>
		</clipPath>
		<g clip-path="url(#SVGID_00000173848740119587887760000011089888990620779912_)">
			<rect x="27.1" y="24.5" fill="#FFFFFF" width="203.2" height="106.3"/>
		</g>
	</g>
</g>
<g>
	<g>
		<defs>
			<path id="SVGID_00000002379615754229348710000001115205627462623144_" d="M82,90.4c-0.1-3,2.3-5.6,5.3-5.6
				c2.9-0.1,5.3,2.1,5.6,4.9l0.2,1.5l0.8-1.2c1.5-2.2,3.9-3.5,6.5-3.6c0.8,0,1.6,0.1,2.4,0.3c2.3,0.7,3.8,2.8,3.9,5.2
				c0.1,0.8,0.6,0.8,0.7,0.8c0.2,0,0.5-0.1,0.7-0.3c1-1.1,2.5-1.7,4-1.8c1,0,2.1,0.3,3,0.7c5.2,2.2,2.9,8.9,2.9,9
				c-0.5,1.1-0.5,1.6-0.1,1.9l0.2,0.1h0.2c0.3-0.1,0.7-0.2,1-0.3c0.9-0.4,1.9-0.6,2.8-0.6c3.9,0,7,3.1,7,7s-3.1,7-7,7
				c-3.8,0-7-3-7.2-6.8c0-0.3,0-1.2-0.8-1.2c-0.3,0-0.6,0.2-0.8,0.5c-0.9,1-2.1,1.6-3.5,1.6c-0.8,0-1.6-0.2-2.3-0.5
				c-4.1-1.7-4.1-4.4-3.9-5.5c0.1-0.3,0.1-0.6-0.1-0.8l-0.3-0.2H103c-0.2,0-0.5,0.1-0.6,0.3c-1,0.8-2.2,1.3-3.5,1.3
				c-0.6,0-1.3-0.1-1.9-0.4c-5.3-2.1-4.9-7.1-4.6-8.7c0-0.3,0-0.6-0.2-0.7L91.8,94l-0.4,0.4c-1,1-2.4,1.6-3.8,1.5l0,0
				C84.5,95.8,82.1,93.4,82,90.4 M132.8,36.6H132c-10.9,0.3-17,4.2-21.1,7.5c-3.6,0.2-7.1,0.9-10.5,1.9c-2.4,0.8-4.9,1.3-7.4,1.4
				c-0.5,0-1.2,0-1.8,0h-1.1c-2.6-0.1-16-3.3-26.6-7.3c-1.1,0.8-2.2,1.6-3.2,2.4c11.1,4.5,24.7,8,28.9,8.2l3.7,0.2
				c2.9-0.2,5.7-0.7,8.4-1.6c1.7-0.5,3.5-1,5.3-1.3c-0.5,0.5-1,1-1.5,1.5l-7.7,8.3c-0.6,0.6-2,2.3-1.1,4.3c0.5,0.9,1.1,1.7,2,2.2
				c2.5,1.4,5.3,2.1,8.2,2.1c1.1,0,2.2-0.1,3.3-0.3c3.2-0.7,6.6-3.5,10.2-6.3c2.8-2.3,6.9-5.2,10-6.1c0.9-0.2,1.9-0.4,2.8-0.4
				c0.3,0,0.5,0,0.8,0.1c2.1,0.3,4.1,1,7.6,3.6c6.3,4.8,34.4,29.2,34.6,29.4c1.1,1.1,1.7,2.6,1.7,4.1c-0.1,1.5-0.9,2.8-2.2,3.6
				c-1.1,0.7-2.4,1.1-3.7,1.2c-1.1,0-2.3-0.3-3.2-0.9c-0.1-0.1-9.7-8.9-13.3-11.8c-0.5-0.4-1-0.7-1.6-0.9c-0.3,0-0.6,0.1-0.8,0.4
				c-0.6,0.7,0.1,1.6,0.8,2.3l11.2,11.2c0.8,0.8,1.4,1.9,1.6,3c0.1,1.9-0.8,3.4-2.7,4.7c-1.2,0.9-2.6,1.3-4,1.3
				c-1.1,0-2.3-0.4-3.2-1l-1.6-1.6c-3-2.9-6-5.9-8.2-7.8c-0.5-0.5-1.1-0.8-1.7-0.8c-0.3,0-0.5,0.1-0.7,0.3c-0.3,0.3-0.5,0.8,0.2,1.6
				c0.2,0.2,0.4,0.5,0.6,0.7l8.2,9.2c1,1.1,1.1,2.7,0.2,3.9l-0.3,0.4l-0.7,0.8c-1.2,0.9-2.6,1.3-4,1.3c-0.4,0-0.8,0-1.1-0.1
				c-0.6-0.1-1.1-0.3-1.6-0.6l-0.1-0.1c-0.5-0.5-4.6-4.7-8-7.5c-0.4-0.4-1-0.7-1.6-0.8c-0.3,0-0.6,0.1-0.8,0.3
				c-0.7,0.8,0.3,1.9,0.8,2.3l7,7.7c0,0.1-0.1,0.2-0.3,0.5s-1.1,1.1-3.6,1.6c-0.3,0-0.7,0.1-1,0.1c-2.4-0.1-4.7-0.8-6.8-2
				c0.7-1.4,1-2.9,1-4.5c0-5.7-4.5-10.3-10.2-10.4H122h-0.4c0.2-2.6-0.2-7.6-5.3-9.8c-1.4-0.6-2.9-0.9-4.4-1c-1.1,0-2.2,0.2-3.2,0.6
				c-1-2.1-2.9-3.6-5.1-4.3c-1.2-0.4-2.4-0.6-3.7-0.6c-2.1,0-4.1,0.7-5.8,1.9c-1.7-2.1-4.2-3.3-6.8-3.3c-2.3,0-4.6,1-6.2,2.6
				c-2.2-1.7-10.8-7.1-33.9-12.3c-1.1-0.3-3.7-1-5.2-1.4c-0.3,1.2-0.4,2.5-0.6,3.8c0,0,4.3,1,5.1,1.2c23.6,5.2,31.3,10.6,32.6,11.6
				c-0.4,1.1-0.7,2.2-0.7,3.4c0.1,5,4.2,8.9,9.2,8.8c0.4,0,0.8,0,1.2-0.1c0.7,3.6,3.3,6.5,6.7,7.7c1,0.4,2.1,0.6,3.1,0.6
				c0.7,0,1.3-0.1,2-0.2c1,2.4,3,4.3,5.4,5.1c1.1,0.5,2.3,0.7,3.5,0.7c0.9,0,1.9-0.2,2.7-0.5c1.6,3.9,5.4,6.4,9.6,6.4
				c2.8,0,5.5-1.2,7.4-3.2c2.7,1.5,5.7,2.4,8.8,2.6c0.4,0,0.9,0,1.3-0.1c3.6-0.4,5.2-1.9,5.9-2.9c0.1-0.2,0.3-0.4,0.4-0.6
				c0.9,0.3,1.9,0.5,2.8,0.4c2.1-0.1,4-0.8,5.6-2.1c1.7-1.1,2.9-2.9,3.3-4.9v-0.1c0.6,0.1,1.2,0.2,1.9,0.2c2.1,0,4.1-0.7,5.8-1.9
				c3.7-2.4,4.3-5.5,4.2-7.5c0.6,0.1,1.3,0.2,1.9,0.2c1.9-0.1,3.8-0.6,5.5-1.7c2.2-1.4,3.6-3.7,3.8-6.2c0.1-1.7-0.3-3.5-1.2-5
				c11.8-4.8,23.9-8.7,36.2-11.5c-0.1-1.2-0.3-2.6-0.5-3.8c-13,2.9-25.7,7-37.8,12.4c-8.6-7.5-28.6-24.8-34-28.8
				c-2.1-1.8-4.4-3.1-7-4.1c-1.1-0.4-2.2-0.5-3.4-0.5c-1.5,0-2.9,0.3-4.3,0.7c-3.5,1.1-7,3.9-10.3,6.6l-0.2,0.1
				c-3.1,2.5-6.4,5.1-8.8,5.6c-1.1,0.2-2.2,0.4-3.3,0.4c-2.7,0-5.2-0.8-6.2-1.9c-0.2-0.2-0.1-0.5,0.3-1l0.1-0.1l7.6-8.2
				c5.9-5.9,11.5-11.6,24.4-11.9h0.7c8,0,16.1,3.6,17,3.9c7.2,3.6,15.1,5.5,23.1,5.5c8.1,0,16.5-2.1,25.4-6.2c-1-0.8-2-1.7-3.1-2.4
				c-7,3.2-14.6,5-22.3,5.1c-7.5-0.1-14.9-1.8-21.7-5.1c-0.4-0.2-9.2-4.3-18.4-4.3L132.8,36.6z"/>
		</defs>
		<clipPath id="SVGID_00000155825841305377323860000016676463374123725744_">
			<use xlink:href="#SVGID_00000002379615754229348710000001115205627462623144_"  overflow="visible"/>
		</clipPath>
		<g clip-path="url(#SVGID_00000155825841305377323860000016676463374123725744_)">
			<rect x="26.5" y="21.6" fill="#2A3375" width="204.3" height="112.2"/>
		</g>
	</g>
</g>
</svg>
