<?xml version="1.0" standalone="no"?>
<!DOCTYPE svg PUBLIC "-//W3C//DTD SVG 20010904//EN"
 "http://www.w3.org/TR/2001/REC-SVG-20010904/DTD/svg10.dtd">
<svg version="1.0" xmlns="http://www.w3.org/2000/svg"
 width="5709.000000pt" height="1205.000000pt" viewBox="0 0 5709.000000 1205.000000"
 preserveAspectRatio="xMidYMid meet">

<g transform="translate(0.000000,1205.000000) scale(0.100000,-0.100000)"
fill="#000000" stroke="none">
<path d="M4285 10553 c-418 -25 -773 -89 -1162 -209 -112 -34 -113 -35 -113
-66 0 -30 1 -30 38 -24 462 80 880 74 1342 -21 265 -54 568 -150 806 -255 409
-181 1002 -618 1409 -1040 189 -195 614 -707 980 -1179 27 -35 88 -113 135
-174 312 -401 1360 -1790 1531 -2030 833 -1167 1152 -1584 1565 -2050 197
-221 629 -645 659 -645 3 0 5 1391 5 3090 l0 3090 -425 -2 -425 -3 0 -1535
c-1 -844 -4 -1541 -9 -1548 -10 -17 -124 129 -731 933 -697 924 -995 1297
-1345 1685 -604 670 -933 979 -1292 1213 -770 503 -1762 785 -2733 775 -102
-1 -207 -3 -235 -5z"/>
<path d="M5630 6100 l0 -3090 430 0 431 0 -3 1550 c-2 853 0 1550 4 1550 6 0
298 -377 554 -715 50 -66 169 -224 265 -350 654 -865 950 -1232 1345 -1665
621 -681 917 -946 1346 -1204 629 -377 1378 -609 2188 -675 200 -17 719 -6
924 18 311 38 616 102 874 186 109 35 112 37 112 66 0 16 -2 29 -4 29 -2 0
-55 -9 -118 -19 -446 -76 -1003 -44 -1478 85 -532 144 -924 345 -1410 724
-608 474 -981 912 -2555 3000 -484 642 -611 815 -970 1315 -553 770 -886 1201
-1224 1590 -188 215 -626 648 -697 688 -12 7 -14 -426 -14 -3083z"/>
<path d="M49465 9113 c-115 -8 -375 -45 -488 -68 -478 -99 -918 -300 -1253
-572 -115 -92 -309 -291 -393 -401 -334 -440 -527 -997 -581 -1677 -10 -125
-14 -614 -6 -665 2 -14 7 -65 11 -115 14 -193 52 -423 101 -620 182 -721 587
-1284 1184 -1645 356 -215 777 -357 1265 -426 177 -25 558 -30 755 -9 914 94
1658 489 2113 1123 278 386 451 875 523 1472 19 159 27 724 13 895 -98 1180
-611 1990 -1528 2414 -304 141 -612 225 -1006 277 -114 15 -588 26 -710 17z
m527 -758 c113 -19 257 -71 351 -125 443 -253 700 -790 778 -1625 14 -147 18
-720 6 -895 -63 -952 -356 -1589 -847 -1844 -170 -89 -333 -126 -551 -126
-490 0 -863 249 -1104 737 -132 268 -214 580 -266 1013 -28 229 -35 877 -13
1120 52 566 195 1013 420 1306 68 89 191 207 274 264 128 87 307 157 456 179
101 15 403 13 496 -4z"/>
<path d="M18615 9100 c-486 -50 -854 -166 -1150 -365 -305 -204 -507 -458
-610 -768 -64 -192 -80 -296 -79 -527 0 -173 3 -220 21 -302 85 -377 258 -631
611 -895 208 -155 355 -252 557 -367 153 -88 287 -155 990 -502 509 -250 757
-430 851 -616 84 -165 84 -381 1 -562 -90 -193 -215 -325 -428 -451 -367 -217
-866 -252 -1469 -104 -266 65 -575 172 -903 313 -59 25 -110 46 -112 46 -3 0
-5 -168 -5 -374 l0 -374 153 -60 c699 -276 1513 -372 2304 -272 395 51 629
118 888 257 500 268 858 693 965 1148 46 192 65 548 40 726 -56 394 -246 683
-650 993 -299 229 -551 369 -1260 695 -504 233 -717 358 -854 502 -282 296
-256 672 65 944 309 262 845 328 1524 189 243 -50 389 -101 733 -260 111 -52
205 -94 207 -94 3 0 5 170 5 378 l0 379 -172 46 c-522 140 -848 204 -1318 258
-199 23 -750 34 -905 19z"/>
<path d="M39140 9103 c-514 -38 -932 -173 -1260 -406 -126 -90 -312 -281 -396
-407 -105 -158 -179 -351 -220 -575 -25 -135 -25 -412 0 -540 39 -200 106
-368 211 -525 98 -148 213 -263 410 -410 383 -285 567 -390 1375 -783 538
-262 737 -383 895 -541 133 -134 187 -260 187 -436 -1 -341 -258 -656 -672
-824 -305 -124 -718 -138 -1180 -41 -289 61 -715 206 -1044 354 -38 17 -71 30
-73 28 -3 -3 -6 -657 -3 -733 0 -23 283 -132 514 -199 438 -126 830 -179 1321
-179 378 0 625 23 950 89 376 76 748 276 1043 559 376 362 525 726 526 1281 0
210 -14 309 -65 470 -82 259 -257 490 -544 719 -296 235 -580 397 -1195 681
-469 216 -656 313 -823 427 -382 262 -452 685 -165 993 157 168 353 266 638
317 330 59 910 -1 1287 -133 117 -41 240 -94 444 -190 93 -43 173 -79 178 -79
7 0 10 132 8 377 l-2 377 -45 14 c-106 31 -518 134 -667 166 -325 71 -701 125
-1001 146 -140 9 -524 11 -632 3z"/>
<path d="M43775 9100 c-495 -44 -896 -178 -1218 -407 -108 -77 -287 -257 -366
-368 -218 -306 -314 -759 -246 -1150 62 -350 260 -666 554 -883 42 -31 110
-81 151 -113 92 -70 306 -209 420 -274 175 -100 254 -141 620 -321 642 -315
781 -389 955 -508 113 -77 237 -193 287 -270 46 -71 86 -191 94 -285 17 -184
-67 -395 -225 -563 -337 -359 -862 -483 -1531 -362 -300 54 -692 180 -1062
340 -81 35 -150 64 -153 64 -3 0 -5 -168 -5 -374 l0 -374 78 -33 c426 -178
906 -288 1442 -328 163 -13 629 -5 795 13 270 29 474 65 638 112 407 116 830
406 1085 744 228 302 323 609 323 1044 0 429 -120 725 -411 1016 -195 195
-416 357 -730 536 -172 97 -325 173 -720 354 -505 232 -740 364 -877 494 -171
162 -243 325 -230 519 15 247 187 465 470 597 187 88 386 124 677 123 221 0
367 -16 625 -69 256 -52 370 -91 717 -250 125 -57 230 -104 233 -104 3 0 5
170 5 378 l0 378 -192 52 c-472 127 -912 213 -1333 257 -175 19 -720 28 -870
15z"/>
<path d="M12340 9028 c0 -2 -1 -1359 -3 -3016 l-2 -3012 2067 0 2068 0 -5 208
c-3 114 -5 265 -5 336 l0 129 -187 -6 c-104 -4 -258 -11 -343 -17 -85 -5 -198
-12 -250 -15 -52 -3 -120 -8 -150 -10 -109 -10 -640 -34 -870 -40 -217 -5
-672 7 -758 21 l-37 6 0 1079 c0 1072 0 1079 20 1080 11 0 31 3 45 5 53 9
1195 12 1370 4 192 -9 456 -26 573 -37 l67 -6 0 355 c0 195 -2 357 -5 359 -2
3 -53 -1 -112 -8 -260 -31 -578 -44 -1063 -43 -267 1 -498 3 -515 5 -16 1
-106 6 -200 10 -93 4 -172 11 -175 15 -3 4 -3 453 0 997 l5 988 80 9 c189 22
1118 10 1475 -19 51 -4 104 -7 325 -20 108 -7 410 -23 573 -31 l132 -6 0 233
c0 129 3 282 6 342 l6 107 -2066 0 c-1136 0 -2066 -1 -2066 -2z"/>
<path d="M21840 6015 l0 -3015 765 0 765 0 0 1103 0 1102 277 -2 c985 -5 1798
158 2246 450 224 146 425 402 537 687 97 243 141 494 141 801 1 615 -170 1098
-510 1440 -259 261 -574 400 -991 438 -75 7 -661 11 -1672 11 l-1558 0 0
-3015z m2312 2345 c460 -49 772 -191 913 -415 157 -250 224 -739 156 -1135
-33 -190 -102 -376 -179 -480 -109 -147 -327 -272 -594 -341 -219 -55 -599
-82 -941 -64 l-149 7 7 1112 c3 611 6 1154 5 1207 l0 96 43 7 c23 3 101 9 172
12 72 4 132 8 134 10 8 7 333 -5 433 -16z"/>
<path d="M27075 9018 c-3 -7 -4 -1363 -3 -3013 l3 -3000 768 -3 767 -2 0 1245
0 1245 438 0 439 0 57 -105 c183 -334 471 -950 840 -1798 85 -194 177 -405
206 -469 l53 -118 819 0 c450 0 818 3 818 6 0 3 -25 54 -56 112 -31 59 -79
150 -107 202 -27 52 -67 127 -87 165 -411 772 -675 1288 -868 1700 -138 295
-293 649 -290 663 2 7 39 29 83 49 653 296 977 846 952 1617 -8 245 -42 393
-137 591 -118 245 -288 436 -530 597 -259 173 -577 283 -909 317 -160 17
-3250 15 -3256 -1z m2315 -648 c286 -36 504 -107 670 -220 77 -52 184 -169
220 -240 148 -293 177 -763 69 -1100 -43 -133 -99 -230 -179 -310 -162 -163
-379 -259 -700 -309 -189 -30 -201 -31 -547 -37 l-323 -7 0 1106 0 1106 43 6
c174 25 569 28 747 5z"/>
<path d="M32790 6015 l0 -3015 2065 0 2065 0 0 335 0 335 -92 0 c-95 0 -443
-18 -853 -45 -126 -8 -286 -17 -355 -20 -69 -3 -146 -8 -171 -10 -178 -18
-943 -10 -1086 10 l-43 6 0 1079 0 1078 78 8 c101 10 1129 11 1391 1 187 -7
333 -16 534 -33 l77 -7 0 358 0 358 -67 -6 c-185 -17 -440 -36 -538 -41 -200
-11 -996 -7 -1237 5 l-238 12 0 993 c0 937 1 993 18 998 9 3 103 10 207 17
177 11 826 7 1005 -6 36 -3 218 -14 405 -25 187 -11 369 -22 405 -25 36 -2
128 -7 205 -10 77 -3 188 -8 248 -11 l107 -6 0 341 0 341 -2065 0 -2065 0 0
-3015z"/>
<path d="M53342 4420 c-156 -22 -294 -91 -413 -210 -73 -73 -94 -101 -132
-180 -62 -129 -81 -224 -74 -359 7 -123 24 -187 78 -291 75 -145 175 -243 324
-315 290 -141 627 -76 846 163 325 355 211 924 -228 1128 -120 57 -274 81
-401 64z m243 -85 c188 -48 344 -173 426 -341 92 -190 91 -383 -2 -574 -60
-121 -170 -231 -289 -288 -111 -52 -174 -67 -290 -66 -219 1 -419 113 -535
298 -150 241 -133 530 45 754 74 94 213 182 340 216 73 19 230 20 305 1z"/>
<path d="M53160 3710 l0 -380 65 0 65 0 0 154 c0 181 -12 168 146 162 159 -6
192 -34 200 -175 3 -42 7 -91 10 -108 l5 -33 75 0 75 0 -16 30 c-9 17 -19 75
-24 134 -9 115 -28 162 -75 184 l-28 14 35 23 c44 31 70 85 75 160 6 101 -49
178 -147 205 -20 5 -132 10 -248 10 l-213 0 0 -380z m415 256 c72 -30 86 -134
25 -188 -29 -27 -36 -28 -138 -29 -110 -2 -151 -2 -164 0 -5 1 -8 53 -8 116
l0 115 125 0 c86 0 136 -4 160 -14z"/>
</g>
</svg>
