<?xml version="1.0" encoding="utf-8"?>
<!-- Generator: Adobe Illustrator 26.4.1, SVG Export Plug-In . SVG Version: 6.00 Build 0)  -->
<svg version="1.1" id="katman_1" xmlns="http://www.w3.org/2000/svg" xmlns:xlink="http://www.w3.org/1999/xlink" x="0px" y="0px"
	 viewBox="0 0 574.1 155.6" enable-background="new 0 0 574.1 155.6" xml:space="preserve">
<g>
	<g transform="translate(126 24)">
		<path fill="#010202" d="M91.8,61.4C88,59.3,86,57.6,86,55.2c0-3.1,2.7-5,7-5c5,0,9.4,2.1,9.4,2.1l3.5-10.7c0,0-3.2-2.5-12.7-2.5
			c-13.2,0-22.4,7.6-22.4,18.2c0,6,4.3,10.6,10,13.9c4.6,2.6,6.2,4.5,6.2,7.2c0,2.9-2.3,5.2-6.6,5.2C74,83.6,68,80.3,68,80.3
			L64.3,91c0,0,5.6,3.7,14.9,3.7c13.6,0,23.3-6.7,23.3-18.7C102.7,69.4,97.7,64.8,91.8,61.4z M146,38.9c-6.7,0-11.9,3.2-16,8
			l-0.2-0.1l5.8-30.4h-15.1l-14.7,77.3h15.1l5-26.4c2-10,7.1-16.1,11.9-16.1c3.4,0,4.7,2.3,4.7,5.6c0,2.1-0.2,4.6-0.7,6.7l-5.7,30.3
			h15.1l5.9-31.2c0.7-3.3,1.1-7.2,1.1-9.9C158.3,44,153.8,38.9,146,38.9z M192.5,38.9c-18.2,0-30.3,16.4-30.3,34.7
			c0,11.7,7.2,21.2,20.8,21.2c17.9,0,29.9-16,29.9-34.7C213,49.2,206.7,38.9,192.5,38.9z M185.1,83.1c-5.2,0-7.3-4.4-7.3-9.9
			c0-8.7,4.5-22.8,12.7-22.8c5.4,0,7.1,4.6,7.1,9.1C197.6,68.9,193.1,83.1,185.1,83.1z M251.7,38.9c-10.2,0-16,9-16,9h-0.2l0.9-8.1
			H223c-0.7,5.5-1.9,13.8-3.1,20.1l-10.5,55.4h15.1l4.2-22.4h0.3c0,0,3.1,2,8.9,2c17.8,0,29.4-18.2,29.4-36.6
			C267.3,48,262.8,38.9,251.7,38.9z M237.3,83.4c-3.9,0-6.2-2.2-6.2-2.2l2.5-14.1c1.8-9.4,6.7-15.7,11.9-15.7c4.6,0,6,4.3,6,8.3
			C251.5,69.4,245.7,83.4,237.3,83.4z M288.9,17.1c-4.8,0-8.7,3.8-8.7,8.8c0,4.5,2.8,7.6,7.1,7.6h0.2c4.7,0,8.8-3.2,8.9-8.8
			C296.5,20.3,293.5,17.1,288.9,17.1z"/>
		<polygon fill="#010202" points="267.7,93.7 282.9,93.7 293.2,40.1 277.9,40.1 		"/>
		<path fill="#010202" d="M331.6,39.9h-10.5l0.5-2.5c0.9-5.2,3.9-9.8,9-9.8c2.7,0,4.8,0.8,4.8,0.8l3-11.8c0,0-2.6-1.3-8.2-1.3
			c-5.4,0-10.7,1.5-14.8,5c-5.2,4.4-7.6,10.7-8.8,17.1l-0.4,2.5h-7L297,51.3h7l-8,42.3h15.1l8-42.3h10.4L331.6,39.9z M368,40.1
			c0,0-9.5,23.8-13.7,36.8h-0.2c-0.3-4.2-3.7-36.8-3.7-36.8h-15.9l9.1,49.2c0.2,1.1,0.1,1.8-0.3,2.5c-1.8,3.4-4.7,6.7-8.2,9.1
			c-2.8,2.1-6,3.4-8.5,4.3l4.2,12.8c3.1-0.7,9.4-3.2,14.8-8.2c6.9-6.5,13.3-16.4,19.8-30l18.5-39.7L368,40.1L368,40.1z"/>
	</g>
	<path fill="#010202" d="M135.5,138.8l37.4-8.1c0,0-13.5-91.3-13.6-91.9s-0.6-1-1.1-1s-10-0.7-10-0.7s-6.6-6.6-7.4-7.3
		c-0.2-0.2-0.4-0.3-0.6-0.4L135.5,138.8z M138.6,29.2c-0.1,0-0.3,0.1-0.4,0.1c-0.1,0-1.5,0.4-3.7,1.1c-2.2-6.4-6.1-12.3-13-12.3
		c-0.2,0-0.4,0-0.6,0c-2-2.5-4.4-3.6-6.5-3.6c-16.1,0-23.8,20.1-26.2,30.3C82,46.7,77.5,48.1,77,48.3c-3.5,1.1-3.6,1.2-4,4.5
		c-0.4,2.4-9.5,72.9-9.5,72.9l70.3,13.2L138.6,29.2z M120.3,34.1c0,0.2,0,0.5,0,0.7c-3.9,1.2-8.2,2.5-12.4,3.8
		c2.4-9.2,6.9-13.7,10.8-15.4C119.7,25.8,120.3,29.3,120.3,34.1z M113.9,18.8c0.7,0,1.4,0.2,2.1,0.7c-5.1,2.4-10.7,8.5-13,20.7
		c-3.4,1.1-6.7,2.1-9.8,3C95.9,33.9,102.4,18.8,113.9,18.8z M116.7,73.1c0,0-4.2-2.2-9.2-2.2c-7.5,0-7.8,4.7-7.8,5.9
		c0,6.4,16.8,8.9,16.8,24c0,11.9-7.5,19.5-17.7,19.5c-12.2,0-18.4-7.6-18.4-7.6l3.3-10.8c0,0,6.4,5.5,11.8,5.5c3.5,0,5-2.8,5-4.8
		c0-8.4-13.8-8.8-13.8-22.6c0-11.6,8.3-22.9,25.2-22.9c6.5,0,9.7,1.9,9.7,1.9L116.7,73.1z M123.1,22.5c3.6,0.4,5.9,4.5,7.4,9.1
		c-1.8,0.6-3.8,1.2-6,1.9c0-0.4,0-0.8,0-1.3C124.5,28.3,124,25.1,123.1,22.5z"/>
</g>
</svg>
