<svg xmlns="http://www.w3.org/2000/svg" width="47" height="47" viewBox="0 0 47 47" fill="none">
	<path
				d="M11.8061 41.5417C8.67849 39.5145 6.13159 36.7091 4.41526 33.4006C2.69894 30.0922 1.87215 26.3944 2.01602 22.6701C2.1599 18.9457 3.26948 15.3227 5.23592 12.1566C7.20236 8.9904 9.9581 6.38981 13.2328 4.60994C16.5075 2.83007 20.1886 1.93206 23.915 2.00401C27.6415 2.07596 31.2852 3.1154 34.4887 5.02035C37.6923 6.9253 40.3456 9.63033 42.1883 12.87C44.0311 16.1098 45 19.7729 45 23.5"
				stroke="#F9E63F" stroke-width="4" stroke-linecap="round"/>
	<path
				d="M20.1735 38.6388C17.3186 38.0115 14.6993 36.5897 12.6178 34.5376C10.5364 32.4854 9.07759 29.8865 8.40986 27.0408C7.74213 24.1952 7.89265 21.2186 8.84407 18.4548C9.79548 15.691 11.509 13.2526 13.7869 11.4209C16.0648 9.58917 18.8142 8.4389 21.7178 8.10281C24.6214 7.76671 27.5608 8.25849 30.1969 9.52139C32.833 10.7843 35.0582 12.7668 36.6159 15.2402C38.1735 17.7136 39 20.577 39 23.5"
				stroke="#C0C9C9" stroke-width="4" stroke-linecap="round"/>
	<path
				d="M16.7825 30.2177C15.6778 29.113 14.8626 27.7529 14.4091 26.2578C13.9556 24.7628 13.8778 23.179 14.1825 21.6467C14.4873 20.1144 15.1653 18.681 16.1564 17.4733C17.1475 16.2656 18.4212 15.321 19.8646 14.7232C21.308 14.1253 22.8765 13.8926 24.4313 14.0457C25.9861 14.1989 27.4791 14.7331 28.7781 15.6011C30.0771 16.469 31.142 17.644 31.8785 19.0218C32.6149 20.3996 33.0002 21.9378 33.0002 23.5001"
				stroke="#6D7E7B" stroke-width="4" stroke-linecap="round"/>
</svg>