<svg xmlns="http://www.w3.org/2000/svg" width="48" height="43" viewBox="0 0 48 43" fill="none">
	<path
				d="M13.16 20.8001C6.00611 20.8001 3.008 35.1999 0 43H47.5V1C42.236 1 39.104 9.4 35.344 20.8001C31.584 32.2001 29.704 36.4 26.696 36.4C21.432 36.4 20.3139 20.8001 13.16 20.8001Z"
				fill="url(#paint0_linear_463_9155)"/>
	<path class="svg-curve-line"
				d="M1 38.5C5 30.4231 7 20.8 13.16 20.8C19.32 20.8 21.432 36.4 26.696 36.4C29.704 36.4 31.584 32.2001 35.344 20.8C39.104 9.39998 41.736 1 47 1"
				stroke="#84E1FF" stroke-width="1.5" stroke-linecap="square" stroke-linejoin="round"/>
	<defs>
		<linearGradient id="paint0_linear_463_9155" x1="24.0465" y1="-3.30769" x2="24.0465" y2="48.3846"
										gradientUnits="userSpaceOnUse">
			<stop stop-color="#84E1FF"/>
			<stop offset="0.847901" stop-color="#84E1FF" stop-opacity="0"/>
		</linearGradient>
	</defs>
</svg>