<?xml version="1.0" encoding="utf-8"?>
<!-- Generator: Adobe Illustrator 25.0.1, SVG Export Plug-In . SVG Version: 6.00 Build 0)  -->
<svg version="1.1" id="Layer_1" xmlns="http://www.w3.org/2000/svg" xmlns:xlink="http://www.w3.org/1999/xlink" x="0px" y="0px"
	 viewBox="0 0 196 48.8" style="enable-background:new 0 0 196 48.8;" xml:space="preserve">
<style type="text/css">
	.st0{fill:#000001;}
</style>
<g>
	<path class="st0" d="M20.9,3.4v1.3c-1.5,0.2-2.6,0.4-3.3,0.7c-0.6,0.3-1,1-1,2c0,0.5,0.1,0.9,0.2,1.4c0.1,0.4,0.4,1.1,0.7,1.9
		L27,33.4l8-20.1c0.4-1,0.7-2,1.1-3.1c0.3-1.1,0.5-1.9,0.5-2.5c0-1.2-0.5-2-1.6-2.5c-0.7-0.3-1.6-0.5-2.7-0.5V3.4h12.5v1.3
		c-1.5,0.1-2.5,0.6-3.1,1.5C40.9,7,40,9,38.8,12.1L25.9,44.3c-0.2,0.6-0.4,0.9-0.6,1.2c-0.1,0.2-0.4,0.3-0.6,0.3
		c-0.3,0-0.5-0.2-0.8-0.5c-0.2-0.3-0.4-0.8-0.7-1.3L9.6,11.2C8.6,8.6,7.4,6.8,6.1,5.8C5.4,5.3,4.3,4.9,2.9,4.7V3.4H20.9z"/>
	<path class="st0" d="M61.2,3.3v28.6c0,2,0.3,3.6,0.9,4.9c1.1,2.3,3.2,3.4,6.1,3.4c2,0,4-0.7,6-2c1.1-0.7,2.2-1.8,3.4-3.1V10.6
		c0-2.3-0.4-3.8-1.3-4.5c-0.9-0.7-2.7-1.1-5.3-1.3V3.3h14.3v31.8c0,2,0.4,3.3,1.1,4.1c0.7,0.7,2.2,1.1,4.5,1v1.3
		c-1.6,0.4-2.8,0.8-3.6,1c-0.8,0.2-2,0.6-3.8,1.2c-0.8,0.3-2.4,0.9-5,1.9c-0.1,0-0.2-0.1-0.3-0.2c0-0.1,0-0.3,0-0.5v-7.3
		c-2,2.4-3.9,4.2-5.6,5.4c-2.5,1.8-5.2,2.7-8.1,2.7c-2.6,0-5.1-0.9-7.4-2.8c-2.3-1.8-3.5-4.9-3.5-9.1V10.4c0-2.4-0.5-4-1.5-4.8
		c-0.6-0.5-2-0.9-4-1.1V3.3H61.2z"/>
	<path class="st0" d="M107.6,8c-2.9,2.7-4.4,7.3-4.4,13.8c0,5.2,1.2,10.1,3.5,14.6c2.4,4.5,5.6,6.8,9.8,6.8c3.3,0,5.8-1.5,7.6-4.5
		c1.8-3,2.7-7,2.7-11.9c0-5.1-1.1-9.8-3.4-14.3c-2.3-4.5-5.5-6.7-9.8-6.7C111.3,5.7,109.3,6.5,107.6,8 M100.7,9.2
		c3.7-4,8.4-6,14.2-6c5.8,0,10.5,1.9,14.3,5.7c3.8,3.8,5.7,8.9,5.7,15.2c0,5.8-1.8,10.9-5.5,15.2c-3.7,4.3-8.4,6.4-14.3,6.4
		c-5.6,0-10.3-2.1-14.2-6.2c-3.9-4.1-5.8-9.3-5.8-15.5C95.2,18.1,97,13.2,100.7,9.2"/>
	<path class="st0" d="M139.4,44c2.7-0.2,4.6-0.7,5.5-1.5c0.9-0.7,1.4-2.3,1.4-4.7V17.5c0-2.9-0.3-5-0.8-6.3
		c-0.6-1.3-1.6-1.9-3.1-1.9c-0.3,0-0.7,0-1.2,0.1c-0.5,0.1-1,0.2-1.6,0.3V8.3c1.7-0.6,3.5-1.2,5.3-1.8c1.8-0.6,3.1-1.1,3.8-1.3
		c1.5-0.6,3.1-1.2,4.6-1.9c0.2,0,0.3,0.1,0.4,0.2c0.1,0.2,0.1,0.5,0.1,1V12c1.9-2.7,3.7-4.8,5.4-6.3c1.7-1.5,3.6-2.3,5.4-2.3
		c1.5,0,2.7,0.5,3.7,1.4c0.9,0.9,1.4,2.1,1.4,3.5c0,1.2-0.4,2.3-1.1,3.1c-0.7,0.8-1.6,1.3-2.7,1.3c-1.1,0-2.2-0.5-3.3-1.6
		c-1.1-1-2-1.6-2.6-1.6c-1,0-2.3,0.8-3.8,2.5c-1.5,1.7-2.2,3.4-2.2,5.2v20.1c0,2.5,0.6,4.3,1.8,5.3c1.2,1,3.2,1.4,6,1.4v1.5h-22.2
		V44z"/>
	<path class="st0" d="M186.5,3.4c0.4-0.1,0.3,0.4,0.3,0.7v32.1c0,3.4,0.4,5.5,1.2,6.3c0.8,0.9,2.7,1.4,5.6,1.6v1.3h-21.7v-1.3
		c3.2-0.3,5.2-0.8,6.1-1.6c0.8-0.8,1.2-2.9,1.2-6.3V14.6c0-1.9-0.1-3.3-0.4-4c-0.4-1.2-1.4-1.8-2.8-1.8c-0.3,0-0.6,0-0.9,0.1
		c-0.3,0.1-1.2,0.3-2.7,0.7V7.8C172.4,7.8,178.8,5.8,186.5,3.4"/>
</g>
</svg>
