<?xml version="1.0" encoding="utf-8"?>
<!-- Generator: Adobe Illustrator 26.4.1, SVG Export Plug-In . SVG Version: 6.00 Build 0)  -->
<svg version="1.1"
	 id="svg2" xmlns:cc="http://creativecommons.org/ns#" xmlns:svg="http://www.w3.org/2000/svg" xmlns:dc="http://purl.org/dc/elements/1.1/" xmlns:rdf="http://www.w3.org/1999/02/22-rdf-syntax-ns#"
	 xmlns="http://www.w3.org/2000/svg" xmlns:xlink="http://www.w3.org/1999/xlink" x="0px" y="0px" viewBox="0 0 149.2 61.1"
	 enable-background="new 0 0 149.2 61.1" xml:space="preserve">
<g id="g10" transform="matrix(1.3333333,0,0,-1.3333333,0,53.373333)">
	<g id="g12" transform="scale(0.1)">
		<path id="path14" fill="#F49813" d="M571.1,371.1c35.8,1.2,71.8-4.1,105.5-16.1c50.7-17.8,96.1-50.5,129.3-92.7
			c14.6-18.6,26.8-38.9,36.4-60.5c1.7-3.6,3-7.6,2.1-11.6c-1.1-6.7-7-12.3-13.8-12.9c-7-1-14.3,3.4-16.8,10
			c-19.1,44.8-51.6,83.8-92.1,110.8c-25.1,16.8-53.2,29-82.6,35.8c-37.9,8.9-77.8,8.9-115.7,0c-54.1-12.5-103.7-43.5-138.6-86.6
			c-14.8-18.2-27.1-38.4-36.3-60c-2-5-6.6-8.9-11.9-9.8c-5.2-1-10.8,0.8-14.4,4.6c-4.2,4.2-5.6,11-3.4,16.6
			c25.4,60,72.4,110.4,130.2,140.4C486.6,358.6,528.7,369.6,571.1,371.1L571.1,371.1"/>
		<path id="path16" fill="#3069B5" d="M523.9,186.3c-0.2,3.1,2.7,5.4,5.7,5.5c3.8,0.1,7.6,0.1,11.4,0c2.6-0.1,5.7-1.9,5.7-4.8
			c0.1-34.9-0.1-69.8,0.1-104.6c14.1,15.7,28.4,31.3,42.6,47c2.8,2.8,5,6.9,9.3,7.3c5.9,0.2,11.7,0.1,17.6,0.1
			c2.3,0.2,4.8-1.9,4-4.3c-0.9-1.9-2.6-3.1-4-4.6c-15.3-15.3-30.7-30.6-46-46c14.7-16.8,29.3-33.8,43.9-50.7
			c1.9-2.4,4.2-4.4,5.8-7.1c1.2-2.1-0.8-4.6-3-4.7c-4.9-0.3-9.8,0-14.6-0.1c-2.5,0.1-5.3-0.3-7.6,1c-2.4,1.4-3.9,3.9-5.6,6
			C575,44.1,561,62,546.8,79.8c-0.1-17.5,0-35.1-0.1-52.6c-0.1-2,0.4-4.5-1.4-5.9c-2.8-2.7-7-1.8-10.5-1.9c-3.1,0.1-6.7-0.6-9.3,1.7
			c-1.4,1.1-1.8,3-1.7,4.6C523.9,79.2,523.8,132.7,523.9,186.3L523.9,186.3"/>
		<path id="path18" fill="#3069B5" d="M459.4,137c7.1,2.3,15.1,2.7,22-0.3c2.4-1.1,5.3-3.6,4.2-6.6c-1.1-3.8-2.1-7.6-3.4-11.3
			c-1-2.7-4.1-3.7-6.7-3.1c-5.9,1-11.6,2.9-17.6,2.7c-4.2,0.1-8.1-2.1-10.9-5.1c-4.6-4.5-7-10.8-8.1-17.1c-0.9-4.5-0.6-9.2-0.6-13.7
			c0-19.2,0-38.5,0-57.7c0.3-3.2-3-5.3-5.9-5.4c-3.9-0.1-7.8-0.1-11.8,0c-2.8,0.1-6,2.2-5.7,5.4c0,35.6,0,71.2,0,106.9
			c-0.2,3.5,3.7,5.5,6.8,5.1c3.9-0.3,9.1,1.2,11.6-2.7c1.9-4.5,2.8-9.4,4.6-13.9C443.5,127.6,450.6,134.1,459.4,137L459.4,137"/>
		<path id="path20" fill="#3069B5" d="M59.5,134.3c1.1,1.2,2.4,2.6,4.2,2.5c5.3,0.1,10.7,0.2,16-0.1c2.7-0.1,4.6-2.4,5-5
			c5.2-21.3,10.4-42.6,15.6-63.8c1.5-6.6,3.4-13.1,4.4-19.8c1-6,1.2-12.1,2.2-18.1c1.3,8.6,2.5,17.2,4.9,25.6
			c6.8,25.4,13.6,50.8,20.4,76.2c0.5,2.9,3.3,5,6.1,5c5.9,0.1,11.9,0,17.8,0c3.2,0.1,6.6-1.7,7.3-5c5.1-18.5,10.1-37.1,15.2-55.6
			c3.1-12,7.1-23.8,8.8-36.1c0.5-3.4,0.9-6.8,1.6-10.2c1.9,19.3,6.9,38.2,11,57.1c3.4,15.1,6.7,30.2,10.1,45.2
			c0.5,3,3.7,4.6,6.5,4.5c4.8,0,9.6,0.2,14.4-0.1c2.8-0.1,4.5-3.2,3.5-5.8c-9.6-35.5-19.2-70.9-28.8-106.4c-0.5-2.8-3-5.1-5.9-5.1
			c-7.4-0.2-14.9-0.1-22.3-0.1c-2.7-0.2-5.5,1.3-5.9,4.1c-6.6,24.4-13.2,48.8-19.7,73.2c-2.4,8.5-3.3,17.3-4.3,26
			c-1.2-7.8-1.8-15.7-3.9-23.3C136.8,74.2,130,49.1,123.3,24c-0.8-4.1-5.4-4.9-8.9-4.6c-6.9,0.1-13.8-0.2-20.7,0.1
			c-2.5,0-4.4,1.9-4.8,4.2c-9.7,35.3-19.3,70.6-29,106C59.5,131.2,59.6,132.8,59.5,134.3L59.5,134.3"/>
		<path id="path22" fill="#3069B5" d="M930,136.7c5,0.1,10.1,0.1,15.1,0c3.1,0,5.9-2.1,6.9-5.1c8.7-22.7,17.3-45.5,26-68.3
			c1.8-4.6,3.1-9.4,3.9-14.3c3.6,13.5,8.4,26.6,12.6,39.9c4.7,14.4,9.4,28.8,14,43.2c0.7,2.5,3.1,4.2,5.6,4.4
			c4.1,0.3,8.3,0,12.4,0.1c2.4,0,5.3,0.3,7.1-1.7c1.2-1,0.9-2.7,0.4-4c-13.9-39.7-27.8-79.4-41.7-119c-2.4-6.6-4.3-13.5-8.2-19.5
			c-5.6-9.1-14.6-15.6-24.5-19.1c-3.5-1.1-7.1-3.5-10.8-2.1c-2.6,0.7-3.7,3.4-5.1,5.5c-1,1.8-2.9,3.5-2.5,5.8c0.2,2.3,2,4.1,4.1,4.7
			c4.2,1.4,8.4,3,11.8,6c8.2,7,13.3,17.3,15.3,27.8c-1.3,4.7-3.8,8.9-5.5,13.5c-13.3,30.8-26.5,61.7-39.8,92.5c-0.8,2-2,3.9-2.2,6.1
			C925.2,135.6,927.9,136.6,930,136.7L930,136.7"/>
		<path id="path24" fill="#3069B5" d="M311.6,121.8c-7.2-1.3-13.8-5.8-17.5-12.3c-6.1-10.4-6.8-23-6.6-34.8
			c0.4-10.7,2.2-22.1,9-30.7c5.1-6.5,13.4-9.8,21.6-9.6c7.8-0.2,16,2.4,21.3,8.3c6.8,7.4,8.9,17.7,9.9,27.3
			c0.4,9.5,0.6,19.2-1.9,28.5c-2,7.8-6.1,15.7-13.3,19.9C327.4,122.6,319.2,123,311.6,121.8z M314.7,138.7
			c13.1,0.8,26.8-1.9,37.6-9.7c9.7-6.9,16.2-17.5,19.3-28.8c3.6-13.6,3.6-28,0.3-41.7C368.8,46,361.5,34.1,350.5,27
			c-11.7-7.8-26.5-9.8-40.3-8.2c-11.7,1.4-23.2,6.6-31.3,15.2c-9.6,10.1-14.4,23.9-15.4,37.6c-1.2,15.2,1.1,31.3,9.6,44.3
			c6.3,9.8,16.2,16.9,27.3,20.2C305,137.6,309.9,138.3,314.7,138.7L314.7,138.7"/>
		<path id="path26" fill="#3069B5" d="M700.8,122.4c-7.2-0.5-14.1-4.6-17.3-11.1c-6.3-12.1-6.4-26.2-6.1-39.5
			c0.5-8.7,1.4-17.7,5.5-25.5c2.7-5.3,7.7-9.5,13.6-10.8c9-2.2,19.6-0.3,26,6.8c6.2,7,8.2,16.6,9.2,25.6c0.7,10.3,0.7,20.8-1.9,30.9
			c-1.8,6.7-4.7,13.5-10.1,18.2C714.6,121.5,707.5,123.2,700.8,122.4z M731.7,187.8c-0.2,2.7,2.6,4.5,5.1,4.7
			c3.9,0.2,7.8,0.1,11.7,0.1c3,0,6.3-2.2,5.9-5.5c0-53.8,0-107.6,0-161.4c0.2-2.8-2.5-4.9-5.1-5.1c-3.1-0.2-6.2-0.2-9.3,0.1
			c-2.2,0.1-4.3,1.5-5,3.6c-1.2,3.5-1.8,7.1-2.7,10.7c-4.3-5.8-9.8-11-16.7-13.5c-9.8-3.6-20.7-3.7-30.8-1.2
			c-10.1,2.4-19,9.4-23.9,18.6c-7.7,14-8.6,30.5-8.1,46.1c0.3,13.3,2.8,27.4,11.5,38c6.6,9,17.3,14.1,28.1,15.5
			c10.1,1.5,21-0.2,29.4-6.3c4-2.8,7.1-6.5,9.9-10.4C731.6,143.6,731.6,165.7,731.7,187.8L731.7,187.8"/>
		<path id="path28" fill="#3069B5" d="M840.3,121.8c-3.6-0.7-7.1-2.2-10-4.4c-5.8-4.5-8.7-11.7-10.3-18.7
			c-2.2-11.1-2.2-22.6-1.1-33.8c1.1-8.2,3.2-17,9.2-23.1c4.9-5.2,12.3-7.1,19.3-6.7c7.5-0.3,15.2,2.5,20.1,8.4
			c6,7.3,7.7,17,8.6,26.1c0.6,10.7,0.6,21.7-2.4,32.1c-1.9,6.5-5.4,12.9-11.3,16.6C856,122.5,847.8,122.9,840.3,121.8z M830.3,136.5
			c10.4,2.9,21.5,3,31.9,0.6c9.7-2.3,18.8-7.7,24.8-15.8c6.3-8.3,9.5-18.6,10.8-28.8c1.2-7.9,0.8-15.9,0.8-23.9
			c0-14.4,0-28.7,0-43.1c0.2-1.8-0.9-3.3-2.4-4.2c-2.4-1.5-5.4-0.8-8.1-1c-3,0-7-0.2-8.6,2.9c-1.6,3.7-1.9,7.8-3,11.7
			c-4-4.9-8.2-10-14.1-12.8c-8.9-4.4-19.3-4.1-28.9-2.3c-11.7,2.3-22.4,9.2-29,19.2c-7.9,11.6-10.7,25.9-10.6,39.7
			c-0.1,13.5,2.5,27.4,10,38.8C810.1,126.8,819.7,133.6,830.3,136.5L830.3,136.5"/>
		<path id="path30" fill="#3069B5" d="M1039.1,48.3c-5.9-2.2-9.7-9-8.1-15.2c1.5-7.2,10-12.2,17-9.5c6.5,2,10.6,9.4,8.6,15.9
			C1054.7,46.8,1046,51.1,1039.1,48.3z M1039.9,51.4c3.5,0.6,7.3,0.6,10.6-1c5.6-2.5,9.5-8.5,8.9-14.7c0.5-7.4-5.8-14-12.9-15.2
			c-8-1.7-16.6,4.1-18.2,12.1C1026.2,40.5,1031.8,49.6,1039.9,51.4L1039.9,51.4"/>
		<path id="path32" fill="#3069B5" d="M1041.6,42.4c0-1.7,0-3.4,0-5.1c1.5,0.1,3,0,4.4,0.4c1.4,0.6,1.2,2.3,0.9,3.5
			C1045.4,42.6,1043.3,42.2,1041.6,42.4z M1037.1,45.1c4.2-0.2,9,1,12.8-1.4c3.1-2.3,1.6-7.4-1.9-8.4c1-2.7,2.4-5.1,3.7-7.7
			c-1.6,0-3.2-0.1-4.8-0.1c-1.1,2.3-2.3,4.7-3.4,7.1c-0.7,0-1.4,0-2.1,0c0-2.4,0-4.7,0-7.1c-1.5,0-3,0-4.5,0.1
			C1037.1,33.4,1037.1,39.3,1037.1,45.1L1037.1,45.1"/>
	</g>
</g>
</svg>
